<svg width="101" height="97" viewBox="0 0 101 97" fill="none" xmlns="http://www.w3.org/2000/svg">
<rect x="0.532013" y="0.940765" width="100.349" height="95.4953" rx="47.7476" fill="#D9D9D9"/>
<g clip-path="url(#clip0_7_5955)">
<path d="M49.8292 19.0986C50.1348 19.227 50.4332 19.2147 50.7648 19.2155C50.4592 19.0871 50.1607 19.0994 49.8292 19.0986Z" fill="#F1F1F1"/>
<path d="M49.0105 19.2155C49.2505 19.3178 49.4487 19.327 49.7122 19.3325C49.4722 19.2302 49.274 19.221 49.0105 19.2155Z" fill="#E1E1E1"/>
<path d="M49.7122 19.2155C49.8582 19.2956 49.8933 19.3031 50.0631 19.3325C49.9171 19.2524 49.882 19.2449 49.7122 19.2155Z" fill="#B5B5B5"/>
<path d="M50.0631 19.2155C50.3031 19.3178 50.5013 19.327 50.7648 19.3325C50.5248 19.2302 50.3266 19.221 50.0631 19.2155Z" fill="#878787"/>
<path d="M50.8428 19.2545C50.7908 19.3065 50.9143 19.3 50.9207 19.2935C50.9728 19.2415 50.8493 19.248 50.8428 19.2545Z" fill="#A9A9A9"/>
<path d="M51.0767 19.2545C51.0247 19.3065 51.1482 19.3 51.1546 19.2935C51.2067 19.2415 51.0832 19.248 51.0767 19.2545Z" fill="#C2C2C2"/>
<path d="M51.2326 19.2155C51.5054 19.3307 51.7539 19.3303 52.0513 19.3325C51.7786 19.2173 51.5301 19.2177 51.2326 19.2155Z" fill="#DFDFDF"/>
<path d="M48.5427 19.3325C48.6886 19.4126 48.7237 19.4201 48.8935 19.4494C48.7476 19.3694 48.7125 19.3619 48.5427 19.3325Z" fill="#E3E3E3"/>
<path d="M49.0885 19.3715C49.0364 19.4235 49.16 19.4169 49.1664 19.4105C49.2184 19.3585 49.0949 19.365 49.0885 19.3715Z" fill="#515151"/>
<path d="M42.9288 25.0633C44.316 25.0633 45.7584 24.9495 47.1392 25.0832C50.9581 25.4528 54.7362 26.276 58.4839 27.0516C58.2107 23.9224 55.7094 20.4311 52.6361 19.5849C49.5079 18.7236 46.3614 19.8836 44.3434 22.3733C43.7252 23.1359 43.0312 24.0627 42.9288 25.0633Z" fill="#151515"/>
<path d="M51.7005 19.3325C51.8464 19.4126 51.8815 19.4201 52.0513 19.4494C51.9054 19.3694 51.8703 19.3619 51.7005 19.3325Z" fill="#6C6C6C"/>
<path d="M52.0513 19.3325C52.1973 19.4126 52.2324 19.4201 52.4022 19.4494C52.2562 19.3694 52.2212 19.3619 52.0513 19.3325Z" fill="#E1E1E1"/>
<path d="M48.2698 19.4884C48.2178 19.5404 48.3413 19.5339 48.3477 19.5274C48.3997 19.4754 48.2762 19.4819 48.2698 19.4884Z" fill="#D5D5D5"/>
<path d="M52.5192 19.4494C52.6651 19.5295 52.7002 19.537 52.87 19.5664C52.7241 19.4863 52.689 19.4788 52.5192 19.4494Z" fill="#E2E2E2"/>
<path d="M47.9189 19.6054C47.8669 19.6574 47.9904 19.6508 47.9968 19.6444C48.0489 19.5924 47.9254 19.5989 47.9189 19.6054Z" fill="#DBDBDB"/>
<path d="M57.4703 23.8548C57.4638 23.8613 57.4573 23.9847 57.5093 23.9327C57.5157 23.9263 57.5223 23.8028 57.4703 23.8548Z" fill="#868686"/>
<path d="M57.5872 24.0887C57.5808 24.0952 57.5742 24.2186 57.6263 24.1667C57.6327 24.1602 57.6393 24.0367 57.5872 24.0887Z" fill="#8A8A8A"/>
<path d="M57.7042 24.3226C57.6977 24.3291 57.6912 24.4525 57.7432 24.4006C57.7497 24.3941 57.7562 24.2706 57.7042 24.3226Z" fill="#919191"/>
<path d="M42.8508 24.6735C42.8443 24.68 42.8378 24.8034 42.8898 24.7514C42.8963 24.7449 42.9028 24.6215 42.8508 24.6735Z" fill="#959595"/>
<path d="M57.8211 24.6735C57.8147 24.68 57.8081 24.8034 57.8602 24.7514C57.8666 24.7449 57.8732 24.6215 57.8211 24.6735Z" fill="#747474"/>
<path d="M42.6949 24.8294V25.2972C42.7779 25.0914 42.7779 25.0352 42.6949 24.8294Z" fill="#AAAAAA"/>
<path d="M57.9381 24.9074C57.9316 24.9139 57.9251 25.0373 57.9771 24.9853C57.9836 24.9789 57.9901 24.8554 57.9381 24.9074Z" fill="#909090"/>
<path d="M42.8118 24.9464C43.2457 25.4429 44.6356 25.1803 45.2679 25.1803C44.5312 24.8711 43.6008 25.1342 42.8118 24.9464Z" fill="#212121"/>
<path d="M45.2679 25.0633C45.9075 25.3317 46.7999 25.1803 47.4901 25.1803C46.8504 24.9119 45.9581 25.0633 45.2679 25.0633Z" fill="#303030"/>
<path d="M58.0161 25.0633L58.25 26.1159C58.3624 25.7357 58.2234 25.3933 58.0161 25.0633Z" fill="#A4A4A4"/>
<path d="M42.8118 25.1803C43.3643 25.4121 44.0878 25.2972 44.6831 25.2972C44.1306 25.0654 43.4071 25.1803 42.8118 25.1803Z" fill="#737373"/>
<path d="M44.6831 25.1803C44.89 25.2714 45.0382 25.287 45.2679 25.2972C45.061 25.2061 44.9128 25.1905 44.6831 25.1803Z" fill="#8B8B8B"/>
<path d="M45.2679 25.1803C45.6693 25.3487 46.1217 25.2972 46.5544 25.2972C46.153 25.1288 45.7006 25.1803 45.2679 25.1803Z" fill="#AEAEAE"/>
<path d="M46.5544 25.1803C46.7305 25.2602 46.8252 25.2769 47.0222 25.2972C46.8461 25.2173 46.7515 25.2006 46.5544 25.1803Z" fill="#9B9B9B"/>
<path d="M47.0222 25.1803C47.1984 25.2602 47.293 25.2769 47.4901 25.2972C47.3139 25.2173 47.2193 25.2006 47.0222 25.1803Z" fill="#7A7A7A"/>
<path d="M47.4901 25.1803C47.73 25.2825 47.9283 25.2917 48.1918 25.2972C47.9518 25.195 47.7536 25.1858 47.4901 25.1803Z" fill="#3C3C3C"/>
<path d="M48.0359 25.3362C47.9838 25.3882 48.1074 25.3817 48.1138 25.3752C48.1658 25.3232 48.0423 25.3297 48.0359 25.3362Z" fill="#C0C0C0"/>
<path d="M48.2698 25.3362C48.2178 25.3882 48.3413 25.3817 48.3477 25.3752C48.3997 25.3232 48.2762 25.3297 48.2698 25.3362Z" fill="#848484"/>
<path d="M48.4257 25.2972C48.6984 25.4124 48.947 25.412 49.2444 25.4142C48.9717 25.299 48.7231 25.2994 48.4257 25.2972Z" fill="#4A4A4A"/>
<path d="M49.0885 25.4532C49.0364 25.5051 49.16 25.4987 49.1664 25.4922C49.2184 25.4402 49.0949 25.4467 49.0885 25.4532Z" fill="#B0B0B0"/>
<path d="M49.3224 25.4532C49.2704 25.5051 49.3939 25.4987 49.4003 25.4922C49.4524 25.4402 49.3288 25.4467 49.3224 25.4532Z" fill="#727272"/>
<path d="M49.4783 25.4142C49.6852 25.5053 49.8334 25.5209 50.0631 25.5311C49.8562 25.44 49.708 25.4244 49.4783 25.4142Z" fill="#3A3A3A"/>
<path d="M49.9072 25.5701C49.8551 25.6221 49.9786 25.6156 49.9851 25.6091C50.0371 25.5571 49.9136 25.5636 49.9072 25.5701Z" fill="#ABABAB"/>
<path d="M50.1411 25.5701C50.089 25.6221 50.2126 25.6156 50.219 25.6091C50.271 25.5571 50.1475 25.5636 50.1411 25.5701Z" fill="#6D6D6D"/>
<path d="M50.297 25.5311C50.443 25.6112 50.478 25.6187 50.6479 25.6481C50.5019 25.568 50.4668 25.5605 50.297 25.5311Z" fill="#4B4B4B"/>
<path d="M50.7259 25.6871C50.6738 25.7391 50.7973 25.7326 50.8038 25.7261C50.8558 25.6741 50.7323 25.6806 50.7259 25.6871Z" fill="#9B9B9B"/>
<path d="M50.8818 25.6481C51.0887 25.7392 51.2369 25.7548 51.4666 25.7651C51.2597 25.674 51.1115 25.6583 50.8818 25.6481Z" fill="#454545"/>
<path d="M51.6615 25.804C51.6095 25.856 51.733 25.8495 51.7394 25.843C51.7915 25.791 51.668 25.7975 51.6615 25.804Z" fill="#6E6E6E"/>
<path d="M51.8174 25.7651C51.9634 25.8452 51.9985 25.8526 52.1683 25.882C52.0223 25.8019 51.9872 25.7944 51.8174 25.7651Z" fill="#4D4D4D"/>
<path d="M52.2463 25.921C52.1943 25.973 52.3178 25.9665 52.3242 25.96C52.3762 25.908 52.2527 25.9145 52.2463 25.921Z" fill="#969696"/>
<path d="M52.4802 25.921C52.4282 25.973 52.5517 25.9665 52.5581 25.96C52.6101 25.908 52.4866 25.9145 52.4802 25.921Z" fill="#5C5C5C"/>
<path d="M52.6361 25.882C52.7821 25.9621 52.8172 25.9696 52.987 25.999C52.841 25.9189 52.8059 25.9114 52.6361 25.882Z" fill="#434343"/>
<path d="M52.948 26.0379C52.896 26.0899 53.0195 26.0834 53.0259 26.0769C53.078 26.025 52.9545 26.0315 52.948 26.0379Z" fill="#9E9E9E"/>
<path d="M53.1819 26.0379C53.1299 26.0899 53.2534 26.0834 53.2598 26.0769C53.3119 26.025 53.1884 26.0315 53.1819 26.0379Z" fill="#5C5C5C"/>
<path d="M53.3379 25.999C53.4838 26.0791 53.5189 26.0865 53.6887 26.1159C53.5428 26.0358 53.5077 26.0283 53.3379 25.999Z" fill="#434343"/>
<path d="M53.6498 26.1549C53.5977 26.2069 53.7212 26.2004 53.7277 26.1939C53.7797 26.1419 53.6562 26.1484 53.6498 26.1549Z" fill="#9E9E9E"/>
<path d="M53.8837 26.1549C53.8316 26.2069 53.9551 26.2004 53.9616 26.1939C54.0136 26.1419 53.8901 26.1484 53.8837 26.1549Z" fill="#5D5D5D"/>
<path d="M54.0396 26.1159C54.1855 26.196 54.2206 26.2035 54.3904 26.2329C54.2445 26.1528 54.2094 26.1453 54.0396 26.1159Z" fill="#434343"/>
<path d="M58.3669 26.1159V26.4668C58.4483 26.2851 58.4483 26.2976 58.3669 26.1159Z" fill="#ABABAB"/>
<path d="M54.3515 26.2719C54.2995 26.3238 54.423 26.3174 54.4294 26.3109C54.4814 26.2589 54.3579 26.2654 54.3515 26.2719Z" fill="#9F9F9F"/>
<path d="M54.5854 26.2719C54.5334 26.3238 54.6569 26.3174 54.6633 26.3109C54.7154 26.2589 54.5918 26.2654 54.5854 26.2719Z" fill="#5D5D5D"/>
<path d="M54.7413 26.2329C54.8873 26.313 54.9224 26.3205 55.0922 26.3498C54.9462 26.2697 54.9111 26.2623 54.7413 26.2329Z" fill="#404040"/>
<path d="M55.0922 26.3498C55.2381 26.4299 55.2732 26.4374 55.443 26.4668C55.2971 26.3867 55.262 26.3792 55.0922 26.3498Z" fill="#686868"/>
<path d="M55.4431 26.3498C55.589 26.4299 55.6241 26.4374 55.7939 26.4668C55.648 26.3867 55.6129 26.3792 55.4431 26.3498Z" fill="#3D3D3D"/>
<path d="M55.8719 26.5058C55.8199 26.5577 55.9434 26.5513 55.9498 26.5448C56.0019 26.4928 55.8784 26.4993 55.8719 26.5058Z" fill="#5C5C5C"/>
<path d="M56.1058 26.5058C56.0538 26.5577 56.1773 26.5513 56.1837 26.5448C56.2358 26.4928 56.1123 26.4993 56.1058 26.5058Z" fill="#414141"/>
<path d="M58.4839 26.4668V26.9346C58.5669 26.7288 58.5669 26.6726 58.4839 26.4668Z" fill="#B6B6B6"/>
<path d="M56.3787 26.5838C56.5247 26.6638 56.5597 26.6713 56.7296 26.7007C56.5836 26.6206 56.5485 26.6131 56.3787 26.5838Z" fill="#5B5B5B"/>
<path d="M56.9245 26.7397C56.8725 26.7917 56.996 26.7852 57.0024 26.7787C57.0545 26.7267 56.931 26.7332 56.9245 26.7397Z" fill="#636363"/>
<path d="M57.0804 26.7007C57.2264 26.7808 57.2615 26.7883 57.4313 26.8177C57.2854 26.7376 57.2503 26.7301 57.0804 26.7007Z" fill="#3E3E3E"/>
<path d="M57.4313 26.8177C57.5773 26.8977 57.6124 26.9052 57.7822 26.9346C57.6362 26.8545 57.6011 26.847 57.4313 26.8177Z" fill="#4E4E4E"/>
<path d="M57.8991 26.9346C58.0451 27.0147 58.0803 27.0222 58.25 27.0516C58.104 26.9715 58.0689 26.964 57.8991 26.9346Z" fill="#545454"/>
<path d="M58.4839 26.9346L58.3669 27.1685H58.6009C58.6009 26.9518 58.6359 27.0106 58.4839 26.9346Z" fill="#757575"/>
<path d="M58.6398 27.0126C58.6334 27.0191 58.6268 27.1425 58.6789 27.0906C58.6853 27.0841 58.6919 26.9606 58.6398 27.0126Z" fill="#CCCCCC"/>
<path d="M71.544 36.0961C71.492 36.1482 71.6155 36.1416 71.6219 36.1352C71.674 36.0831 71.5504 36.0897 71.544 36.0961Z" fill="#CFCFCF"/>
<path d="M71.544 36.2131C71.492 36.2651 71.6155 36.2586 71.6219 36.2521C71.674 36.2001 71.5504 36.2066 71.544 36.2131Z" fill="#515151"/>
<path d="M71.349 36.2911V36.6419C71.4304 36.4602 71.4304 36.4728 71.349 36.2911Z" fill="#3C3C3C"/>
<path d="M71.466 36.2911C71.5563 37.3188 72.1826 38.2683 72.5649 39.215C73.2031 40.7955 73.7386 42.4618 74.1064 44.1271C75.55 50.6633 74.8513 57.674 72.4961 63.8927C71.7713 65.8068 71.1796 68.3289 69.5947 69.7404C69.8384 67.9307 70.3939 66.2008 70.5199 64.3605C70.8161 60.036 70.4264 55.5308 69.7596 51.2614C69.5597 49.9817 69.256 48.6905 69.1357 47.4019C69.0776 46.7801 69.0994 45.9123 68.5421 45.5306C68.468 47.2314 67.7897 48.959 67.2556 50.5597C65.796 54.9342 63.7811 59.1715 60.3552 62.3617C58.7741 63.8341 56.9409 65.1203 55.0922 66.2318C54.3581 66.6732 53.0569 67.0811 52.8037 67.9862C51.8897 71.2527 53.3015 74.9431 56.4957 76.237C57.9981 76.8456 59.3793 76.7341 60.94 76.7641C61.5308 76.7755 62.0974 76.9052 62.6943 76.8643C64.5029 76.7405 65.9029 75.9743 67.1281 74.6526C67.827 73.8986 68.3171 73.0166 68.7264 72.0796C68.8477 71.8018 69.0136 71.168 69.3684 71.1008C69.6393 71.0495 69.6966 71.4331 69.74 71.6123C69.9152 72.3356 70.2295 72.7662 70.8812 73.1465C73.3731 74.6011 76.8572 74.2486 78.8127 72.0778C80.8714 69.7924 81.2988 66.3536 81.5343 63.4248C81.7927 60.2085 81.9138 56.6695 81.3354 53.4836C80.6779 49.8618 79.1253 46.4448 77.2436 43.3084C76.1281 41.4493 74.8846 39.6896 73.4695 38.0454C72.9119 37.3976 72.318 36.5303 71.466 36.2911Z" fill="#151515"/>
<path d="M71.271 36.486C71.2646 36.4925 71.2581 36.616 71.3101 36.5639C71.3165 36.5575 71.3231 36.434 71.271 36.486Z" fill="#DEDEDE"/>
<path d="M52.7531 38.0454C53.45 38.3378 54.4564 38.1624 55.2091 38.1624C54.5122 37.87 53.5058 38.0454 52.7531 38.0454Z" fill="#ABABAB"/>
<path d="M72.0897 38.1234C72.0833 38.1299 72.0767 38.2534 72.1288 38.2013C72.1352 38.1949 72.1418 38.0714 72.0897 38.1234Z" fill="#676767"/>
<path d="M52.2852 38.1624C52.4312 38.2425 52.4663 38.25 52.6361 38.2793C52.4902 38.1992 52.4551 38.1917 52.2852 38.1624Z" fill="#C3C3C3"/>
<path d="M52.7141 38.2013C52.6621 38.2534 52.7856 38.2468 52.792 38.2404C52.8441 38.1883 52.7206 38.1949 52.7141 38.2013Z" fill="#717171"/>
<path d="M52.948 38.2013C52.896 38.2534 53.0195 38.2468 53.0259 38.2404C53.078 38.1883 52.9545 38.1949 52.948 38.2013Z" fill="#3A3A3A"/>
<path d="M61.0569 50.2088C61.6561 48.7912 61.6415 47.0122 61.3434 45.5306C60.6028 41.8499 58.3103 38.1624 54.1565 38.1624C53.5651 38.1624 52.9788 38.1931 52.4022 38.3396C49.7073 39.024 48.7397 42.6229 51.2326 44.1717C52.949 45.238 54.9696 45.536 56.7296 46.5027C57.8063 47.0941 58.6887 47.9235 59.5319 48.8053C60.0209 49.3168 60.403 49.9037 61.0569 50.2088Z" fill="#151515"/>
<path d="M55.3261 38.1624C55.4721 38.2425 55.5071 38.25 55.677 38.2793C55.531 38.1992 55.4959 38.1917 55.3261 38.1624Z" fill="#AAAAAA"/>
<path d="M55.755 38.2013C55.7029 38.2534 55.8264 38.2468 55.8329 38.2404C55.8849 38.1883 55.7614 38.1949 55.755 38.2013Z" fill="#DCDCDC"/>
<path d="M52.1293 38.3183C52.0773 38.3703 52.2008 38.3638 52.2072 38.3573C52.2593 38.3053 52.1358 38.3118 52.1293 38.3183Z" fill="#A7A7A7"/>
<path d="M55.755 38.3183C55.7029 38.3703 55.8264 38.3638 55.8329 38.3573C55.8849 38.3053 55.7614 38.3118 55.755 38.3183Z" fill="#6D6D6D"/>
<path d="M55.9889 38.3183C55.9368 38.3703 56.0603 38.3638 56.0668 38.3573C56.1188 38.3053 55.9953 38.3118 55.9889 38.3183Z" fill="#B9B9B9"/>
<path d="M51.7785 38.4352C51.7264 38.4873 51.8499 38.4807 51.8564 38.4743C51.9084 38.4223 51.7849 38.4288 51.7785 38.4352Z" fill="#B4B4B4"/>
<path d="M56.3398 38.4352C56.2877 38.4873 56.4112 38.4807 56.4176 38.4743C56.4697 38.4223 56.3462 38.4288 56.3398 38.4352Z" fill="#C1C1C1"/>
<path d="M56.6906 38.5522C56.6386 38.6042 56.7621 38.5977 56.7685 38.5913C56.8206 38.5392 56.6971 38.5458 56.6906 38.5522Z" fill="#CBCBCB"/>
<path d="M72.3236 38.7082C72.3172 38.7146 72.3106 38.8381 72.3627 38.7861C72.3691 38.7797 72.3757 38.6562 72.3236 38.7082Z" fill="#707070"/>
<path d="M72.4406 38.9421C72.4342 38.9485 72.4276 39.0721 72.4797 39.02C72.4861 39.0136 72.4926 38.8901 72.4406 38.9421Z" fill="#606060"/>
<path d="M23.5921 39.02C23.5401 39.0721 23.6636 39.0655 23.67 39.0591C23.7221 39.007 23.5986 39.0136 23.5921 39.02Z" fill="#B3B3B3"/>
<path d="M23.5141 39.098C20.7102 40.7361 16.2569 43.0467 17.3066 47.051C17.4669 47.6623 17.7474 48.264 18.0702 48.8054C18.5773 49.6559 19.2942 50.3431 20.0054 51.023C20.8723 51.8515 21.8715 52.5696 22.9293 53.1327C22.9268 52.2094 22.6622 51.3494 22.5893 50.4427C22.4242 48.3882 22.5198 46.1733 22.7153 44.1271C22.8288 42.9399 23.1132 41.7857 23.3298 40.6184C23.4195 40.1347 23.6587 39.574 23.5141 39.098Z" fill="#151515"/>
<path d="M23.6311 39.098V39.4489C23.7125 39.2671 23.7125 39.2798 23.6311 39.098Z" fill="#5E5E5E"/>
<path d="M72.5575 39.293C72.5511 39.2994 72.5446 39.4229 72.5966 39.3709C72.603 39.3644 72.6096 39.2409 72.5575 39.293Z" fill="#737373"/>
<path d="M23.5141 39.4489V39.9167C23.5972 39.711 23.5972 39.6546 23.5141 39.4489Z" fill="#404040"/>
<path d="M72.6356 39.4489V39.7998C72.717 39.618 72.717 39.6306 72.6356 39.4489Z" fill="#565656"/>
<path d="M72.7915 39.8778C72.785 39.8842 72.7785 40.0077 72.8305 39.9557C72.837 39.9492 72.8435 39.8257 72.7915 39.8778Z" fill="#5E5E5E"/>
<path d="M23.3972 39.9167V40.2676C23.4786 40.0858 23.4786 40.0985 23.3972 39.9167Z" fill="#343434"/>
<path d="M49.8292 40.1506V40.5015C49.9106 40.3197 49.9106 40.3324 49.8292 40.1506Z" fill="#989898"/>
<path d="M72.9084 40.2286C72.902 40.2351 72.8954 40.3586 72.9475 40.3065C72.9539 40.3001 72.9605 40.1766 72.9084 40.2286Z" fill="#656565"/>
<path d="M23.4361 40.3456C23.4297 40.352 23.4231 40.4755 23.4752 40.4235C23.4816 40.417 23.4882 40.2935 23.4361 40.3456Z" fill="#757575"/>
<path d="M23.2802 40.5015V40.8524C23.3616 40.6706 23.3616 40.6832 23.2802 40.5015Z" fill="#404040"/>
<path d="M49.8681 40.5795C49.8617 40.5859 49.8551 40.7094 49.9072 40.6574C49.9136 40.651 49.9202 40.5275 49.8681 40.5795Z" fill="#3C3C3C"/>
<path d="M73.0254 40.5795C73.0189 40.5859 73.0124 40.7094 73.0644 40.6574C73.0709 40.651 73.0774 40.5275 73.0254 40.5795Z" fill="#6D6D6D"/>
<path d="M49.7122 40.6184V42.7236C49.9405 42.1797 49.9405 41.1624 49.7122 40.6184Z" fill="#8F8F8F"/>
<path d="M73.1034 40.7354V41.0863C73.1848 40.9045 73.1848 40.9171 73.1034 40.7354Z" fill="#4D4D4D"/>
<path d="M23.3191 40.9304C23.3127 40.9368 23.3062 41.0603 23.3582 41.0083C23.3646 41.0018 23.3712 40.8783 23.3191 40.9304Z" fill="#969696"/>
<path d="M73.2203 41.0863V41.4371C73.3017 41.2554 73.3017 41.268 73.2203 41.0863Z" fill="#494949"/>
<path d="M23.2022 41.2812C23.1958 41.2877 23.1892 41.4112 23.2413 41.3591C23.2477 41.3527 23.2542 41.2292 23.2022 41.2812Z" fill="#606060"/>
<path d="M23.0463 41.4371V42.0219C23.1434 41.7845 23.1434 41.6746 23.0463 41.4371Z" fill="#494949"/>
<path d="M73.3762 41.6321C73.3698 41.6385 73.3633 41.762 73.4153 41.71C73.4217 41.7036 73.4283 41.5801 73.3762 41.6321Z" fill="#5E5E5E"/>
<path d="M73.4542 41.905V42.2558C73.5356 42.0741 73.5356 42.0867 73.4542 41.905Z" fill="#595959"/>
<path d="M23.0852 42.0999C23.0788 42.1064 23.0722 42.2299 23.1243 42.1778C23.1307 42.1714 23.1373 42.0479 23.0852 42.0999Z" fill="#959595"/>
<path d="M22.9293 42.2558V42.6067C23.0107 42.4249 23.0107 42.4376 22.9293 42.2558Z" fill="#404040"/>
<path d="M73.5712 42.2558V42.6067C73.6526 42.4249 73.6526 42.4376 73.5712 42.2558Z" fill="#4B4B4B"/>
<path d="M22.9293 42.6067V42.9576C23.0107 42.7758 23.0107 42.7884 22.9293 42.6067Z" fill="#707070"/>
<path d="M73.6882 42.7236V43.0745C73.7696 42.8928 73.7696 42.9054 73.6882 42.7236Z" fill="#4F4F4F"/>
<path d="M22.8124 42.9576V43.4254C22.8954 43.2197 22.8954 43.1634 22.8124 42.9576Z" fill="#3D3D3D"/>
<path d="M60.7061 43.0745V43.4254C60.7875 43.2436 60.7875 43.2563 60.7061 43.0745Z" fill="#AEAEAE"/>
<path d="M73.8051 43.0745V43.4254C73.8865 43.2436 73.8865 43.2563 73.8051 43.0745Z" fill="#404040"/>
<path d="M22.8124 43.4254V43.7763C22.8938 43.5945 22.8938 43.6071 22.8124 43.4254Z" fill="#747474"/>
<path d="M60.823 43.4254V43.7763C60.9044 43.5945 60.9044 43.6071 60.823 43.4254Z" fill="#A9A9A9"/>
<path d="M73.961 43.6204C73.9546 43.6268 73.948 43.7503 74.0001 43.6982C74.0065 43.6918 74.0131 43.5683 73.961 43.6204Z" fill="#404040"/>
<path d="M22.6954 43.7763V44.8289C22.8423 44.4787 22.8423 44.1264 22.6954 43.7763Z" fill="#404040"/>
<path d="M22.8513 43.8543C22.8449 43.8607 22.8383 43.9842 22.8904 43.9322C22.8968 43.9257 22.9034 43.8022 22.8513 43.8543Z" fill="#BFBFBF"/>
<path d="M60.94 43.7763V44.1271C61.0214 43.9454 61.0214 43.958 60.94 43.7763Z" fill="#ACACAC"/>
<path d="M73.9221 43.7763V44.1271C74.0035 43.9454 74.0035 43.958 73.9221 43.7763Z" fill="#5F5F5F"/>
<path d="M74.078 44.0882C74.0715 44.0946 74.065 44.2181 74.117 44.1661C74.1235 44.1596 74.13 44.0361 74.078 44.0882Z" fill="#323232"/>
<path d="M61.0569 44.1271V44.478C61.1383 44.2962 61.1383 44.3089 61.0569 44.1271Z" fill="#B1B1B1"/>
<path d="M17.3544 44.3221C17.3479 44.3285 17.3414 44.452 17.3934 44.4C17.3999 44.3935 17.4064 44.27 17.3544 44.3221Z" fill="#E7E7E7"/>
<path d="M74.039 44.2441V44.5949C74.1204 44.4132 74.1204 44.4258 74.039 44.2441Z" fill="#535353"/>
<path d="M61.1739 44.478V44.8289C61.2553 44.6471 61.2553 44.6597 61.1739 44.478Z" fill="#B7B7B7"/>
<path d="M17.2375 44.673C17.231 44.6794 17.2245 44.8029 17.2765 44.7508C17.283 44.7444 17.2895 44.6209 17.2375 44.673Z" fill="#DBDBDB"/>
<path d="M74.1949 44.673C74.1885 44.6794 74.1819 44.8029 74.234 44.7508C74.2404 44.7444 74.247 44.6209 74.1949 44.673Z" fill="#373737"/>
<path d="M22.6954 44.8288V45.1797C22.7768 44.998 22.7768 45.0106 22.6954 44.8288Z" fill="#6E6E6E"/>
<path d="M74.156 44.8288V45.1797C74.2374 44.998 74.2374 45.0106 74.156 44.8288Z" fill="#565656"/>
<path d="M17.0815 44.9458V45.2967C17.1629 45.1149 17.1629 45.1276 17.0815 44.9458Z" fill="#E7E7E7"/>
<path d="M61.2908 44.9458V45.2967C61.3722 45.1149 61.3722 45.1276 61.2908 44.9458Z" fill="#B3B3B3"/>
<path d="M53.065 45.1017C53.0129 45.1538 53.1365 45.1472 53.1429 45.1408C53.1949 45.0887 53.0714 45.0953 53.065 45.1017Z" fill="#727272"/>
<path d="M22.6954 45.1797V45.5306C22.7768 45.3488 22.7768 45.3615 22.6954 45.1797Z" fill="#8A8A8A"/>
<path d="M53.4159 45.2187C53.3638 45.2707 53.4873 45.2642 53.4938 45.2577C53.5458 45.2057 53.4223 45.2122 53.4159 45.2187Z" fill="#6A6A6A"/>
<path d="M74.1949 45.2577C74.1885 45.2642 74.1819 45.3877 74.234 45.3356C74.2404 45.3292 74.247 45.2057 74.1949 45.2577Z" fill="#A6A6A6"/>
<path d="M74.3119 45.2577C74.3055 45.2642 74.2989 45.3877 74.3509 45.3356C74.3574 45.3292 74.3639 45.2057 74.3119 45.2577Z" fill="#313131"/>
<path d="M53.7667 45.3356C53.7147 45.3877 53.8382 45.3811 53.8446 45.3747C53.8967 45.3226 53.7731 45.3292 53.7667 45.3356Z" fill="#5E5E5E"/>
<path d="M68.5421 45.2967V45.5306H68.776C68.7123 45.3394 68.7333 45.3604 68.5421 45.2967Z" fill="#414141"/>
<path d="M16.9646 45.4136V46.4662C17.1115 46.1161 17.1115 45.7638 16.9646 45.4136Z" fill="#ECECEC"/>
<path d="M17.0815 45.4136V46.2323C17.2055 45.936 17.2055 45.71 17.0815 45.4136Z" fill="#5E5E5E"/>
<path d="M53.9226 45.4136C54.0686 45.4938 54.1037 45.5012 54.2735 45.5306C54.1275 45.4505 54.0924 45.443 53.9226 45.4136Z" fill="#808080"/>
<path d="M61.3298 45.4916C61.3234 45.4981 61.3168 45.6216 61.3689 45.5695C61.3753 45.5631 61.3818 45.4396 61.3298 45.4916Z" fill="#2E2E2E"/>
<path d="M61.4078 45.4136V45.8815C61.4908 45.6756 61.4908 45.6195 61.4078 45.4136Z" fill="#B4B4B4"/>
<path d="M68.4641 45.4916C68.4577 45.4981 68.4511 45.6216 68.5032 45.5695C68.5096 45.5631 68.5162 45.4396 68.4641 45.4916Z" fill="#9A9A9A"/>
<path d="M74.2729 45.4136V45.8815C74.356 45.6756 74.356 45.6195 74.2729 45.4136Z" fill="#4C4C4C"/>
<path d="M22.6954 45.5306V47.9867C22.9472 47.3866 22.9472 46.1307 22.6954 45.5306Z" fill="#B6B6B6"/>
<path d="M54.2735 45.5306C54.4195 45.6107 54.4545 45.6182 54.6244 45.6475C54.4784 45.5674 54.4433 45.5599 54.2735 45.5306Z" fill="#818181"/>
<path d="M22.5785 45.6475V47.9867C22.8225 47.405 22.8225 46.2292 22.5785 45.6475Z" fill="#2E2E2E"/>
<path d="M54.6244 45.6475C54.7703 45.7277 54.8054 45.7351 54.9752 45.7645C54.8293 45.6844 54.7942 45.6769 54.6244 45.6475Z" fill="#828282"/>
<path d="M68.4251 45.6475V45.9984C68.5065 45.8167 68.5065 45.8293 68.4251 45.6475Z" fill="#696969"/>
<path d="M68.893 45.6475V45.9984C68.9744 45.8167 68.9744 45.8293 68.893 45.6475Z" fill="#BFBFBF"/>
<path d="M54.9752 45.7645C55.1212 45.8446 55.1563 45.8521 55.3261 45.8815C55.1801 45.8013 55.145 45.7939 54.9752 45.7645Z" fill="#828282"/>
<path d="M55.4041 45.9204C55.3521 45.9725 55.4756 45.9659 55.482 45.9595C55.534 45.9074 55.4105 45.914 55.4041 45.9204Z" fill="#7D7D7D"/>
<path d="M61.4467 45.9595C61.4403 45.9659 61.4338 46.0894 61.4858 46.0374C61.4922 46.0309 61.4988 45.9074 61.4467 45.9595Z" fill="#535353"/>
<path d="M61.5637 45.9595C61.5573 45.9659 61.5507 46.0894 61.6028 46.0374C61.6092 46.0309 61.6157 45.9074 61.5637 45.9595Z" fill="#CCCCCC"/>
<path d="M74.3119 45.9595C74.3055 45.9659 74.2989 46.0894 74.3509 46.0374C74.3574 46.0309 74.3639 45.9074 74.3119 45.9595Z" fill="#9F9F9F"/>
<path d="M74.4288 45.9595C74.4224 45.9659 74.4159 46.0894 74.4679 46.0374C74.4743 46.0309 74.4809 45.9074 74.4288 45.9595Z" fill="#2E2E2E"/>
<path d="M68.4641 46.0764C68.4577 46.0829 68.4511 46.2064 68.5032 46.1543C68.5096 46.1479 68.5162 46.0244 68.4641 46.0764Z" fill="#3E3E3E"/>
<path d="M69.0099 45.9984V46.5832C69.107 46.3457 69.107 46.236 69.0099 45.9984Z" fill="#B9B9B9"/>
<path d="M61.5247 46.1154V46.7001C61.6218 46.4626 61.6218 46.3528 61.5247 46.1154Z" fill="#A4A4A4"/>
<path d="M68.3471 46.1934C68.3407 46.1998 68.3342 46.3233 68.3862 46.2713C68.3926 46.2648 68.3992 46.1413 68.3471 46.1934Z" fill="#959595"/>
<path d="M74.3899 46.1154V46.4662C74.4713 46.2845 74.4713 46.2971 74.3899 46.1154Z" fill="#494949"/>
<path d="M17.1205 46.3103C17.114 46.3168 17.1075 46.4403 17.1595 46.3882C17.166 46.3818 17.1725 46.2583 17.1205 46.3103Z" fill="#9A9A9A"/>
<path d="M68.3082 46.3493V46.7001C68.3896 46.5184 68.3896 46.531 68.3082 46.3493Z" fill="#636363"/>
<path d="M17.0815 46.4662V46.9341C17.1646 46.7282 17.1646 46.672 17.0815 46.4662Z" fill="#E5E5E5"/>
<path d="M74.3899 46.4662V46.8171C74.4713 46.6354 74.4713 46.648 74.3899 46.4662Z" fill="#6E6E6E"/>
<path d="M69.0489 46.6612C69.0425 46.6676 69.0359 46.7911 69.0879 46.7391C69.0944 46.7327 69.1009 46.6092 69.0489 46.6612Z" fill="#515151"/>
<path d="M69.1269 46.5832V47.4019C69.2507 47.1055 69.2507 46.8796 69.1269 46.5832Z" fill="#C2C2C2"/>
<path d="M61.5247 46.7002V47.8697C61.6822 47.4946 61.6822 47.0752 61.5247 46.7002Z" fill="#4F4F4F"/>
<path d="M61.6417 46.7002V47.9867C61.8091 47.5879 61.8091 47.099 61.6417 46.7002Z" fill="#CACACA"/>
<path d="M68.1912 46.8171V47.168C68.2726 46.9862 68.2726 46.9988 68.1912 46.8171Z" fill="#6E6E6E"/>
<path d="M74.3899 46.8171V47.168C74.4713 46.9862 74.4713 46.9988 74.3899 46.8171Z" fill="#B0B0B0"/>
<path d="M74.5069 46.9341V47.6358C74.6181 47.3686 74.6181 47.2013 74.5069 46.9341Z" fill="#4E4E4E"/>
<path d="M68.2302 47.246C68.2238 47.2524 68.2172 47.3759 68.2693 47.3239C68.2757 47.3174 68.2822 47.1939 68.2302 47.246Z" fill="#343434"/>
<path d="M68.1132 47.3629C68.1068 47.3694 68.1002 47.4929 68.1523 47.4408C68.1587 47.4344 68.1653 47.3109 68.1132 47.3629Z" fill="#7D7D7D"/>
<path d="M69.1658 47.4799C69.1594 47.4863 69.1528 47.6098 69.2049 47.5578C69.2113 47.5514 69.2179 47.4279 69.1658 47.4799Z" fill="#6A6A6A"/>
<path d="M69.2439 47.4019V48.2206C69.3677 47.9242 69.3677 47.6983 69.2439 47.4019Z" fill="#C8C8C8"/>
<path d="M68.1132 47.5969C68.1068 47.6033 68.1002 47.7268 68.1523 47.6747C68.1587 47.6683 68.1653 47.5448 68.1132 47.5969Z" fill="#515151"/>
<path d="M69.1658 47.7138C69.1594 47.7202 69.1528 47.8437 69.2049 47.7917C69.2113 47.7853 69.2179 47.6618 69.1658 47.7138Z" fill="#373737"/>
<path d="M74.5458 47.7138C74.5394 47.7202 74.5328 47.8437 74.5849 47.7917C74.5913 47.7853 74.5979 47.6618 74.5458 47.7138Z" fill="#787878"/>
<path d="M61.5637 47.9477C61.5573 47.9541 61.5507 48.0777 61.6028 48.0256C61.6092 48.0192 61.6157 47.8957 61.5637 47.9477Z" fill="#919191"/>
<path d="M67.9573 47.8697V48.2206C68.0387 48.0388 68.0387 48.0515 67.9573 47.8697Z" fill="#636363"/>
<path d="M74.5069 47.8697V48.8054C74.6426 48.4814 74.6426 48.1937 74.5069 47.8697Z" fill="#ADADAD"/>
<path d="M22.5785 47.9867V50.9106C22.8607 50.2381 22.8607 48.6592 22.5785 47.9867Z" fill="#202020"/>
<path d="M22.6954 47.9867V49.2732C22.8628 48.8744 22.8628 48.3855 22.6954 47.9867Z" fill="#888888"/>
<path d="M74.6238 47.9867V49.5071C74.8099 49.0637 74.8099 48.43 74.6238 47.9867Z" fill="#3C3C3C"/>
<path d="M61.5247 48.1036V48.5714C61.6078 48.3656 61.6078 48.3095 61.5247 48.1036Z" fill="#ABABAB"/>
<path d="M79.8088 48.1816C79.8024 48.1881 79.7958 48.3116 79.8479 48.2595C79.8543 48.2531 79.8608 48.1296 79.8088 48.1816Z" fill="#CFCFCF"/>
<path d="M67.8404 48.2206V48.5714C67.9218 48.3897 67.9218 48.4023 67.8404 48.2206Z" fill="#747474"/>
<path d="M69.3608 48.2206V48.9223C69.472 48.6551 69.472 48.4878 69.3608 48.2206Z" fill="#BDBDBD"/>
<path d="M61.4078 48.3375V48.6884C61.4892 48.5066 61.4892 48.5193 61.4078 48.3375Z" fill="#3B3B3B"/>
<path d="M69.2828 48.4155C69.2764 48.422 69.2698 48.5455 69.3218 48.4934C69.3283 48.487 69.3348 48.3635 69.2828 48.4155Z" fill="#313131"/>
<path d="M61.4078 48.6884V49.0393C61.4892 48.8575 61.4892 48.8701 61.4078 48.6884Z" fill="#A0A0A0"/>
<path d="M67.7234 48.6884V49.0393C67.8048 48.8575 67.8048 48.8701 67.7234 48.6884Z" fill="#6B6B6B"/>
<path d="M80.0427 48.7664C80.0363 48.7728 80.0297 48.8964 80.0818 48.8443C80.0882 48.8379 80.0948 48.7144 80.0427 48.7664Z" fill="#D3D3D3"/>
<path d="M74.5069 48.8054V49.858C74.6537 49.5078 74.6537 49.1555 74.5069 48.8054Z" fill="#DADADA"/>
<path d="M69.3997 49.0003C69.3933 49.0067 69.3868 49.1303 69.4388 49.0782C69.4452 49.0718 69.4518 48.9483 69.3997 49.0003Z" fill="#464646"/>
<path d="M69.4778 48.9223V49.5071C69.5748 49.2697 69.5748 49.1597 69.4778 48.9223Z" fill="#BEBEBE"/>
<path d="M61.3298 49.1173C61.3234 49.1237 61.3168 49.2472 61.3689 49.1952C61.3753 49.1887 61.3818 49.0652 61.3298 49.1173Z" fill="#474747"/>
<path d="M61.4467 49.1173C61.4403 49.1237 61.4338 49.2472 61.4858 49.1952C61.4922 49.1887 61.4988 49.0652 61.4467 49.1173Z" fill="#C4C4C4"/>
<path d="M67.6454 49.2342C67.639 49.2407 67.6324 49.3642 67.6845 49.3121C67.6909 49.3057 67.6975 49.1822 67.6454 49.2342Z" fill="#555555"/>
<path d="M22.6954 49.2732V50.7936C22.8815 50.3502 22.8815 49.7166 22.6954 49.2732Z" fill="#737373"/>
<path d="M80.2766 49.3512C80.2702 49.3576 80.2637 49.4811 80.3157 49.4291C80.3221 49.4227 80.3287 49.2991 80.2766 49.3512Z" fill="#DCDCDC"/>
<path d="M61.2908 49.3901V49.741C61.3722 49.5593 61.3722 49.5719 61.2908 49.3901Z" fill="#AFAFAF"/>
<path d="M67.5285 49.5851C67.522 49.5915 67.5155 49.715 67.5675 49.663C67.5739 49.6566 67.5805 49.533 67.5285 49.5851Z" fill="#5B5B5B"/>
<path d="M74.6238 49.5071V53.8345C74.9751 52.9972 74.7408 51.6993 74.7408 50.7936C74.7408 50.3606 74.7923 49.9088 74.6238 49.5071Z" fill="#4F4F4F"/>
<path d="M69.5167 49.702C69.5103 49.7085 69.5037 49.832 69.5558 49.7799C69.5622 49.7735 69.5687 49.65 69.5167 49.702Z" fill="#3F3F3F"/>
<path d="M69.5947 49.624V50.2088C69.6918 49.9713 69.6918 49.8615 69.5947 49.624Z" fill="#BCBCBC"/>
<path d="M80.3936 49.702C80.3872 49.7085 80.3806 49.832 80.4327 49.7799C80.4391 49.7735 80.4456 49.65 80.3936 49.702Z" fill="#DADADA"/>
<path d="M50.4139 49.741C50.6208 49.8321 50.769 49.8477 50.9987 49.858C50.7918 49.7668 50.6436 49.7513 50.4139 49.741Z" fill="#D7D7D7"/>
<path d="M49.8292 49.858C50.0361 49.9491 50.1842 49.9646 50.414 49.9749C50.2071 49.8838 50.0589 49.8682 49.8292 49.858Z" fill="#878787"/>
<path d="M50.4139 49.858C50.6208 49.9491 50.769 49.9646 50.9987 49.9749C50.7918 49.8838 50.6436 49.8682 50.4139 49.858Z" fill="#626262"/>
<path d="M50.9987 49.858C51.1447 49.9381 51.1798 49.9456 51.3496 49.9749C51.2036 49.8948 51.1686 49.8873 50.9987 49.858Z" fill="#8E8E8E"/>
<path d="M61.1739 49.858V50.2088C61.2553 50.0271 61.2553 50.0397 61.1739 49.858Z" fill="#B1B1B1"/>
<path d="M67.4115 49.936C67.4051 49.9424 67.3985 50.0659 67.4506 50.0139C67.457 50.0074 67.4635 49.8839 67.4115 49.936Z" fill="#5E5E5E"/>
<path d="M49.8292 50.0495C49.4001 50.1729 49.0116 50.4384 48.6596 50.7046C47.5553 51.5397 45.7855 53.1963 46.2637 54.7696C46.7448 56.3529 49.4075 56.2699 50.6479 55.8655C52.2502 55.3429 52.4028 53.9839 52.4022 52.5479C52.4017 51.1948 52.1185 49.9623 50.5309 49.9755C50.2944 49.9774 50.0582 49.9837 49.8292 50.0495Z" fill="#151515"/>
<path d="M80.5106 50.0529C80.5041 50.0594 80.4976 50.1829 80.5496 50.1308C80.556 50.1244 80.5626 50.0009 80.5106 50.0529Z" fill="#DADADA"/>
<path d="M67.2945 50.2868C67.2881 50.2933 67.2816 50.4168 67.3336 50.3647C67.34 50.3583 67.3466 50.2348 67.2945 50.2868Z" fill="#5B5B5B"/>
<path d="M69.6337 50.2868C69.6272 50.2933 69.6207 50.4168 69.6727 50.3647C69.6792 50.3583 69.6857 50.2348 69.6337 50.2868Z" fill="#6C6C6C"/>
<path d="M69.7117 50.2088V51.1445C69.8474 50.8205 69.8474 50.5328 69.7117 50.2088Z" fill="#BDBDBD"/>
<path d="M61.018 50.3647C60.9659 50.4168 61.0894 50.4102 61.0959 50.4038C61.1479 50.3517 61.0244 50.3583 61.018 50.3647Z" fill="#D5D5D5"/>
<path d="M80.5886 50.3258V50.6767C80.67 50.4949 80.67 50.5075 80.5886 50.3258Z" fill="#DCDCDC"/>
<path d="M69.6337 50.5207C69.6272 50.5272 69.6207 50.6507 69.6727 50.5986C69.6792 50.5922 69.6857 50.4687 69.6337 50.5207Z" fill="#383838"/>
<path d="M67.1776 50.6377C67.1712 50.6441 67.1646 50.7676 67.2167 50.7156C67.2231 50.7092 67.2296 50.5857 67.1776 50.6377Z" fill="#595959"/>
<path d="M80.7055 50.6767V51.0275C80.7869 50.8458 80.7869 50.8584 80.7055 50.6767Z" fill="#DEDEDE"/>
<path d="M22.6954 50.7936V51.2614C22.7785 51.0557 22.7785 50.9993 22.6954 50.7936Z" fill="#373737"/>
<path d="M52.2852 50.9106V51.2614C52.3666 51.0797 52.3666 51.0923 52.2852 50.9106Z" fill="#A0A0A0"/>
<path d="M67.0606 50.9886C67.0542 50.995 67.0476 51.1185 67.0997 51.0665C67.1061 51.06 67.1127 50.9365 67.0606 50.9886Z" fill="#545454"/>
<path d="M80.8225 51.0275V51.3784C80.9039 51.1966 80.9039 51.2093 80.8225 51.0275Z" fill="#E2E2E2"/>
<path d="M69.7506 51.2225C69.7442 51.2289 69.7376 51.3524 69.7897 51.3004C69.7961 51.2939 69.8027 51.1704 69.7506 51.2225Z" fill="#595959"/>
<path d="M69.8286 51.1445V51.9632C69.9525 51.6668 69.9525 51.4408 69.8286 51.1445Z" fill="#C5C5C5"/>
<path d="M22.8124 51.2614V51.6123C22.8938 51.4305 22.8938 51.4432 22.8124 51.2614Z" fill="#8E8E8E"/>
<path d="M52.3242 51.3394C52.3178 51.3459 52.3112 51.4694 52.3633 51.4173C52.3697 51.4109 52.3762 51.2874 52.3242 51.3394Z" fill="#474747"/>
<path d="M52.4411 51.3394C52.4347 51.3459 52.4282 51.4694 52.4802 51.4173C52.4866 51.4109 52.4932 51.2874 52.4411 51.3394Z" fill="#BDBDBD"/>
<path d="M66.9437 51.3394C66.9372 51.3459 66.9307 51.4694 66.9827 51.4173C66.9892 51.4109 66.9957 51.2874 66.9437 51.3394Z" fill="#4B4B4B"/>
<path d="M52.4022 51.4953V52.1971C52.5134 51.9298 52.5134 51.7626 52.4022 51.4953Z" fill="#8E8E8E"/>
<path d="M66.8267 51.5733C66.8203 51.5798 66.8137 51.7033 66.8658 51.6512C66.8722 51.6448 66.8788 51.5213 66.8267 51.5733Z" fill="#616161"/>
<path d="M80.9394 51.4953V51.8462C81.0208 51.6645 81.0208 51.6771 80.9394 51.4953Z" fill="#DEDEDE"/>
<path d="M22.8124 51.6123V52.1971C22.9095 51.9596 22.9095 51.8497 22.8124 51.6123Z" fill="#383838"/>
<path d="M66.7098 51.9242C66.7033 51.9306 66.6968 52.0541 66.7488 52.0021C66.7553 51.9957 66.7618 51.8722 66.7098 51.9242Z" fill="#555555"/>
<path d="M22.9683 52.0412C22.9618 52.0476 22.9553 52.1711 23.0073 52.1191C23.0138 52.1126 23.0203 51.9891 22.9683 52.0412Z" fill="#BDBDBD"/>
<path d="M69.8676 52.0412C69.8611 52.0476 69.8546 52.1711 69.9066 52.1191C69.9131 52.1126 69.9196 51.9891 69.8676 52.0412Z" fill="#696969"/>
<path d="M69.9456 51.9632V52.8988C70.0814 52.5748 70.0814 52.2871 69.9456 51.9632Z" fill="#BEBEBE"/>
<path d="M81.0564 51.9632V52.314C81.1378 52.1323 81.1378 52.1449 81.0564 51.9632Z" fill="#DDDDDD"/>
<path d="M22.9683 52.2751C22.9618 52.2815 22.9553 52.405 23.0073 52.353C23.0138 52.3465 23.0203 52.223 22.9683 52.2751Z" fill="#747474"/>
<path d="M36.8471 52.1971C36.993 52.2772 37.0281 52.2847 37.1979 52.314C37.052 52.2339 37.0169 52.2264 36.8471 52.1971Z" fill="#9F9F9F"/>
<path d="M37.1979 52.1971C37.6303 52.3786 38.1356 52.314 38.6014 52.314C38.169 52.1325 37.6638 52.1971 37.1979 52.1971Z" fill="#848484"/>
<path d="M38.6014 52.1971C38.7474 52.2772 38.7825 52.2847 38.9523 52.314C38.8063 52.2339 38.7712 52.2264 38.6014 52.1971Z" fill="#BCBCBC"/>
<path d="M52.4022 52.1971V53.7175C52.5883 53.2741 52.5883 52.6404 52.4022 52.1971Z" fill="#727272"/>
<path d="M52.5192 52.1971V53.7175C52.7052 53.2741 52.7052 52.6404 52.5192 52.1971Z" fill="#E0E0E0"/>
<path d="M66.5928 52.2751C66.5864 52.2815 66.5798 52.405 66.6319 52.353C66.6383 52.3465 66.6448 52.223 66.5928 52.2751Z" fill="#494949"/>
<path d="M69.8676 52.2751C69.8611 52.2815 69.8546 52.405 69.9066 52.353C69.9131 52.3465 69.9196 52.223 69.8676 52.2751Z" fill="#383838"/>
<path d="M36.4962 52.314C36.6422 52.3941 36.6772 52.4016 36.8471 52.431C36.7011 52.3509 36.666 52.3434 36.4962 52.314Z" fill="#898989"/>
<path d="M36.8471 52.314C36.993 52.3941 37.0281 52.4016 37.1979 52.431C37.052 52.3509 37.0169 52.3434 36.8471 52.314Z" fill="#2E2E2E"/>
<path d="M43.1627 65.53C42.4087 63.7286 41.1844 62.1538 40.9601 60.1501C40.8201 58.8996 40.8236 57.6652 40.8236 56.4075C40.8236 55.2453 40.8483 54.0956 40.0418 53.1531C39.1897 52.157 37.2513 52.0075 36.1453 52.6822C35.1601 53.2834 34.4517 54.393 34.101 55.4718C32.639 59.9686 36.656 64.2855 40.8236 65.3572C41.597 65.556 42.3711 65.53 43.1627 65.53Z" fill="#151515"/>
<path d="M38.6014 52.314C38.7474 52.3941 38.7825 52.4016 38.9523 52.431C38.8063 52.3509 38.7712 52.3434 38.6014 52.314Z" fill="#484848"/>
<path d="M39.0303 52.353C38.9783 52.405 39.1018 52.3985 39.1082 52.392C39.1602 52.34 39.0367 52.3465 39.0303 52.353Z" fill="#B2B2B2"/>
<path d="M22.9293 52.431V53.1327C23.0406 52.8655 23.0406 52.6982 22.9293 52.431Z" fill="#494949"/>
<path d="M36.3403 52.4699C36.2883 52.522 36.4118 52.5154 36.4182 52.509C36.4702 52.457 36.3467 52.4635 36.3403 52.4699Z" fill="#6B6B6B"/>
<path d="M81.1733 52.431V52.7819C81.2547 52.6001 81.2547 52.6127 81.1733 52.431Z" fill="#DEDEDE"/>
<path d="M66.4759 52.6259C66.4694 52.6324 66.4629 52.7559 66.5149 52.7038C66.5213 52.6974 66.5279 52.5739 66.4759 52.6259Z" fill="#343434"/>
<path d="M66.3589 52.8599C66.3525 52.8663 66.3459 52.9898 66.398 52.9378C66.4044 52.9313 66.4109 52.8078 66.3589 52.8599Z" fill="#444444"/>
<path d="M69.9845 52.9768C69.9781 52.9833 69.9715 53.1068 70.0236 53.0547C70.03 53.0483 70.0366 52.9248 69.9845 52.9768Z" fill="#626262"/>
<path d="M70.0625 52.8988V53.7175C70.1864 53.4211 70.1864 53.1952 70.0625 52.8988Z" fill="#C8C8C8"/>
<path d="M81.2903 52.8988V53.4836C81.3874 53.2462 81.3874 53.1362 81.2903 52.8988Z" fill="#DADADA"/>
<path d="M22.8904 53.1717C22.8383 53.2237 22.9618 53.2172 22.9683 53.2107C23.0203 53.1587 22.8968 53.1652 22.8904 53.1717Z" fill="#9B9B9B"/>
<path d="M66.2419 53.2107C66.2355 53.2172 66.229 53.3407 66.281 53.2886C66.2874 53.2822 66.294 53.1587 66.2419 53.2107Z" fill="#303030"/>
<path d="M69.9845 53.2107C69.9781 53.2172 69.9715 53.3407 70.0236 53.2886C70.03 53.2822 70.0366 53.1587 69.9845 53.2107Z" fill="#333333"/>
<path d="M66.125 53.4446C66.1185 53.4511 66.112 53.5746 66.164 53.5225C66.1705 53.5161 66.177 53.3926 66.125 53.4446Z" fill="#404040"/>
<path d="M74.5069 53.4836V53.8344C74.5883 53.6527 74.5883 53.6653 74.5069 53.4836Z" fill="#D9D9D9"/>
<path d="M81.4073 53.4836V54.0684C81.5043 53.8309 81.5043 53.721 81.4073 53.4836Z" fill="#DBDBDB"/>
<path d="M46.0866 53.6005V53.9514C46.168 53.7697 46.168 53.7823 46.0866 53.6005Z" fill="#9A9A9A"/>
<path d="M66.008 53.6786C66.0016 53.685 65.995 53.8085 66.0471 53.7564C66.0535 53.75 66.0601 53.6265 66.008 53.6786Z" fill="#505050"/>
<path d="M52.4022 53.7175V54.1853C52.4852 53.9795 52.4852 53.9232 52.4022 53.7175Z" fill="#8E8E8E"/>
<path d="M70.1015 53.7955C70.095 53.8019 70.0885 53.9254 70.1405 53.8734C70.147 53.867 70.1535 53.7435 70.1015 53.7955Z" fill="#6B6B6B"/>
<path d="M40.5117 53.9125C40.5052 53.9189 40.4987 54.0424 40.5507 53.9904C40.5571 53.9839 40.5637 53.8604 40.5117 53.9125Z" fill="#4E4E4E"/>
<path d="M70.1795 53.8345V54.5362C70.2907 54.2689 70.2907 54.1017 70.1795 53.8345Z" fill="#C2C2C2"/>
<path d="M74.5069 53.8345V54.1853C74.5883 54.0036 74.5883 54.0162 74.5069 53.8345Z" fill="#B4B4B4"/>
<path d="M74.6238 53.8345V54.7701C74.7596 54.4461 74.7596 54.1584 74.6238 53.8345Z" fill="#2C2C2C"/>
<path d="M45.9696 53.9514V54.6531C46.0809 54.3859 46.0809 54.2187 45.9696 53.9514Z" fill="#A6A6A6"/>
<path d="M46.0866 53.9514V54.6531C46.1978 54.3859 46.1978 54.2187 46.0866 53.9514Z" fill="#272727"/>
<path d="M65.8911 54.0294C65.8846 54.0359 65.8781 54.1594 65.9301 54.1073C65.9366 54.1009 65.9431 53.9774 65.8911 54.0294Z" fill="#3B3B3B"/>
<path d="M70.1015 54.0294C70.095 54.0359 70.0885 54.1594 70.1405 54.1073C70.147 54.1009 70.1535 53.9774 70.1015 54.0294Z" fill="#343434"/>
<path d="M40.6286 54.1464C40.6222 54.1528 40.6156 54.2763 40.6677 54.2243C40.6741 54.2178 40.6807 54.0943 40.6286 54.1464Z" fill="#616161"/>
<path d="M81.5242 54.0684V54.8871C81.6482 54.5907 81.6482 54.3647 81.5242 54.0684Z" fill="#DEDEDE"/>
<path d="M65.7741 54.2633C65.7677 54.2698 65.7611 54.3933 65.8132 54.3412C65.8196 54.3348 65.8262 54.2113 65.7741 54.2633Z" fill="#4A4A4A"/>
<path d="M74.5069 54.1853V54.5362C74.5883 54.3544 74.5883 54.3671 74.5069 54.1853Z" fill="#959595"/>
<path d="M81.4462 54.2633C81.4398 54.2698 81.4332 54.3933 81.4853 54.3412C81.4917 54.3348 81.4982 54.2113 81.4462 54.2633Z" fill="#474747"/>
<path d="M52.3242 54.3803C52.3178 54.3867 52.3112 54.5102 52.3633 54.4582C52.3697 54.4517 52.3762 54.3282 52.3242 54.3803Z" fill="#ACACAC"/>
<path d="M40.7456 54.4972C40.7391 54.5037 40.7326 54.6272 40.7846 54.5751C40.7911 54.5687 40.7976 54.4452 40.7456 54.4972Z" fill="#606060"/>
<path d="M65.6572 54.4972C65.6507 54.5037 65.6442 54.6272 65.6962 54.5751C65.7027 54.5687 65.7092 54.4452 65.6572 54.4972Z" fill="#5D5D5D"/>
<path d="M70.2184 54.6142C70.212 54.6206 70.2054 54.7441 70.2575 54.6921C70.2639 54.6857 70.2705 54.5622 70.2184 54.6142Z" fill="#6A6A6A"/>
<path d="M70.2964 54.5362V55.4718C70.4322 55.1479 70.4322 54.8602 70.2964 54.5362Z" fill="#BFBFBF"/>
<path d="M74.5069 54.5362V55.004C74.5899 54.7983 74.5899 54.7419 74.5069 54.5362Z" fill="#646464"/>
<path d="M40.8625 54.7312C40.8561 54.7376 40.8495 54.8611 40.9016 54.8091C40.908 54.8026 40.9146 54.6791 40.8625 54.7312Z" fill="#8D8D8D"/>
<path d="M65.5402 54.8481C65.5338 54.8545 65.5272 54.9781 65.5793 54.926C65.5857 54.9196 65.5922 54.7961 65.5402 54.8481Z" fill="#454545"/>
<path d="M70.2184 54.8481C70.212 54.8545 70.2054 54.9781 70.2575 54.926C70.2639 54.9196 70.2705 54.7961 70.2184 54.8481Z" fill="#333333"/>
<path d="M34.196 54.9651C34.1896 54.9715 34.1831 55.095 34.2351 55.043C34.2415 55.0365 34.2481 54.913 34.196 54.9651Z" fill="#A0A0A0"/>
<path d="M40.8236 54.8871V55.3549C40.9066 55.149 40.9066 55.0929 40.8236 54.8871Z" fill="#747474"/>
<path d="M81.5632 54.9651C81.5567 54.9715 81.5502 55.095 81.6022 55.043C81.6086 55.0365 81.6152 54.913 81.5632 54.9651Z" fill="#6F6F6F"/>
<path d="M81.6412 54.8871V55.9397C81.7881 55.5895 81.7881 55.2372 81.6412 54.8871Z" fill="#DBDBDB"/>
<path d="M74.5069 55.004V55.5888C74.6039 55.3514 74.6039 55.2414 74.5069 55.004Z" fill="#4D4D4D"/>
<path d="M34.0791 55.199C34.0726 55.2054 34.0661 55.3289 34.1181 55.2769C34.1246 55.2704 34.1311 55.1469 34.0791 55.199Z" fill="#BDBDBD"/>
<path d="M65.4232 55.199C65.4168 55.2054 65.4103 55.3289 65.4623 55.2769C65.4687 55.2704 65.4753 55.1469 65.4232 55.199Z" fill="#2E2E2E"/>
<path d="M81.5632 55.199C81.5567 55.2054 81.5502 55.3289 81.6022 55.2769C81.6086 55.2704 81.6152 55.1469 81.5632 55.199Z" fill="#3D3D3D"/>
<path d="M40.8236 55.3549V57.694C41.0677 57.1124 41.0677 55.9365 40.8236 55.3549Z" fill="#2A2A2A"/>
<path d="M65.3063 55.4329C65.2999 55.4393 65.2933 55.5628 65.3453 55.5108C65.3518 55.5044 65.3583 55.3809 65.3063 55.4329Z" fill="#3E3E3E"/>
<path d="M33.9232 55.4718V55.8227C34.0046 55.641 34.0046 55.6536 33.9232 55.4718Z" fill="#BDBDBD"/>
<path d="M40.9405 55.4718V55.9397C41.0236 55.7338 41.0236 55.6777 40.9405 55.4718Z" fill="#A6A6A6"/>
<path d="M70.3354 55.5498C70.329 55.5563 70.3224 55.6798 70.3744 55.6277C70.3809 55.6213 70.3874 55.4978 70.3354 55.5498Z" fill="#8D8D8D"/>
<path d="M70.4134 55.5888V56.4075C70.5374 56.1111 70.5374 55.8852 70.4134 55.5888Z" fill="#DEDEDE"/>
<path d="M74.4288 55.6668C74.4224 55.6732 74.4159 55.7967 74.4679 55.7447C74.4743 55.7383 74.4809 55.6148 74.4288 55.6668Z" fill="#BFBFBF"/>
<path d="M74.5069 55.5888V56.0566C74.5899 55.8508 74.5899 55.7946 74.5069 55.5888Z" fill="#292929"/>
<path d="M70.2964 55.7057V56.0566C70.3778 55.8749 70.3778 55.8875 70.2964 55.7057Z" fill="#747474"/>
<path d="M33.8062 55.8227V56.4075C33.9033 56.1699 33.9033 56.0601 33.8062 55.8227Z" fill="#B3B3B3"/>
<path d="M74.4288 55.9007C74.4224 55.9072 74.4159 56.0307 74.4679 55.9786C74.4743 55.9722 74.4809 55.8487 74.4288 55.9007Z" fill="#8D8D8D"/>
<path d="M40.9405 55.9397V57.694C41.144 57.2089 41.144 56.4248 40.9405 55.9397Z" fill="#8E8E8E"/>
<path d="M47.4901 55.9397C47.8537 56.1881 48.2273 56.1723 48.6596 56.1736C48.298 56.0176 47.8822 55.9892 47.4901 55.9397Z" fill="#A3A3A3"/>
<path d="M49.9461 55.9397C50.0921 56.0198 50.1272 56.0273 50.297 56.0566C50.151 55.9765 50.1159 55.969 49.9461 55.9397Z" fill="#373737"/>
<path d="M50.297 55.9397C50.443 56.0198 50.478 56.0273 50.6479 56.0566C50.5019 55.9765 50.4668 55.969 50.297 55.9397Z" fill="#A1A1A1"/>
<path d="M81.6801 56.0177C81.6737 56.0241 81.6671 56.1476 81.7192 56.0956C81.7256 56.0891 81.7322 55.9656 81.6801 56.0177Z" fill="#949494"/>
<path d="M81.7581 55.9397V62.0214C81.965 61.5284 81.8751 60.9144 81.8751 60.384V57.4601C81.8751 56.9619 81.9524 56.4027 81.7581 55.9397Z" fill="#DDDDDD"/>
<path d="M48.6596 56.0566C48.9324 56.1718 49.1809 56.1714 49.4783 56.1736C49.2056 56.0584 48.957 56.0588 48.6596 56.0566Z" fill="#717171"/>
<path d="M49.4783 56.0566C49.6544 56.1365 49.7491 56.1532 49.9461 56.1736C49.77 56.0937 49.6754 56.077 49.4783 56.0566Z" fill="#9B9B9B"/>
<path d="M49.9461 56.0566C50.0921 56.1367 50.1272 56.1442 50.297 56.1736C50.151 56.0935 50.1159 56.086 49.9461 56.0566Z" fill="#B4B4B4"/>
<path d="M70.2964 56.0566V56.8753C70.4204 56.5789 70.4203 56.353 70.2964 56.0566Z" fill="#474747"/>
<path d="M74.3899 56.0566V56.7584C74.5011 56.4911 74.5011 56.3239 74.3899 56.0566Z" fill="#545454"/>
<path d="M48.6596 56.1736C48.9324 56.2888 49.1809 56.2883 49.4783 56.2905C49.2056 56.1753 48.957 56.1758 48.6596 56.1736Z" fill="#E0E0E0"/>
<path d="M81.6801 56.2516C81.6737 56.258 81.6671 56.3815 81.7192 56.3295C81.7256 56.323 81.7322 56.1995 81.6801 56.2516Z" fill="#6D6D6D"/>
<path d="M33.6893 56.4075V58.5127C33.9176 57.9687 33.9176 56.9514 33.6893 56.4075Z" fill="#B9B9B9"/>
<path d="M33.8452 56.4855C33.8387 56.4919 33.8322 56.6154 33.8842 56.5634C33.8907 56.557 33.8972 56.4335 33.8452 56.4855Z" fill="#454545"/>
<path d="M70.4134 56.4075V57.577C70.5708 57.202 70.5708 56.7826 70.4134 56.4075Z" fill="#BCBCBC"/>
<path d="M81.6412 56.4075V56.8753C81.7242 56.6696 81.7242 56.6132 81.6412 56.4075Z" fill="#3C3C3C"/>
<path d="M74.3119 56.8364C74.3055 56.8428 74.2989 56.9663 74.3509 56.9143C74.3574 56.9078 74.3639 56.7843 74.3119 56.8364Z" fill="#A9A9A9"/>
<path d="M81.6412 56.8753V61.4366C81.8097 61.0348 81.7581 60.583 81.7581 60.1501C81.7581 59.1827 82.0161 57.7687 81.6412 56.8753Z" fill="#252525"/>
<path d="M74.3119 57.0703C74.3055 57.0767 74.2989 57.2002 74.3509 57.1482C74.3574 57.1417 74.3639 57.0182 74.3119 57.0703Z" fill="#6E6E6E"/>
<path d="M74.2729 57.2262V57.577C74.3543 57.3953 74.3543 57.4079 74.2729 57.2262Z" fill="#525252"/>
<path d="M70.4523 57.6551C70.4459 57.6615 70.4394 57.785 70.4914 57.7329C70.4978 57.7265 70.5044 57.603 70.4523 57.6551Z" fill="#6A6A6A"/>
<path d="M70.5304 57.577V58.7466C70.6878 58.3715 70.6878 57.9521 70.5304 57.577Z" fill="#BEBEBE"/>
<path d="M74.1949 57.6551C74.1885 57.6615 74.1819 57.785 74.234 57.7329C74.2404 57.7265 74.247 57.603 74.1949 57.6551Z" fill="#A3A3A3"/>
<path d="M40.8236 57.694V59.4483C41.0271 58.9632 41.0271 58.1791 40.8236 57.694Z" fill="#3A3A3A"/>
<path d="M40.9405 57.694V59.4483C41.144 58.9632 41.144 58.1791 40.9405 57.694Z" fill="#AAAAAA"/>
<path d="M70.4523 57.889C70.4459 57.8954 70.4394 58.0189 70.4914 57.9668C70.4978 57.9604 70.5044 57.8369 70.4523 57.889Z" fill="#404040"/>
<path d="M74.1949 57.889C74.1885 57.8954 74.1819 58.0189 74.234 57.9668C74.2404 57.9604 74.247 57.8369 74.1949 57.889Z" fill="#6A6A6A"/>
<path d="M74.156 58.0449V58.3957C74.2374 58.214 74.2374 58.2266 74.156 58.0449Z" fill="#4E4E4E"/>
<path d="M33.8452 58.4737C33.8387 58.4802 33.8322 58.6037 33.8842 58.5516C33.8907 58.5452 33.8972 58.4217 33.8452 58.4737Z" fill="#7B7B7B"/>
<path d="M74.078 58.4737C74.0715 58.4802 74.065 58.6037 74.117 58.5516C74.1235 58.5452 74.13 58.4217 74.078 58.4737Z" fill="#676767"/>
<path d="M33.8062 58.6296V58.9805C33.8876 58.7988 33.8876 58.8114 33.8062 58.6296Z" fill="#B8B8B8"/>
<path d="M74.078 58.7076C74.0715 58.7141 74.065 58.8376 74.117 58.7855C74.1235 58.7791 74.13 58.6556 74.078 58.7076Z" fill="#414141"/>
<path d="M70.5304 58.7466V59.3314C70.6274 59.094 70.6274 58.984 70.5304 58.7466Z" fill="#7D7D7D"/>
<path d="M70.6473 58.7466V63.7757C71.0575 62.7983 70.7643 61.2097 70.7643 60.1501C70.7643 59.6842 70.8288 59.1792 70.6473 58.7466Z" fill="#D3D3D3"/>
<path d="M73.9221 58.9805V59.3314C74.0035 59.1496 74.0035 59.1623 73.9221 58.9805Z" fill="#555555"/>
<path d="M33.9232 59.0975V59.4483C34.0046 59.2666 34.0046 59.2792 33.9232 59.0975Z" fill="#AFAFAF"/>
<path d="M70.5304 59.3314V63.5418C70.6989 63.14 70.6473 62.6882 70.6473 62.2553C70.6473 61.3804 70.8699 60.1406 70.5304 59.3314Z" fill="#4A4A4A"/>
<path d="M40.9405 59.4483V60.1501C41.0518 59.8828 41.0518 59.7156 40.9405 59.4483Z" fill="#727272"/>
<path d="M73.8051 59.4483V59.7992C73.8865 59.6175 73.8865 59.6301 73.8051 59.4483Z" fill="#555555"/>
<path d="M34.0791 59.6433C34.0726 59.6497 34.0661 59.7732 34.1181 59.7212C34.1246 59.7148 34.1311 59.5913 34.0791 59.6433Z" fill="#CECECE"/>
<path d="M34.196 59.9942C34.1896 60.0006 34.1831 60.1241 34.2351 60.0721C34.2415 60.0656 34.2481 59.9421 34.196 59.9942Z" fill="#DEDEDE"/>
<path d="M73.6882 59.9162V60.267C73.7696 60.0853 73.7696 60.0979 73.6882 59.9162Z" fill="#4E4E4E"/>
<path d="M40.9405 60.1501V60.5009C41.0219 60.3192 41.0219 60.3318 40.9405 60.1501Z" fill="#484848"/>
<path d="M41.0575 60.1501V60.5009C41.1389 60.3192 41.1389 60.3318 41.0575 60.1501Z" fill="#C1C1C1"/>
<path d="M73.5712 60.267V60.6179C73.6526 60.4361 73.6526 60.4488 73.5712 60.267Z" fill="#5B5B5B"/>
<path d="M41.0575 60.5009V60.8518C41.1389 60.67 41.1389 60.6827 41.0575 60.5009Z" fill="#777777"/>
<path d="M73.4932 60.8129C73.4868 60.8193 73.4802 60.9428 73.5323 60.8908C73.5387 60.8843 73.5452 60.7608 73.4932 60.8129Z" fill="#4F4F4F"/>
<path d="M41.0964 60.9298C41.09 60.9363 41.0834 61.0598 41.1355 61.0077C41.1419 61.0013 41.1485 60.8778 41.0964 60.9298Z" fill="#353535"/>
<path d="M41.2134 60.9298C41.207 60.9363 41.2004 61.0598 41.2525 61.0077C41.2589 61.0013 41.2654 60.8778 41.2134 60.9298Z" fill="#A3A3A3"/>
<path d="M41.1744 61.0857V61.4366C41.2558 61.2548 41.2558 61.2675 41.1744 61.0857Z" fill="#717171"/>
<path d="M73.3762 61.1637C73.3698 61.1702 73.3633 61.2937 73.4153 61.2416C73.4217 61.2352 73.4283 61.1117 73.3762 61.1637Z" fill="#555555"/>
<path d="M41.2914 61.4366V61.7875C41.3728 61.6057 41.3728 61.6183 41.2914 61.4366Z" fill="#797979"/>
<path d="M73.2593 61.5146C73.2529 61.521 73.2463 61.6445 73.2983 61.5925C73.3048 61.586 73.3113 61.4625 73.2593 61.5146Z" fill="#5C5C5C"/>
<path d="M81.6412 61.4366V61.7875C81.7226 61.6057 81.7226 61.6183 81.6412 61.4366Z" fill="#4A4A4A"/>
<path d="M81.6412 61.7874V62.1383C81.7226 61.9566 81.7226 61.9692 81.6412 61.7874Z" fill="#6A6A6A"/>
<path d="M41.4473 61.9824C41.4409 61.9888 41.4343 62.1124 41.4864 62.0603C41.4928 62.0539 41.4993 61.9304 41.4473 61.9824Z" fill="#5C5C5C"/>
<path d="M73.1423 61.9824C73.1359 61.9888 73.1293 62.1124 73.1814 62.0603C73.1878 62.0539 73.1944 61.9304 73.1423 61.9824Z" fill="#424242"/>
<path d="M41.5253 62.1383V62.4892C41.6067 62.3074 41.6067 62.3201 41.5253 62.1383Z" fill="#7B7B7B"/>
<path d="M81.6801 62.2163C81.6737 62.2228 81.6671 62.3463 81.7192 62.2942C81.7256 62.2878 81.7322 62.1643 81.6801 62.2163Z" fill="#A4A4A4"/>
<path d="M73.0254 62.3333C73.0189 62.3397 73.0124 62.4632 73.0644 62.4112C73.0709 62.4047 73.0774 62.2812 73.0254 62.3333Z" fill="#3B3B3B"/>
<path d="M81.6412 62.3722V63.3079C81.7769 62.9839 81.7769 62.6962 81.6412 62.3722Z" fill="#DBDBDB"/>
<path d="M72.9084 62.5672C72.902 62.5736 72.8954 62.6971 72.9475 62.6451C72.9539 62.6387 72.9605 62.5151 72.9084 62.5672Z" fill="#515151"/>
<path d="M72.7915 62.9181C72.785 62.9245 72.7785 63.048 72.8305 62.996C72.837 62.9895 72.8435 62.866 72.7915 62.9181Z" fill="#484848"/>
<path d="M81.5242 62.957V63.3079C81.6056 63.1261 81.6056 63.1388 81.5242 62.957Z" fill="#454545"/>
<path d="M72.6745 63.2689C72.6681 63.2754 72.6615 63.3989 72.7136 63.3468C72.72 63.3404 72.7265 63.2169 72.6745 63.2689Z" fill="#414141"/>
<path d="M81.5632 63.3859C81.5567 63.3923 81.5502 63.5158 81.6022 63.4638C81.6086 63.4573 81.6152 63.3338 81.5632 63.3859Z" fill="#A7A7A7"/>
<path d="M70.5304 63.5418V63.8927C70.6118 63.7109 70.6118 63.7235 70.5304 63.5418Z" fill="#6D6D6D"/>
<path d="M72.5575 63.6198C72.5511 63.6262 72.5446 63.7497 72.5966 63.6977C72.603 63.6913 72.6096 63.5678 72.5575 63.6198Z" fill="#3D3D3D"/>
<path d="M81.5242 63.5418V64.5944C81.6711 64.2442 81.6711 63.892 81.5242 63.5418Z" fill="#DDDDDD"/>
<path d="M72.4406 63.8537C72.4342 63.8601 72.4276 63.9836 72.4797 63.9316C72.4861 63.9252 72.4926 63.8017 72.4406 63.8537Z" fill="#565656"/>
<path d="M70.5304 63.8927V64.8283C70.6662 64.5043 70.6662 64.2166 70.5304 63.8927Z" fill="#BFBFBF"/>
<path d="M72.3236 64.2046C72.3172 64.211 72.3106 64.3345 72.3627 64.2825C72.3691 64.276 72.3757 64.1525 72.3236 64.2046Z" fill="#525252"/>
<path d="M81.4073 64.1266V64.4774C81.4887 64.2957 81.4887 64.3083 81.4073 64.1266Z" fill="#3E3E3E"/>
<path d="M72.2067 64.5554C72.2003 64.5619 72.1937 64.6854 72.2458 64.6333C72.2522 64.6269 72.2587 64.5034 72.2067 64.5554Z" fill="#4D4D4D"/>
<path d="M81.4073 64.4774V64.8283C81.4887 64.6466 81.4887 64.6592 81.4073 64.4774Z" fill="#6D6D6D"/>
<path d="M70.4134 64.7113V65.0622C70.4948 64.8805 70.4948 64.8931 70.4134 64.7113Z" fill="#606060"/>
<path d="M72.0897 64.9063C72.0833 64.9127 72.0767 65.0363 72.1288 64.9842C72.1352 64.9778 72.1418 64.8543 72.0897 64.9063Z" fill="#464646"/>
<path d="M81.4073 64.8283V65.764C81.543 65.44 81.543 65.1523 81.4073 64.8283Z" fill="#DCDCDC"/>
<path d="M70.4134 65.0622V65.9979C70.5492 65.6739 70.5492 65.3862 70.4134 65.0622Z" fill="#BFBFBF"/>
<path d="M40.1999 65.2181C40.1478 65.2702 40.2713 65.2636 40.2777 65.2572C40.3298 65.2051 40.2063 65.2117 40.1999 65.2181Z" fill="#A4A4A4"/>
<path d="M71.9728 65.2572C71.9663 65.2636 71.9598 65.3871 72.0118 65.3351C72.0183 65.3286 72.0248 65.2051 71.9728 65.2572Z" fill="#404040"/>
<path d="M40.3558 65.2961C40.5017 65.3762 40.5368 65.3837 40.7066 65.4131C40.5607 65.333 40.5256 65.3255 40.3558 65.2961Z" fill="#B8B8B8"/>
<path d="M81.2903 65.2961V65.647C81.3717 65.4652 81.3717 65.4779 81.2903 65.2961Z" fill="#444444"/>
<path d="M40.7066 65.4131C40.8526 65.4932 40.8877 65.5007 41.0575 65.53C40.9115 65.4499 40.8764 65.4424 40.7066 65.4131Z" fill="#BFBFBF"/>
<path d="M41.2524 65.452C41.2004 65.5041 41.3239 65.4975 41.3303 65.4911C41.3824 65.4391 41.2589 65.4456 41.2524 65.452Z" fill="#363636"/>
<path d="M71.8558 65.4911C71.8494 65.4975 71.8428 65.621 71.8949 65.569C71.9013 65.5626 71.9079 65.4391 71.8558 65.4911Z" fill="#5A5A5A"/>
<path d="M41.1744 65.53C41.3813 65.6211 41.5295 65.6367 41.7592 65.647C41.5523 65.5559 41.4041 65.5403 41.1744 65.53Z" fill="#B8B8B8"/>
<path d="M41.7592 65.53C42.0648 65.6585 42.3632 65.6462 42.6949 65.647C42.3893 65.5186 42.0908 65.5309 41.7592 65.53Z" fill="#7F7F7F"/>
<path d="M42.6949 65.53C42.871 65.6099 42.9656 65.6266 43.1627 65.647C42.9866 65.5671 42.8919 65.5504 42.6949 65.53Z" fill="#969696"/>
<path d="M41.7592 65.647C42.1291 65.8022 42.5295 65.7639 42.9288 65.7639C42.5588 65.6087 42.1585 65.647 41.7592 65.647Z" fill="#E6E6E6"/>
<path d="M70.2964 65.7639V66.1148C70.3778 65.9331 70.3778 65.9457 70.2964 65.7639Z" fill="#4E4E4E"/>
<path d="M71.7389 65.842C71.7324 65.8484 71.7259 65.9719 71.7779 65.9199C71.7843 65.9134 71.7909 65.7899 71.7389 65.842Z" fill="#4C4C4C"/>
<path d="M81.2903 65.7639V66.3487C81.3874 66.1113 81.3874 66.0014 81.2903 65.7639Z" fill="#E0E0E0"/>
<path d="M70.4523 66.0759C70.4459 66.0823 70.4394 66.2058 70.4914 66.1538C70.4978 66.1473 70.5044 66.0238 70.4523 66.0759Z" fill="#E5E5E5"/>
<path d="M70.3354 66.1928C70.329 66.1993 70.3224 66.3228 70.3744 66.2707C70.3809 66.2643 70.3874 66.1408 70.3354 66.1928Z" fill="#9D9D9D"/>
<path d="M71.6219 66.1928C71.6155 66.1993 71.6089 66.3228 71.661 66.2707C71.6674 66.2643 71.6739 66.1408 71.6219 66.1928Z" fill="#3A3A3A"/>
<path d="M81.2123 66.1928C81.2058 66.1993 81.1993 66.3228 81.2513 66.2707C81.2578 66.2643 81.2643 66.1408 81.2123 66.1928Z" fill="#5A5A5A"/>
<path d="M70.2964 66.3487V66.6996C70.3778 66.5178 70.3778 66.5305 70.2964 66.3487Z" fill="#BEBEBE"/>
<path d="M71.5049 66.4267C71.4985 66.4332 71.492 66.5567 71.544 66.5046C71.5504 66.4982 71.557 66.3747 71.5049 66.4267Z" fill="#4A4A4A"/>
<path d="M81.1733 66.4657V66.9335C81.2564 66.7278 81.2564 66.6714 81.1733 66.4657Z" fill="#D9D9D9"/>
<path d="M70.2184 66.7776C70.212 66.784 70.2054 66.9075 70.2575 66.8555C70.2639 66.8491 70.2705 66.7256 70.2184 66.7776Z" fill="#626262"/>
<path d="M70.3354 66.7776C70.329 66.784 70.3224 66.9075 70.3744 66.8555C70.3809 66.8491 70.3874 66.7256 70.3354 66.7776Z" fill="#DBDBDB"/>
<path d="M71.388 66.7776C71.3816 66.784 71.375 66.9075 71.4271 66.8555C71.4335 66.8491 71.44 66.7256 71.388 66.7776Z" fill="#323232"/>
<path d="M70.1795 66.9335V67.2844C70.2609 67.1026 70.2609 67.1153 70.1795 66.9335Z" fill="#B5B5B5"/>
<path d="M71.271 67.0115C71.2646 67.0179 71.2581 67.1415 71.3101 67.0894C71.3165 67.083 71.3231 66.9595 71.271 67.0115Z" fill="#3B3B3B"/>
<path d="M81.0564 67.0505V67.4013C81.1378 67.2196 81.1378 67.2322 81.0564 67.0505Z" fill="#DBDBDB"/>
<path d="M71.1541 67.2454C71.1476 67.2519 71.1411 67.3754 71.1931 67.3233C71.1996 67.3169 71.2061 67.1934 71.1541 67.2454Z" fill="#444444"/>
<path d="M70.2184 67.3624C70.212 67.3688 70.2054 67.4923 70.2575 67.4403C70.2639 67.4338 70.2705 67.3103 70.2184 67.3624Z" fill="#E1E1E1"/>
<path d="M70.0625 67.5183V67.8692C70.1439 67.6874 70.1439 67.7 70.0625 67.5183Z" fill="#BFBFBF"/>
<path d="M80.9394 67.5183V67.8692C81.0208 67.6874 81.0208 67.7 80.9394 67.5183Z" fill="#D8D8D8"/>
<path d="M52.6361 67.8692V68.4539C52.7332 68.2164 52.7332 68.1067 52.6361 67.8692Z" fill="#888888"/>
<path d="M69.9456 67.9861V68.337C70.027 68.1552 70.027 68.1679 69.9456 67.9861Z" fill="#BDBDBD"/>
<path d="M80.8225 67.9861V68.337C80.9039 68.1552 80.9039 68.1679 80.8225 67.9861Z" fill="#DEDEDE"/>
<path d="M30.5315 68.22V68.8048C30.6395 68.6121 30.7009 68.4335 30.7654 68.22H30.5315Z" fill="#BBBBBB"/>
<path d="M30.7264 68.3759C30.6744 68.428 30.7979 68.4214 30.8043 68.415C30.8564 68.3629 30.7329 68.3695 30.7264 68.3759Z" fill="#666666"/>
<path d="M80.7055 68.337V68.6878C80.7869 68.5061 80.7869 68.5187 80.7055 68.337Z" fill="#DCDCDC"/>
<path d="M30.6484 68.4539C31.0132 71.2789 31.6597 73.9424 34.274 75.534C36.7659 77.051 39.845 77.0215 42.5779 76.2556C44.1344 75.8193 45.5714 75.0935 46.4997 73.7169C47.3317 72.4834 47.3731 71.1709 47.3731 69.7404C44.3614 70.4292 41.4874 71.234 38.3675 70.7417C36.7599 70.488 35.1056 70.0883 33.5723 69.5426C32.6066 69.1988 31.6604 68.6282 30.6484 68.4539Z" fill="#151515"/>
<path d="M31.0773 68.4929C31.0252 68.5449 31.1488 68.5384 31.1552 68.5319C31.2072 68.4799 31.0837 68.4864 31.0773 68.4929Z" fill="#818181"/>
<path d="M52.5581 68.5319C52.5517 68.5384 52.5451 68.6619 52.5972 68.6098C52.6036 68.6034 52.6102 68.4799 52.5581 68.5319Z" fill="#CFCFCF"/>
<path d="M52.6751 68.5319C52.6686 68.5384 52.6621 68.6619 52.7141 68.6098C52.7206 68.6034 52.7271 68.4799 52.6751 68.5319Z" fill="#595959"/>
<path d="M69.8286 68.4539V68.8048C69.91 68.6231 69.91 68.6357 69.8286 68.4539Z" fill="#BEBEBE"/>
<path d="M31.3112 68.6098C31.2592 68.6619 31.3827 68.6553 31.3891 68.6489C31.4411 68.5969 31.3176 68.6034 31.3112 68.6098Z" fill="#656565"/>
<path d="M52.5581 68.7659C52.5517 68.7723 52.5451 68.8958 52.5972 68.8437C52.6036 68.8373 52.6102 68.7138 52.5581 68.7659Z" fill="#A9A9A9"/>
<path d="M52.6751 68.7659C52.6686 68.7723 52.6621 68.8958 52.7141 68.8437C52.7206 68.8373 52.7271 68.7138 52.6751 68.7659Z" fill="#363636"/>
<path d="M80.6275 68.7659C80.6211 68.7723 80.6145 68.8958 80.6666 68.8437C80.673 68.8373 80.6796 68.7138 80.6275 68.7659Z" fill="#DDDDDD"/>
<path d="M30.5315 68.8048V69.1557C30.6129 68.9739 30.6129 68.9866 30.5315 68.8048Z" fill="#E4E4E4"/>
<path d="M30.6484 68.8048V69.1557C30.7298 68.9739 30.7298 68.9866 30.6484 68.8048Z" fill="#747474"/>
<path d="M32.1299 68.9607C32.0778 69.0127 32.2013 69.0062 32.2078 68.9998C32.2598 68.9477 32.1363 68.9543 32.1299 68.9607Z" fill="#666666"/>
<path d="M52.5192 68.9218V69.3896C52.6022 69.1839 52.6022 69.1275 52.5192 68.9218Z" fill="#8E8E8E"/>
<path d="M69.7117 68.9218V69.5065C69.8087 69.269 69.8087 69.1592 69.7117 68.9218Z" fill="#C6C6C6"/>
<path d="M80.5106 69.1167C80.5041 69.1232 80.4976 69.2467 80.5496 69.1946C80.556 69.1882 80.5626 69.0647 80.5106 69.1167Z" fill="#E1E1E1"/>
<path d="M30.6484 69.1557V69.6235C30.7315 69.4178 30.7315 69.3614 30.6484 69.1557Z" fill="#C3C3C3"/>
<path d="M32.7147 69.1946C32.6626 69.2467 32.7861 69.2401 32.7926 69.2337C32.8446 69.1816 32.7211 69.1882 32.7147 69.1946Z" fill="#6B6B6B"/>
<path d="M33.0655 69.3116C33.0135 69.3636 33.137 69.3571 33.1434 69.3506C33.1955 69.2986 33.072 69.3051 33.0655 69.3116Z" fill="#797979"/>
<path d="M69.6337 69.3506C69.6272 69.3571 69.6207 69.4806 69.6727 69.4285C69.6792 69.4221 69.6857 69.2986 69.6337 69.3506Z" fill="#494949"/>
<path d="M30.7654 69.3896V69.7404C30.8468 69.5587 30.8468 69.5713 30.7654 69.3896Z" fill="#3A3A3A"/>
<path d="M33.2215 69.3896C33.3674 69.4697 33.4025 69.4772 33.5723 69.5065C33.4264 69.4264 33.3913 69.4189 33.2215 69.3896Z" fill="#5C5C5C"/>
<path d="M52.4022 69.3896V70.5591C52.5596 70.1841 52.5596 69.7647 52.4022 69.3896Z" fill="#A8A8A8"/>
<path d="M52.5192 69.3896V70.5591C52.6766 70.1841 52.6766 69.7647 52.5192 69.3896Z" fill="#343434"/>
<path d="M80.3936 69.4676C80.3872 69.474 80.3806 69.5975 80.4327 69.5455C80.4391 69.5391 80.4456 69.4155 80.3936 69.4676Z" fill="#E7E7E7"/>
<path d="M33.6503 69.5455C33.5983 69.5975 33.7218 69.591 33.7282 69.5845C33.7803 69.5325 33.6568 69.539 33.6503 69.5455Z" fill="#5D5D5D"/>
<path d="M69.5947 69.5065V69.7405H69.8286C69.7649 69.5492 69.7859 69.5703 69.5947 69.5065Z" fill="#696969"/>
<path d="M33.9232 69.6235C34.0691 69.7036 34.1042 69.7111 34.274 69.7404C34.1281 69.6603 34.093 69.6528 33.9232 69.6235Z" fill="#5A5A5A"/>
<path d="M47.2172 69.6624C47.1651 69.7145 47.2887 69.7079 47.2951 69.7015C47.3471 69.6495 47.2236 69.656 47.2172 69.6624Z" fill="#4D4D4D"/>
<path d="M80.2766 69.7015C80.2702 69.7079 80.2637 69.8314 80.3157 69.7794C80.3221 69.773 80.3287 69.6495 80.2766 69.7015Z" fill="#E3E3E3"/>
<path d="M30.8043 69.8185C30.7979 69.8249 30.7913 69.9484 30.8434 69.8963C30.8498 69.8899 30.8564 69.7664 30.8043 69.8185Z" fill="#A0A0A0"/>
<path d="M34.274 69.7404C34.42 69.8206 34.4551 69.828 34.6249 69.8574C34.479 69.7773 34.4439 69.7698 34.274 69.7404Z" fill="#535353"/>
<path d="M46.7883 69.7404C46.9343 69.8206 46.9694 69.828 47.1392 69.8574C46.9932 69.7773 46.9581 69.7698 46.7883 69.7404Z" fill="#4C4C4C"/>
<path d="M47.3731 69.7404V71.027C47.5405 70.6281 47.5405 70.1393 47.3731 69.7404Z" fill="#2C2C2C"/>
<path d="M47.529 69.8185C47.5226 69.8249 47.516 69.9484 47.5681 69.8963C47.5745 69.8899 47.581 69.7664 47.529 69.8185Z" fill="#C6C6C6"/>
<path d="M34.7419 69.8574C34.8878 69.9375 34.9229 69.945 35.0927 69.9744C34.9468 69.8942 34.9117 69.8868 34.7419 69.8574Z" fill="#585858"/>
<path d="M46.4375 69.8574C46.5834 69.9375 46.6185 69.945 46.7883 69.9744C46.6424 69.8942 46.6073 69.8868 46.4375 69.8574Z" fill="#4A4A4A"/>
<path d="M80.1597 69.9354C80.1532 69.9419 80.1467 70.0654 80.1987 70.0133C80.2052 70.0069 80.2117 69.8834 80.1597 69.9354Z" fill="#E0E0E0"/>
<path d="M30.7654 69.9744V70.3252C30.8468 70.1435 30.8468 70.1561 30.7654 69.9744Z" fill="#C3C3C3"/>
<path d="M35.0927 69.9744C35.3954 70.1355 35.6869 70.1803 36.0284 70.2083C35.7257 70.0471 35.4343 70.0023 35.0927 69.9744Z" fill="#494949"/>
<path d="M46.0476 70.0133C45.9956 70.0653 46.1191 70.0588 46.1255 70.0524C46.1776 70.0003 46.0541 70.0069 46.0476 70.0133Z" fill="#545454"/>
<path d="M47.4901 69.9744V71.027C47.6369 70.6768 47.6369 70.3245 47.4901 69.9744Z" fill="#9B9B9B"/>
<path d="M45.5018 70.0913C45.6478 70.1714 45.6828 70.1789 45.8527 70.2083C45.7067 70.1282 45.6716 70.1207 45.5018 70.0913Z" fill="#5A5A5A"/>
<path d="M36.1064 70.2472C36.0544 70.2993 36.1779 70.2927 36.1843 70.2863C36.2363 70.2342 36.1128 70.2408 36.1064 70.2472Z" fill="#3F3F3F"/>
<path d="M36.2623 70.2083C36.4083 70.2884 36.4433 70.2959 36.6132 70.3252C36.4672 70.2451 36.4321 70.2376 36.2623 70.2083Z" fill="#5B5B5B"/>
<path d="M45.034 70.2083C45.1799 70.2884 45.215 70.2959 45.3848 70.3252C45.2389 70.2451 45.2038 70.2376 45.034 70.2083Z" fill="#585858"/>
<path d="M30.8043 70.4032C30.7979 70.4097 30.7913 70.5332 30.8434 70.4811C30.8498 70.4747 30.8564 70.3512 30.8043 70.4032Z" fill="#E2E2E2"/>
<path d="M30.9213 70.4032C30.9148 70.4097 30.9083 70.5332 30.9603 70.4811C30.9668 70.4747 30.9733 70.3512 30.9213 70.4032Z" fill="#727272"/>
<path d="M36.6912 70.3642C36.6391 70.4162 36.7626 70.4097 36.7691 70.4032C36.8211 70.3512 36.6976 70.3577 36.6912 70.3642Z" fill="#404040"/>
<path d="M36.8471 70.3252C36.993 70.4053 37.0281 70.4128 37.1979 70.4422C37.052 70.3621 37.0169 70.3546 36.8471 70.3252Z" fill="#5F5F5F"/>
<path d="M44.5272 70.3642C44.4752 70.4162 44.5987 70.4097 44.6051 70.4032C44.6572 70.3512 44.5336 70.3577 44.5272 70.3642Z" fill="#5B5B5B"/>
<path d="M44.7611 70.3642C44.7091 70.4162 44.8326 70.4097 44.839 70.4032C44.8911 70.3512 44.7676 70.3577 44.7611 70.3642Z" fill="#424242"/>
<path d="M37.276 70.4811C37.2239 70.5332 37.3474 70.5266 37.3538 70.5202C37.4059 70.4681 37.2824 70.4747 37.276 70.4811Z" fill="#404040"/>
<path d="M37.4319 70.4422C37.5778 70.5223 37.6129 70.5298 37.7827 70.5591C37.6368 70.479 37.6017 70.4715 37.4319 70.4422Z" fill="#5D5D5D"/>
<path d="M43.6305 70.4422C43.7765 70.5223 43.8116 70.5298 43.9814 70.5591C43.8354 70.479 43.8003 70.4715 43.6305 70.4422Z" fill="#868686"/>
<path d="M43.9814 70.4422C44.1273 70.5223 44.1624 70.5298 44.3323 70.5591C44.1863 70.479 44.1512 70.4715 43.9814 70.4422Z" fill="#4D4D4D"/>
<path d="M30.8823 70.5591V70.91C30.9637 70.7283 30.9637 70.7409 30.8823 70.5591Z" fill="#BBBBBB"/>
<path d="M37.6658 70.5591C37.8117 70.6393 37.8468 70.6467 38.0166 70.6761C37.8707 70.596 37.8356 70.5885 37.6658 70.5591Z" fill="#303030"/>
<path d="M38.0166 70.5591C38.1626 70.6393 38.1977 70.6467 38.3675 70.6761C38.2215 70.596 38.1865 70.5885 38.0166 70.5591Z" fill="#5C5C5C"/>
<path d="M38.3675 70.5591C38.5135 70.6393 38.5485 70.6467 38.7184 70.6761C38.5724 70.596 38.5373 70.5885 38.3675 70.5591Z" fill="#9A9A9A"/>
<path d="M38.7964 70.5981C38.7443 70.6501 38.8678 70.6436 38.8743 70.6371C38.9263 70.5851 38.8028 70.5917 38.7964 70.5981Z" fill="#D6D6D6"/>
<path d="M42.539 70.5981C42.4869 70.6501 42.6104 70.6436 42.6169 70.6371C42.6689 70.5851 42.5454 70.5917 42.539 70.5981Z" fill="#C5C5C5"/>
<path d="M42.7729 70.5981C42.7208 70.6501 42.8443 70.6436 42.8508 70.6371C42.9028 70.5851 42.7793 70.5917 42.7729 70.5981Z" fill="#8C8C8C"/>
<path d="M43.0068 70.5981C42.9547 70.6501 43.0782 70.6436 43.0847 70.6371C43.1367 70.5851 43.0132 70.5917 43.0068 70.5981Z" fill="#6C6C6C"/>
<path d="M43.1627 70.5591C43.3087 70.6393 43.3437 70.6467 43.5136 70.6761C43.3676 70.596 43.3325 70.5885 43.1627 70.5591Z" fill="#505050"/>
<path d="M52.4022 70.5591V70.91C52.4836 70.7283 52.4836 70.7409 52.4022 70.5591Z" fill="#CACACA"/>
<path d="M52.5192 70.5591V70.91C52.6006 70.7283 52.6006 70.7409 52.5192 70.5591Z" fill="#545454"/>
<path d="M38.2505 70.6761C38.4905 70.7783 38.6888 70.7875 38.9523 70.793C38.7123 70.6908 38.514 70.6816 38.2505 70.6761Z" fill="#343434"/>
<path d="M38.9523 70.6761C39.7625 71.0161 40.9994 70.793 41.8762 70.793C41.0659 70.4531 39.8291 70.6761 38.9523 70.6761Z" fill="#7B7B7B"/>
<path d="M41.8762 70.6761C42.0831 70.7672 42.2313 70.7828 42.461 70.793C42.2541 70.7019 42.1059 70.6864 41.8762 70.6761Z" fill="#505050"/>
<path d="M42.461 70.6761C42.701 70.7783 42.8992 70.7875 43.1627 70.793C42.9227 70.6908 42.7245 70.6816 42.461 70.6761Z" fill="#292929"/>
<path d="M39.3031 70.793C40.0285 71.0975 41.0923 70.91 41.8762 70.91C41.1508 70.6056 40.087 70.793 39.3031 70.793Z" fill="#232323"/>
<path d="M52.5192 70.91V71.3778C52.6022 71.1721 52.6022 71.1157 52.5192 70.91Z" fill="#898989"/>
<path d="M47.3731 71.027V71.6117C47.4702 71.3742 47.4702 71.2645 47.3731 71.027Z" fill="#838383"/>
<path d="M69.5167 71.105C69.5103 71.1114 69.5037 71.2349 69.5558 71.1829C69.5622 71.1764 69.5687 71.0529 69.5167 71.105Z" fill="#ACACAC"/>
<path d="M69.6337 71.105C69.6272 71.1114 69.6207 71.2349 69.6727 71.1829C69.6792 71.1764 69.6857 71.0529 69.6337 71.105Z" fill="#373737"/>
<path d="M30.9993 71.1439V71.4948C31.0807 71.313 31.0807 71.3257 30.9993 71.1439Z" fill="#C2C2C2"/>
<path d="M52.6751 71.3389C52.6686 71.3453 52.6621 71.4688 52.7141 71.4168C52.7206 71.4103 52.7271 71.2868 52.6751 71.3389Z" fill="#444444"/>
<path d="M69.5947 71.2609V71.7287C69.6777 71.523 69.6777 71.4666 69.5947 71.2609Z" fill="#585858"/>
<path d="M52.5581 71.4558C52.5517 71.4623 52.5451 71.5858 52.5972 71.5337C52.6036 71.5273 52.6102 71.4038 52.5581 71.4558Z" fill="#DBDBDB"/>
<path d="M69.0489 71.4558C69.0424 71.4623 69.0359 71.5858 69.0879 71.5337C69.0944 71.5273 69.1009 71.4038 69.0489 71.4558Z" fill="#E3E3E3"/>
<path d="M52.6361 71.4948V71.8457C52.7175 71.6639 52.7175 71.6765 52.6361 71.4948Z" fill="#808080"/>
<path d="M31.1552 71.6898C31.1488 71.6962 31.1422 71.8197 31.1943 71.7676C31.2007 71.7612 31.2072 71.6377 31.1552 71.6898Z" fill="#CBCBCB"/>
<path d="M47.2951 71.6898C47.2887 71.6962 47.2821 71.8197 47.3341 71.7676C47.3406 71.7612 47.3471 71.6377 47.2951 71.6898Z" fill="#5C5C5C"/>
<path d="M47.412 71.6898C47.4056 71.6962 47.3991 71.8197 47.4511 71.7676C47.4575 71.7612 47.4641 71.6377 47.412 71.6898Z" fill="#D6D6D6"/>
<path d="M68.9319 71.6898C68.9255 71.6962 68.9189 71.8197 68.971 71.7676C68.9774 71.7612 68.984 71.6377 68.9319 71.6898Z" fill="#CDCDCD"/>
<path d="M69.7117 71.7287V72.0796C69.7931 71.8978 69.7931 71.9104 69.7117 71.7287Z" fill="#4C4C4C"/>
<path d="M47.2561 71.8457V72.1965C47.3376 72.0148 47.3376 72.0274 47.2561 71.8457Z" fill="#8C8C8C"/>
<path d="M52.6751 71.9237C52.6686 71.9301 52.6621 72.0536 52.7141 72.0016C52.7206 71.9951 52.7271 71.8716 52.6751 71.9237Z" fill="#BCBCBC"/>
<path d="M68.815 71.9237C68.8085 71.9301 68.802 72.0536 68.854 72.0016C68.8605 71.9951 68.867 71.8716 68.815 71.9237Z" fill="#C0C0C0"/>
<path d="M31.2721 72.0406C31.2657 72.0471 31.2592 72.1706 31.3112 72.1185C31.3176 72.1121 31.3242 71.9886 31.2721 72.0406Z" fill="#D8D8D8"/>
<path d="M52.792 72.0406C52.7856 72.0471 52.779 72.1706 52.8311 72.1185C52.8375 72.1121 52.8441 71.9886 52.792 72.0406Z" fill="#717171"/>
<path d="M47.1392 72.1965V72.5474C47.2206 72.3656 47.2206 72.3783 47.1392 72.1965Z" fill="#8A8A8A"/>
<path d="M52.7531 72.1965V72.5474C52.8345 72.3656 52.8345 72.3783 52.7531 72.1965Z" fill="#9E9E9E"/>
<path d="M68.698 72.2745C68.6916 72.281 68.685 72.4045 68.7371 72.3524C68.7435 72.346 68.7501 72.2225 68.698 72.2745Z" fill="#D4D4D4"/>
<path d="M47.0612 72.6254C47.0547 72.6318 47.0482 72.7553 47.1002 72.7033C47.1067 72.6969 47.1132 72.5733 47.0612 72.6254Z" fill="#8A8A8A"/>
<path d="M52.909 72.6254C52.9025 72.6318 52.896 72.7553 52.948 72.7033C52.9545 72.6969 52.961 72.5733 52.909 72.6254Z" fill="#959595"/>
<path d="M53.0259 72.9763C53.0195 72.9827 53.0129 73.1062 53.065 73.0542C53.0714 73.0477 53.078 72.9242 53.0259 72.9763Z" fill="#AAAAAA"/>
<path d="M71.1931 73.405C71.1411 73.4571 71.2646 73.4505 71.271 73.4441C71.3231 73.392 71.1996 73.3986 71.1931 73.405Z" fill="#C5C5C5"/>
<path d="M71.4271 73.522C71.375 73.574 71.4985 73.5675 71.505 73.561C71.557 73.509 71.4335 73.5155 71.4271 73.522Z" fill="#D1D1D1"/>
<path d="M76.924 73.522C76.8719 73.574 76.9954 73.5675 77.0019 73.561C77.0539 73.509 76.9304 73.5155 76.924 73.522Z" fill="#D9D9D9"/>
<path d="M71.583 73.6C71.8184 73.7433 72.0109 73.7924 72.2847 73.8339C72.0493 73.6906 71.8568 73.6415 71.583 73.6Z" fill="#D6D6D6"/>
<path d="M76.6901 73.6389C76.638 73.691 76.7615 73.6844 76.768 73.678C76.82 73.6259 76.6965 73.6325 76.6901 73.6389Z" fill="#DBDBDB"/>
<path d="M76.4562 73.7559C76.4041 73.8079 76.5276 73.8014 76.534 73.795C76.5861 73.7429 76.4626 73.7495 76.4562 73.7559Z" fill="#DEDEDE"/>
<path d="M72.4016 73.8339C72.5476 73.914 72.5827 73.9215 72.7525 73.9509C72.6065 73.8707 72.5715 73.8633 72.4016 73.8339Z" fill="#D2D2D2"/>
<path d="M76.0273 73.8339C76.1732 73.914 76.2083 73.9215 76.3781 73.9509C76.2322 73.8707 76.197 73.8633 76.0273 73.8339Z" fill="#D5D5D5"/>
<path d="M72.7525 73.9509C72.9594 74.042 73.1076 74.0575 73.3373 74.0678C73.1304 73.9767 72.9822 73.9612 72.7525 73.9509Z" fill="#CFCFCF"/>
<path d="M73.4153 73.9898C73.3633 74.0419 73.4868 74.0353 73.4932 74.0289C73.5452 73.9768 73.4217 73.9834 73.4153 73.9898Z" fill="#7C7C7C"/>
<path d="M73.5712 73.9509C74.0643 74.1578 74.6775 74.0678 75.2086 74.0678C74.7154 73.8609 74.1023 73.9509 73.5712 73.9509Z" fill="#444444"/>
<path d="M75.2866 73.9898C75.2345 74.0419 75.3581 74.0353 75.3645 74.0289C75.4165 73.9768 75.293 73.9834 75.2866 73.9898Z" fill="#757575"/>
<path d="M75.4425 73.9509C75.6494 74.042 75.7976 74.0575 76.0273 74.0678C75.8204 73.9767 75.6722 73.9612 75.4425 73.9509Z" fill="#D9D9D9"/>
<path d="M73.3373 74.0678C73.948 74.3241 74.7838 74.1848 75.4425 74.1848C74.8317 73.9285 73.996 74.0678 73.3373 74.0678Z" fill="#DBDBDB"/>
<path d="M54.1565 74.7695C54.2203 74.9608 54.1992 74.9397 54.3905 75.0035C54.3267 74.8122 54.3478 74.8333 54.1565 74.7695Z" fill="#AFAFAF"/>
<path d="M66.7878 74.8865L66.6708 75.1204C66.8185 75.0069 66.8336 75.0392 66.7878 74.8865Z" fill="#4E4E4E"/>
<path d="M43.5916 75.9781C43.5395 76.0301 43.663 76.0235 43.6695 76.0171C43.7215 75.9651 43.598 75.9716 43.5916 75.9781Z" fill="#DDDDDD"/>
<path d="M43.1627 76.0561C43.3087 76.1362 43.3437 76.1437 43.5136 76.173C43.3676 76.0929 43.3325 76.0854 43.1627 76.0561Z" fill="#DADADA"/>
<path d="M42.8118 76.173C42.9578 76.2531 42.9929 76.2606 43.1627 76.29C43.0167 76.2099 42.9815 76.2024 42.8118 76.173Z" fill="#D9D9D9"/>
<path d="M35.6775 76.29C36.0072 76.4972 36.3458 76.5841 36.7301 76.6408C36.4004 76.4336 36.0618 76.3467 35.6775 76.29Z" fill="#DADADA"/>
<path d="M42.461 76.29C42.6069 76.3701 42.642 76.3776 42.8118 76.4069C42.6659 76.3268 42.6308 76.3193 42.461 76.29Z" fill="#DEDEDE"/>
<path d="M56.3787 76.29C56.7084 76.4972 57.047 76.5841 57.4313 76.6408C57.1015 76.4336 56.763 76.3467 56.3787 76.29Z" fill="#DBDBDB"/>
<path d="M41.7203 76.4459C41.6682 76.4979 41.7917 76.4914 41.7982 76.4849C41.8502 76.4329 41.7267 76.4394 41.7203 76.4459Z" fill="#686868"/>
<path d="M41.9931 76.4069C42.1391 76.487 42.1742 76.4945 42.344 76.5239C42.198 76.4438 42.163 76.4363 41.9931 76.4069Z" fill="#DBDBDB"/>
<path d="M41.4083 76.5239C41.5543 76.604 41.5894 76.6115 41.7592 76.6408C41.6133 76.5607 41.5782 76.5532 41.4083 76.5239Z" fill="#D8D8D8"/>
<path d="M64.5267 76.5628C64.4746 76.6149 64.5981 76.6083 64.6046 76.6019C64.6566 76.5499 64.5331 76.5564 64.5267 76.5628Z" fill="#DFDFDF"/>
<path d="M36.7301 76.6408C36.937 76.732 37.0852 76.7475 37.3149 76.7578C37.108 76.6667 36.9598 76.6511 36.7301 76.6408Z" fill="#D3D3D3"/>
<path d="M37.4319 76.6408C37.5778 76.721 37.6129 76.7284 37.7827 76.7578C37.6368 76.6777 37.6017 76.6702 37.4319 76.6408Z" fill="#323232"/>
<path d="M40.2388 76.6408C40.3848 76.721 40.4198 76.7284 40.5897 76.7578C40.4437 76.6777 40.4086 76.6702 40.2388 76.6408Z" fill="#4A4A4A"/>
<path d="M40.6677 76.6798C40.6156 76.7318 40.7391 76.7253 40.7456 76.7189C40.7976 76.6668 40.6741 76.6734 40.6677 76.6798Z" fill="#BFBFBF"/>
<path d="M40.8236 76.6408C40.9695 76.721 41.0046 76.7284 41.1744 76.7578C41.0285 76.6777 40.9934 76.6702 40.8236 76.6408Z" fill="#D7D7D7"/>
<path d="M57.4313 76.6408C57.6074 76.7207 57.7021 76.7374 57.8991 76.7578C57.723 76.6779 57.6284 76.6612 57.4313 76.6408Z" fill="#DFDFDF"/>
<path d="M64.0978 76.6408C64.2437 76.721 64.2788 76.7284 64.4487 76.7578C64.3027 76.6777 64.2676 76.6702 64.0978 76.6408Z" fill="#DBDBDB"/>
<path d="M37.3149 76.7578C37.5549 76.86 37.7531 76.8693 38.0166 76.8748C37.7766 76.7725 37.5784 76.7633 37.3149 76.7578Z" fill="#D9D9D9"/>
<path d="M38.0166 76.7578C38.1626 76.8379 38.1977 76.8454 38.3675 76.8748C38.2215 76.7946 38.1865 76.7872 38.0166 76.7578Z" fill="#919191"/>
<path d="M38.3675 76.7578C38.7055 76.8997 39.0545 76.8745 39.4201 76.8747C39.0821 76.7329 38.7331 76.758 38.3675 76.7578Z" fill="#646464"/>
<path d="M39.4981 76.7967C39.4461 76.8488 39.5696 76.8422 39.576 76.8358C39.6281 76.7838 39.5045 76.7903 39.4981 76.7967Z" fill="#949494"/>
<path d="M39.654 76.7578C39.9596 76.8862 40.2581 76.8739 40.5897 76.8748C40.2841 76.7463 39.9856 76.7586 39.654 76.7578Z" fill="#D6D6D6"/>
<path d="M58.0161 76.7578C58.1922 76.8377 58.2868 76.8544 58.4839 76.8748C58.3078 76.7949 58.2132 76.7782 58.0161 76.7578Z" fill="#DDDDDD"/>
<path d="M58.5619 76.7967C58.5099 76.8488 58.6334 76.8422 58.6398 76.8358C58.6919 76.7838 58.5683 76.7903 58.5619 76.7967Z" fill="#757575"/>
<path d="M58.7178 76.7578C58.9247 76.8489 59.0729 76.8645 59.3026 76.8748C59.0957 76.7836 58.9475 76.7681 58.7178 76.7578Z" fill="#424242"/>
<path d="M60.2382 76.7578C60.6396 76.9262 61.092 76.8748 61.5247 76.8748C61.1234 76.7063 60.671 76.7578 60.2382 76.7578Z" fill="#464646"/>
<path d="M63.0452 76.7578C63.1913 76.8379 63.2262 76.8454 63.396 76.8748C63.2501 76.7946 63.215 76.7872 63.0452 76.7578Z" fill="#515151"/>
<path d="M63.396 76.7578C63.6029 76.8489 63.7511 76.8645 63.9808 76.8748C63.7739 76.7836 63.6258 76.7681 63.396 76.7578Z" fill="#DCDCDC"/>
<path d="M38.0166 76.8748C38.5098 77.0817 39.1229 76.9917 39.654 76.9917C39.1608 76.7848 38.5477 76.8748 38.0166 76.8748Z" fill="#E9E9E9"/>
<path d="M58.4839 76.8748C58.9769 77.0817 59.5909 76.9917 60.1213 76.9917H63.396C62.9031 76.7848 62.2892 76.8748 61.7587 76.8748H58.4839Z" fill="#D8D8D8"/>
</g>
<defs>
<clipPath id="clip0_7_5955">
<rect width="80.3487" height="65.4953" fill="white" transform="translate(10.532 15.9408)"/>
</clipPath>
</defs>
</svg>
