<svg width="44" height="44" viewBox="0 0 44 44" fill="none" xmlns="http://www.w3.org/2000/svg">
<g clip-path="url(#clip0_7_7942)">
<rect width="44" height="44" rx="8" fill="#D9D9D9"/>
<g clip-path="url(#clip1_7_7942)">
<path d="M21.4653 3.39456C21.6516 3.47529 21.8335 3.46756 22.0356 3.4681C21.8494 3.38738 21.6674 3.3951 21.4653 3.39456Z" fill="#F1F1F1"/>
<path d="M20.9663 3.46809C21.1126 3.53239 21.2335 3.53816 21.3941 3.54163C21.2478 3.47734 21.127 3.47156 20.9663 3.46809Z" fill="#E1E1E1"/>
<path d="M21.3941 3.46809C21.483 3.51845 21.5044 3.52316 21.6079 3.54163C21.519 3.49127 21.4976 3.48657 21.3941 3.46809Z" fill="#B5B5B5"/>
<path d="M21.6079 3.46809C21.7542 3.53239 21.875 3.53816 22.0356 3.54163C21.8893 3.47734 21.7685 3.47156 21.6079 3.46809Z" fill="#878787"/>
<path d="M22.0833 3.49264C22.0511 3.52583 22.1275 3.52167 22.1315 3.51753C22.1637 3.48436 22.0873 3.48849 22.0833 3.49264Z" fill="#A9A9A9"/>
<path d="M22.2259 3.49264C22.1937 3.52583 22.2701 3.52167 22.2741 3.51753C22.3063 3.48436 22.2298 3.48848 22.2259 3.49264Z" fill="#C2C2C2"/>
<path d="M22.3208 3.46809C22.487 3.5405 22.6385 3.54026 22.8198 3.54163C22.6535 3.46923 22.5021 3.46947 22.3208 3.46809Z" fill="#DFDFDF"/>
<path d="M20.6812 3.54164C20.7702 3.592 20.7916 3.59671 20.8951 3.61518C20.8061 3.56482 20.7847 3.56011 20.6812 3.54164Z" fill="#E3E3E3"/>
<path d="M21.014 3.56619C20.9818 3.59938 21.0582 3.59522 21.0622 3.59107C21.0944 3.5579 21.018 3.56204 21.014 3.56619Z" fill="#515151"/>
<path d="M17.2595 7.14507C18.105 7.14507 18.9842 7.07353 19.8258 7.15755C22.1535 7.38993 24.4562 7.90755 26.7405 8.39523C26.574 6.42767 25.0494 4.23239 23.1762 3.70035C21.2695 3.15879 19.3517 3.88817 18.1217 5.45366C17.7449 5.93313 17.3219 6.51591 17.2595 7.14507Z" fill="#151515"/>
<path d="M22.6059 3.54164C22.6949 3.592 22.7163 3.59671 22.8198 3.61518C22.7308 3.56482 22.7094 3.56011 22.6059 3.54164Z" fill="#6C6C6C"/>
<path d="M22.8198 3.54164C22.9087 3.592 22.9301 3.59671 23.0336 3.61518C22.9447 3.56482 22.9233 3.56011 22.8198 3.54164Z" fill="#E1E1E1"/>
<path d="M20.515 3.63972C20.4828 3.67292 20.5592 3.66875 20.5632 3.66461C20.5954 3.63144 20.519 3.63556 20.515 3.63972Z" fill="#D5D5D5"/>
<path d="M23.1049 3.61517C23.1939 3.66553 23.2153 3.67024 23.3188 3.68871C23.2298 3.63835 23.2084 3.63365 23.1049 3.61517Z" fill="#E2E2E2"/>
<path d="M20.3012 3.71327C20.269 3.74647 20.3454 3.74228 20.3493 3.73815C20.3815 3.70498 20.3051 3.70912 20.3012 3.71327Z" fill="#DBDBDB"/>
<path d="M26.1227 6.38527C26.1187 6.38942 26.1147 6.4682 26.1469 6.43503C26.1508 6.43088 26.1549 6.35209 26.1227 6.38527Z" fill="#868686"/>
<path d="M26.194 6.53236C26.19 6.5365 26.1859 6.61529 26.2181 6.58211C26.2221 6.57798 26.2262 6.49917 26.194 6.53236Z" fill="#8A8A8A"/>
<path d="M26.2653 6.67944C26.2613 6.68359 26.2572 6.76236 26.2894 6.72919C26.2934 6.72505 26.2975 6.64626 26.2653 6.67944Z" fill="#919191"/>
<path d="M17.212 6.90005C17.208 6.90419 17.204 6.98298 17.2362 6.9498C17.2401 6.94566 17.2442 6.86687 17.212 6.90005Z" fill="#959595"/>
<path d="M26.3365 6.90005C26.3326 6.9042 26.3285 6.98298 26.3607 6.9498C26.3647 6.94566 26.3687 6.86686 26.3365 6.90005Z" fill="#747474"/>
<path d="M17.1169 6.99798V7.29214C17.1675 7.16274 17.1675 7.12737 17.1169 6.99798Z" fill="#AAAAAA"/>
<path d="M26.4078 7.04713C26.4039 7.05127 26.3998 7.13006 26.432 7.09688C26.436 7.09274 26.44 7.01395 26.4078 7.04713Z" fill="#909090"/>
<path d="M17.1882 7.07153C17.4527 7.38371 18.2998 7.2186 18.6852 7.2186C18.2362 7.02423 17.6691 7.18963 17.1882 7.07153Z" fill="#212121"/>
<path d="M18.6852 7.14506C19.0751 7.31384 19.619 7.2186 20.0396 7.2186C19.6498 7.04983 19.1059 7.14506 18.6852 7.14506Z" fill="#303030"/>
<path d="M26.4553 7.14507L26.5979 7.80692C26.6664 7.56783 26.5817 7.35256 26.4553 7.14507Z" fill="#A4A4A4"/>
<path d="M17.1882 7.21861C17.525 7.36438 17.9659 7.29215 18.3288 7.29215C17.992 7.14638 17.5511 7.21861 17.1882 7.21861Z" fill="#737373"/>
<path d="M18.3288 7.21861C18.4549 7.27588 18.5452 7.2857 18.6852 7.29214C18.5591 7.23486 18.4688 7.22505 18.3288 7.21861Z" fill="#8B8B8B"/>
<path d="M18.6852 7.2186C18.9299 7.32452 19.2056 7.29214 19.4694 7.29214C19.2247 7.18623 18.949 7.2186 18.6852 7.2186Z" fill="#AEAEAE"/>
<path d="M19.4693 7.21861C19.5767 7.26883 19.6344 7.27934 19.7545 7.29214C19.6471 7.24192 19.5895 7.23141 19.4693 7.21861Z" fill="#9B9B9B"/>
<path d="M19.7545 7.21861C19.8618 7.26883 19.9195 7.27934 20.0396 7.29214C19.9323 7.24192 19.8746 7.23141 19.7545 7.21861Z" fill="#7A7A7A"/>
<path d="M20.0396 7.21861C20.1859 7.28289 20.3067 7.28867 20.4673 7.29214C20.3211 7.22786 20.2002 7.22208 20.0396 7.21861Z" fill="#3C3C3C"/>
<path d="M20.3724 7.31669C20.3402 7.34986 20.4167 7.34572 20.4206 7.34158C20.4528 7.30841 20.3764 7.31254 20.3724 7.31669Z" fill="#C0C0C0"/>
<path d="M20.515 7.31669C20.4828 7.34986 20.5592 7.34572 20.5632 7.34158C20.5954 7.30841 20.519 7.31254 20.515 7.31669Z" fill="#848484"/>
<path d="M20.6099 7.29214C20.7762 7.36454 20.9276 7.36431 21.1089 7.36568C20.9427 7.29328 20.7912 7.29352 20.6099 7.29214Z" fill="#4A4A4A"/>
<path d="M21.014 7.39023C20.9818 7.42341 21.0582 7.41927 21.0622 7.41512C21.0944 7.38195 21.018 7.38609 21.014 7.39023Z" fill="#B0B0B0"/>
<path d="M21.1566 7.39024C21.1244 7.42341 21.2008 7.41926 21.2048 7.41512C21.237 7.38194 21.1606 7.38609 21.1566 7.39024Z" fill="#727272"/>
<path d="M21.2515 7.36568C21.3776 7.42296 21.4679 7.43277 21.6079 7.43922C21.4818 7.38194 21.3915 7.37212 21.2515 7.36568Z" fill="#3A3A3A"/>
<path d="M21.513 7.46377C21.4808 7.49694 21.5572 7.49281 21.5612 7.48866C21.5934 7.45549 21.517 7.45963 21.513 7.46377Z" fill="#ABABAB"/>
<path d="M21.6556 7.46377C21.6234 7.49694 21.6998 7.4928 21.7038 7.48865C21.736 7.45548 21.6596 7.45963 21.6556 7.46377Z" fill="#6D6D6D"/>
<path d="M21.7505 7.43922C21.8395 7.48958 21.8608 7.49429 21.9643 7.51276C21.8754 7.4624 21.854 7.4577 21.7505 7.43922Z" fill="#4B4B4B"/>
<path d="M22.012 7.53731C21.9798 7.57048 22.0562 7.56635 22.0602 7.5622C22.0924 7.52903 22.016 7.53317 22.012 7.53731Z" fill="#9B9B9B"/>
<path d="M22.1069 7.51276C22.233 7.57004 22.3233 7.57985 22.4633 7.5863C22.3372 7.52902 22.2469 7.5192 22.1069 7.51276Z" fill="#454545"/>
<path d="M22.5823 7.61085C22.5501 7.64402 22.6265 7.63988 22.6305 7.63573C22.6627 7.60256 22.5863 7.6067 22.5823 7.61085Z" fill="#6E6E6E"/>
<path d="M22.6772 7.5863C22.7662 7.63666 22.7876 7.64137 22.8911 7.65984C22.8021 7.60948 22.7807 7.60478 22.6772 7.5863Z" fill="#4D4D4D"/>
<path d="M22.9387 7.68438C22.9065 7.71755 22.9829 7.71341 22.9869 7.70927C23.0191 7.67609 22.9427 7.68024 22.9387 7.68438Z" fill="#969696"/>
<path d="M23.0813 7.68438C23.0491 7.71756 23.1255 7.71341 23.1295 7.70926C23.1617 7.67609 23.0853 7.68024 23.0813 7.68438Z" fill="#5C5C5C"/>
<path d="M23.1762 7.65984C23.2652 7.7102 23.2866 7.71491 23.3901 7.73338C23.3011 7.68302 23.2797 7.67832 23.1762 7.65984Z" fill="#434343"/>
<path d="M23.3664 7.75793C23.3342 7.7911 23.4106 7.78697 23.4146 7.78282C23.4468 7.74964 23.3704 7.7538 23.3664 7.75793Z" fill="#9E9E9E"/>
<path d="M23.509 7.75793C23.4768 7.79109 23.5532 7.78697 23.5572 7.78282C23.5894 7.74964 23.513 7.7538 23.509 7.75793Z" fill="#5C5C5C"/>
<path d="M23.6039 7.73338C23.6929 7.78374 23.7143 7.78844 23.8178 7.80691C23.7288 7.75656 23.7074 7.75185 23.6039 7.73338Z" fill="#434343"/>
<path d="M23.7942 7.83146C23.762 7.86463 23.8384 7.8605 23.8423 7.85635C23.8745 7.82317 23.7981 7.82733 23.7942 7.83146Z" fill="#9E9E9E"/>
<path d="M23.9367 7.83147C23.9045 7.86464 23.9809 7.8605 23.9849 7.85635C24.0171 7.82318 23.9407 7.82732 23.9367 7.83147Z" fill="#5D5D5D"/>
<path d="M24.0316 7.80692C24.1206 7.85728 24.142 7.86199 24.2455 7.88046C24.1565 7.8301 24.1351 7.8254 24.0316 7.80692Z" fill="#434343"/>
<path d="M26.6692 7.80692V8.02754C26.7188 7.91328 26.7188 7.92118 26.6692 7.80692Z" fill="#ABABAB"/>
<path d="M24.2219 7.90501C24.1897 7.93818 24.2661 7.93405 24.2701 7.9299C24.3023 7.89672 24.2258 7.90087 24.2219 7.90501Z" fill="#9F9F9F"/>
<path d="M24.3644 7.90501C24.3322 7.93818 24.4086 7.93405 24.4126 7.9299C24.4448 7.89672 24.3684 7.90087 24.3644 7.90501Z" fill="#5D5D5D"/>
<path d="M24.4593 7.88046C24.5483 7.93081 24.5697 7.93552 24.6732 7.95399C24.5842 7.90363 24.5628 7.89893 24.4593 7.88046Z" fill="#404040"/>
<path d="M24.6732 7.95399C24.7622 8.00435 24.7835 8.00906 24.8871 8.02753C24.7981 7.97717 24.7767 7.97247 24.6732 7.95399Z" fill="#686868"/>
<path d="M24.8871 7.95399C24.976 8.00435 24.9974 8.00906 25.1009 8.02753C25.0119 7.97717 24.9906 7.97247 24.8871 7.95399Z" fill="#3D3D3D"/>
<path d="M25.1486 8.05208C25.1164 8.08525 25.1928 8.08111 25.1968 8.07696C25.229 8.04378 25.1526 8.04794 25.1486 8.05208Z" fill="#5C5C5C"/>
<path d="M25.2911 8.05208C25.2589 8.08525 25.3354 8.08111 25.3393 8.07696C25.3715 8.04378 25.2951 8.04794 25.2911 8.05208Z" fill="#414141"/>
<path d="M26.7405 8.02753V8.32168C26.7911 8.19228 26.7911 8.15693 26.7405 8.02753Z" fill="#B6B6B6"/>
<path d="M25.4573 8.10108C25.5463 8.15144 25.5677 8.15615 25.6712 8.17462C25.5822 8.12426 25.5608 8.11955 25.4573 8.10108Z" fill="#5B5B5B"/>
<path d="M25.7901 8.19915C25.7579 8.23233 25.8344 8.22818 25.8383 8.22404C25.8705 8.19086 25.7941 8.19502 25.7901 8.19915Z" fill="#636363"/>
<path d="M25.8851 8.17461C25.974 8.22497 25.9954 8.22968 26.0989 8.24815C26.01 8.19779 25.9886 8.19309 25.8851 8.17461Z" fill="#3E3E3E"/>
<path d="M26.0989 8.24815C26.1879 8.29851 26.2093 8.30321 26.3128 8.32169C26.2238 8.27133 26.2024 8.26662 26.0989 8.24815Z" fill="#4E4E4E"/>
<path d="M26.3841 8.3217C26.473 8.37206 26.4945 8.37677 26.5979 8.39524C26.5089 8.34488 26.4876 8.34017 26.3841 8.3217Z" fill="#545454"/>
<path d="M26.7405 8.3217L26.6692 8.46878H26.8118C26.8118 8.3325 26.8331 8.36949 26.7405 8.3217Z" fill="#757575"/>
<path d="M26.8355 8.37084C26.8316 8.37499 26.8275 8.45378 26.8597 8.4206C26.8637 8.41646 26.8677 8.33766 26.8355 8.37084Z" fill="#CCCCCC"/>
<path d="M34.7008 14.0823C34.6686 14.1155 34.745 14.1113 34.749 14.1072C34.7812 14.074 34.7048 14.0782 34.7008 14.0823Z" fill="#CFCFCF"/>
<path d="M34.7008 14.1558C34.6686 14.189 34.745 14.1849 34.749 14.1808C34.7812 14.1475 34.7048 14.1517 34.7008 14.1558Z" fill="#515151"/>
<path d="M34.5819 14.2048V14.4254C34.6315 14.3112 34.6315 14.3191 34.5819 14.2048Z" fill="#3C3C3C"/>
<path d="M34.6532 14.2048C34.7082 14.851 35.0899 15.4481 35.323 16.0433C35.712 17.0371 36.0383 18.0848 36.2625 19.132C37.1424 23.2418 36.7165 27.6499 35.2811 31.5601C34.8392 32.7636 34.4786 34.3495 33.5126 35.2371C33.6612 34.0991 33.9997 33.0114 34.0766 31.8543C34.257 29.1351 34.0195 26.3023 33.6131 23.6179C33.4913 22.8132 33.3062 22.0013 33.2328 21.1911C33.1975 20.8001 33.2107 20.2545 32.871 20.0144C32.8258 21.0838 32.4125 22.1702 32.0869 23.1766C31.1973 25.9272 29.9691 28.5915 27.8811 30.5975C26.9173 31.5233 25.8 32.332 24.6732 33.0309C24.2257 33.3084 23.4327 33.5649 23.2784 34.134C22.7213 36.1879 23.5817 38.5084 25.5286 39.3219C26.4444 39.7046 27.2862 39.6345 28.2375 39.6534C28.5976 39.6605 28.9429 39.7421 29.3068 39.7164C30.4091 39.6385 31.2624 39.1568 32.0092 38.3257C32.4352 37.8516 32.7339 37.297 32.9834 36.7078C33.0573 36.5332 33.1584 36.1347 33.3747 36.0924C33.5398 36.0602 33.5747 36.3014 33.6011 36.4141C33.7079 36.8688 33.8995 37.1396 34.2968 37.3787C35.8156 38.2934 37.9392 38.0717 39.1311 36.7067C40.3858 35.2697 40.6464 33.1075 40.7899 31.2659C40.9474 29.2436 41.0212 27.0183 40.6687 25.0151C40.2679 22.7378 39.3216 20.5893 38.1747 18.6172C37.4948 17.4482 36.7369 16.3417 35.8743 15.3079C35.5345 14.9006 35.1725 14.3552 34.6532 14.2048Z" fill="#151515"/>
<path d="M34.5344 14.3275C34.5304 14.3316 34.5264 14.4105 34.5586 14.3773C34.5625 14.3731 34.5666 14.2943 34.5344 14.3275Z" fill="#DEDEDE"/>
<path d="M23.2475 15.3079C23.6723 15.4918 24.2857 15.3815 24.7445 15.3815C24.3197 15.1976 23.7063 15.3079 23.2475 15.3079Z" fill="#ABABAB"/>
<path d="M35.0334 15.3571C35.0294 15.3612 35.0253 15.44 35.0575 15.4068C35.0615 15.4027 35.0656 15.3239 35.0334 15.3571Z" fill="#676767"/>
<path d="M22.9623 15.3815C23.0513 15.4318 23.0727 15.4365 23.1762 15.455C23.0872 15.4046 23.0659 15.3999 22.9623 15.3815Z" fill="#C3C3C3"/>
<path d="M23.2239 15.406C23.1917 15.4392 23.2681 15.435 23.2721 15.4309C23.3042 15.3977 23.2278 15.4019 23.2239 15.406Z" fill="#717171"/>
<path d="M23.3664 15.406C23.3342 15.4392 23.4106 15.435 23.4146 15.4309C23.4468 15.3977 23.3704 15.4019 23.3664 15.406Z" fill="#3A3A3A"/>
<path d="M28.3088 22.956C28.674 22.0646 28.665 20.946 28.4833 20.0144C28.032 17.7001 26.6347 15.3815 24.1029 15.3815C23.7424 15.3815 23.3851 15.4008 23.0336 15.4929C21.3911 15.9232 20.8013 18.1862 22.3208 19.16C23.3669 19.8304 24.5985 20.0178 25.6712 20.6257C26.3275 20.9975 26.8653 21.5191 27.3793 22.0735C27.6773 22.3951 27.9102 22.7641 28.3088 22.956Z" fill="#151515"/>
<path d="M24.8158 15.3815C24.9047 15.4318 24.9261 15.4365 25.0296 15.455C24.9407 15.4046 24.9193 15.3999 24.8158 15.3815Z" fill="#AAAAAA"/>
<path d="M25.0773 15.406C25.0451 15.4392 25.1215 15.435 25.1255 15.4309C25.1577 15.3977 25.0813 15.4019 25.0773 15.406Z" fill="#DCDCDC"/>
<path d="M22.8674 15.4795C22.8352 15.5127 22.9116 15.5086 22.9156 15.5045C22.9478 15.4712 22.8714 15.4754 22.8674 15.4795Z" fill="#A7A7A7"/>
<path d="M25.0773 15.4795C25.0451 15.5127 25.1215 15.5086 25.1255 15.5045C25.1577 15.4712 25.0813 15.4754 25.0773 15.4795Z" fill="#6D6D6D"/>
<path d="M25.2199 15.4795C25.1877 15.5127 25.2641 15.5086 25.2681 15.5045C25.3002 15.4712 25.2238 15.4754 25.2199 15.4795Z" fill="#B9B9B9"/>
<path d="M22.6536 15.5531C22.6214 15.5863 22.6978 15.5821 22.7018 15.578C22.734 15.5448 22.6576 15.549 22.6536 15.5531Z" fill="#B4B4B4"/>
<path d="M25.4337 15.5531C25.4015 15.5863 25.4779 15.5821 25.4819 15.578C25.5141 15.5448 25.4377 15.549 25.4337 15.5531Z" fill="#C1C1C1"/>
<path d="M25.6476 15.6266C25.6154 15.6598 25.6918 15.6556 25.6958 15.6515C25.728 15.6183 25.6516 15.6225 25.6476 15.6266Z" fill="#CBCBCB"/>
<path d="M35.176 15.7248C35.172 15.7289 35.1679 15.8077 35.2001 15.7745C35.2041 15.7704 35.2082 15.6916 35.176 15.7248Z" fill="#707070"/>
<path d="M35.2472 15.8719C35.2433 15.876 35.2392 15.9548 35.2714 15.9216C35.2754 15.9175 35.2794 15.8386 35.2472 15.8719Z" fill="#606060"/>
<path d="M5.47376 15.9208C5.44156 15.954 5.51797 15.9498 5.52194 15.9457C5.55414 15.9125 5.47774 15.9167 5.47376 15.9208Z" fill="#B3B3B3"/>
<path d="M5.4261 15.9698C3.71707 16.9998 1.00274 18.4526 1.64257 20.9705C1.74025 21.3548 1.91122 21.7331 2.10796 22.0735C2.41704 22.6083 2.85403 23.0404 3.28753 23.4679C3.81591 23.9889 4.42488 24.4404 5.06967 24.7945C5.0681 24.2139 4.90685 23.6732 4.86244 23.1031C4.76179 21.8112 4.82003 20.4185 4.93922 19.132C5.00836 18.3855 5.18173 17.6597 5.31375 16.9258C5.36843 16.6216 5.5142 16.2691 5.4261 15.9698Z" fill="#151515"/>
<path d="M5.49738 15.9698V16.1904C5.54699 16.0761 5.54699 16.0841 5.49738 15.9698Z" fill="#5E5E5E"/>
<path d="M35.3185 16.0925C35.3145 16.0966 35.3105 16.1754 35.3427 16.1422C35.3467 16.1381 35.3507 16.0593 35.3185 16.0925Z" fill="#737373"/>
<path d="M5.4261 16.1904V16.4845C5.47671 16.3552 5.47671 16.3197 5.4261 16.1904Z" fill="#404040"/>
<path d="M35.366 16.1904V16.411C35.4156 16.2967 35.4156 16.3047 35.366 16.1904Z" fill="#565656"/>
<path d="M35.4611 16.4602C35.4571 16.4643 35.4531 16.5431 35.4853 16.5099C35.4892 16.5058 35.4933 16.427 35.4611 16.4602Z" fill="#5E5E5E"/>
<path d="M5.35481 16.4846V16.7052C5.40442 16.5909 5.40442 16.5988 5.35481 16.4846Z" fill="#343434"/>
<path d="M21.4653 16.6316V16.8522C21.515 16.738 21.515 16.7459 21.4653 16.6316Z" fill="#989898"/>
<path d="M35.5324 16.6808C35.5284 16.6849 35.5243 16.7637 35.5565 16.7305C35.5605 16.7264 35.5646 16.6476 35.5324 16.6808Z" fill="#656565"/>
<path d="M5.37859 16.7543C5.37461 16.7584 5.37056 16.8373 5.40276 16.804C5.40673 16.7999 5.41079 16.7211 5.37859 16.7543Z" fill="#757575"/>
<path d="M5.28352 16.8522V17.0729C5.33314 16.9586 5.33314 16.9665 5.28352 16.8522Z" fill="#404040"/>
<path d="M21.4891 16.9014C21.4851 16.9055 21.4811 16.9843 21.5133 16.9511C21.5173 16.947 21.5213 16.8682 21.4891 16.9014Z" fill="#3C3C3C"/>
<path d="M35.6037 16.9014C35.5997 16.9055 35.5956 16.9843 35.6278 16.9511C35.6318 16.947 35.6359 16.8682 35.6037 16.9014Z" fill="#6D6D6D"/>
<path d="M21.3941 16.9258V18.2495C21.5332 17.9075 21.5332 17.2678 21.3941 16.9258Z" fill="#8F8F8F"/>
<path d="M35.6512 16.9993V17.2199C35.7008 17.1057 35.7008 17.1136 35.6512 16.9993Z" fill="#4D4D4D"/>
<path d="M5.3073 17.122C5.30332 17.1261 5.29927 17.205 5.33147 17.1717C5.33545 17.1676 5.3395 17.0888 5.3073 17.122Z" fill="#969696"/>
<path d="M35.7225 17.2199V17.4406C35.7721 17.3263 35.7721 17.3342 35.7225 17.2199Z" fill="#494949"/>
<path d="M5.23601 17.3427C5.23203 17.3468 5.22798 17.4256 5.26018 17.3924C5.26416 17.3883 5.26821 17.3094 5.23601 17.3427Z" fill="#606060"/>
<path d="M5.14095 17.4406V17.8083C5.20012 17.659 5.20012 17.5899 5.14095 17.4406Z" fill="#494949"/>
<path d="M35.8175 17.5633C35.8135 17.5674 35.8095 17.6462 35.8417 17.613C35.8457 17.6089 35.8497 17.5301 35.8175 17.5633Z" fill="#5E5E5E"/>
<path d="M35.865 17.7347V17.9553C35.9146 17.8411 35.9146 17.849 35.865 17.7347Z" fill="#595959"/>
<path d="M5.16473 17.8574C5.16075 17.8615 5.1567 17.9404 5.18889 17.9071C5.19287 17.903 5.19692 17.8242 5.16473 17.8574Z" fill="#959595"/>
<path d="M5.06967 17.9553V18.176C5.11928 18.0617 5.11928 18.0696 5.06967 17.9553Z" fill="#404040"/>
<path d="M35.9363 17.9553V18.176C35.9859 18.0617 35.9859 18.0696 35.9363 17.9553Z" fill="#4B4B4B"/>
<path d="M5.06967 18.1759V18.3966C5.11928 18.2823 5.11928 18.2902 5.06967 18.1759Z" fill="#707070"/>
<path d="M36.0076 18.2495V18.4701C36.0572 18.3558 36.0572 18.3638 36.0076 18.2495Z" fill="#4F4F4F"/>
<path d="M4.99838 18.3966V18.6907C5.049 18.5614 5.049 18.526 4.99838 18.3966Z" fill="#3D3D3D"/>
<path d="M28.0949 18.4701V18.6907C28.1445 18.5764 28.1445 18.5844 28.0949 18.4701Z" fill="#AEAEAE"/>
<path d="M36.0789 18.4701V18.6907C36.1285 18.5764 36.1285 18.5844 36.0789 18.4701Z" fill="#404040"/>
<path d="M4.99838 18.6907V18.9114C5.048 18.7971 5.048 18.805 4.99838 18.6907Z" fill="#747474"/>
<path d="M28.1662 18.6907V18.9114C28.2158 18.7971 28.2158 18.805 28.1662 18.6907Z" fill="#A9A9A9"/>
<path d="M36.1739 18.8134C36.17 18.8175 36.1659 18.8964 36.1981 18.8631C36.2021 18.859 36.2061 18.7802 36.1739 18.8134Z" fill="#404040"/>
<path d="M4.92709 18.9113V19.5732C5.01663 19.353 5.01663 19.1315 4.92709 18.9113Z" fill="#404040"/>
<path d="M5.02216 18.9605C5.01818 18.9646 5.01413 19.0434 5.04633 19.0102C5.05031 19.0061 5.05436 18.9273 5.02216 18.9605Z" fill="#BFBFBF"/>
<path d="M28.2375 18.9113V19.132C28.2871 19.0177 28.2871 19.0256 28.2375 18.9113Z" fill="#ACACAC"/>
<path d="M36.1502 18.9113V19.132C36.1998 19.0177 36.1998 19.0256 36.1502 18.9113Z" fill="#5F5F5F"/>
<path d="M36.2452 19.1076C36.2413 19.1117 36.2372 19.1905 36.2694 19.1573C36.2734 19.1532 36.2774 19.0744 36.2452 19.1076Z" fill="#323232"/>
<path d="M28.3088 19.132V19.3526C28.3584 19.2383 28.3584 19.2462 28.3088 19.132Z" fill="#B1B1B1"/>
<path d="M1.67176 19.2547C1.66774 19.2588 1.66372 19.3376 1.69588 19.3044C1.6999 19.3003 1.70392 19.2215 1.67176 19.2547Z" fill="#E7E7E7"/>
<path d="M36.2215 19.2055V19.4261C36.2711 19.3119 36.2711 19.3198 36.2215 19.2055Z" fill="#535353"/>
<path d="M28.38 19.3526V19.5732C28.4297 19.4589 28.4297 19.4669 28.38 19.3526Z" fill="#B7B7B7"/>
<path d="M1.60047 19.4753C1.59645 19.4794 1.59244 19.5582 1.62459 19.525C1.62861 19.5209 1.63263 19.4421 1.60047 19.4753Z" fill="#DBDBDB"/>
<path d="M36.3165 19.4753C36.3125 19.4794 36.3085 19.5582 36.3407 19.525C36.3447 19.5209 36.3487 19.4421 36.3165 19.4753Z" fill="#373737"/>
<path d="M4.92709 19.5732V19.7938C4.97671 19.6795 4.97671 19.6875 4.92709 19.5732Z" fill="#6E6E6E"/>
<path d="M36.2927 19.5732V19.7938C36.3424 19.6795 36.3424 19.6875 36.2927 19.5732Z" fill="#565656"/>
<path d="M1.50539 19.6467V19.8674C1.55501 19.7531 1.55501 19.761 1.50539 19.6467Z" fill="#E7E7E7"/>
<path d="M28.4513 19.6467V19.8674C28.5009 19.7531 28.5009 19.761 28.4513 19.6467Z" fill="#B3B3B3"/>
<path d="M23.4377 19.7448C23.4055 19.778 23.4819 19.7738 23.4859 19.7697C23.5181 19.7365 23.4417 19.7407 23.4377 19.7448Z" fill="#727272"/>
<path d="M4.92709 19.7938V20.0144C4.97671 19.9002 4.97671 19.9081 4.92709 19.7938Z" fill="#8A8A8A"/>
<path d="M23.6516 19.8183C23.6194 19.8516 23.6958 19.8474 23.6998 19.8433C23.732 19.8101 23.6556 19.8142 23.6516 19.8183Z" fill="#6A6A6A"/>
<path d="M36.3165 19.843C36.3125 19.8471 36.3085 19.9259 36.3407 19.8927C36.3447 19.8886 36.3487 19.8098 36.3165 19.843Z" fill="#A6A6A6"/>
<path d="M36.3878 19.843C36.3838 19.8471 36.3798 19.9259 36.412 19.8927C36.416 19.8886 36.42 19.8098 36.3878 19.843Z" fill="#313131"/>
<path d="M23.8654 19.8919C23.8332 19.9251 23.9096 19.9209 23.9136 19.9168C23.9458 19.8836 23.8694 19.8878 23.8654 19.8919Z" fill="#5E5E5E"/>
<path d="M32.871 19.8674V20.0144H33.0136C32.9748 19.8942 32.9876 19.9074 32.871 19.8674Z" fill="#414141"/>
<path d="M1.4341 19.9409V20.6028C1.52364 20.3826 1.52364 20.1611 1.4341 19.9409Z" fill="#ECECEC"/>
<path d="M1.50539 19.9409V20.4557C1.58091 20.2693 1.58091 20.1273 1.50539 19.9409Z" fill="#5E5E5E"/>
<path d="M23.9603 19.9409C24.0493 19.9913 24.0707 19.996 24.1742 20.0144C24.0852 19.9641 24.0638 19.9594 23.9603 19.9409Z" fill="#808080"/>
<path d="M28.4751 19.9901C28.4711 19.9942 28.4671 20.073 28.4993 20.0398C28.5033 20.0357 28.5073 19.9569 28.4751 19.9901Z" fill="#2E2E2E"/>
<path d="M28.5226 19.9409V20.2351C28.5732 20.1056 28.5732 20.0703 28.5226 19.9409Z" fill="#B4B4B4"/>
<path d="M32.8235 19.9901C32.8196 19.9942 32.8155 20.073 32.8477 20.0398C32.8517 20.0357 32.8557 19.9569 32.8235 19.9901Z" fill="#9A9A9A"/>
<path d="M36.364 19.9409V20.2351C36.4146 20.1056 36.4146 20.0703 36.364 19.9409Z" fill="#4C4C4C"/>
<path d="M4.92709 20.0144V21.5588C5.08057 21.1814 5.08057 20.3918 4.92709 20.0144Z" fill="#B6B6B6"/>
<path d="M24.1742 20.0144C24.2632 20.0648 24.2846 20.0695 24.3881 20.088C24.2991 20.0376 24.2777 20.0329 24.1742 20.0144Z" fill="#818181"/>
<path d="M4.85581 20.088V21.5588C5.00458 21.193 5.00458 20.4537 4.85581 20.088Z" fill="#2E2E2E"/>
<path d="M24.3881 20.088C24.477 20.1383 24.4984 20.1431 24.6019 20.1615C24.513 20.1111 24.4916 20.1064 24.3881 20.088Z" fill="#828282"/>
<path d="M32.7997 20.088V20.3086C32.8494 20.1943 32.8494 20.2023 32.7997 20.088Z" fill="#696969"/>
<path d="M33.0849 20.088V20.3086C33.1345 20.1943 33.1345 20.2023 33.0849 20.088Z" fill="#BFBFBF"/>
<path d="M24.6019 20.1615C24.6909 20.2119 24.7123 20.2166 24.8158 20.2351C24.7268 20.1847 24.7054 20.18 24.6019 20.1615Z" fill="#828282"/>
<path d="M24.8634 20.2596C24.8312 20.2928 24.9076 20.2886 24.9116 20.2845C24.9438 20.2513 24.8674 20.2555 24.8634 20.2596Z" fill="#7D7D7D"/>
<path d="M28.5464 20.2842C28.5424 20.2883 28.5384 20.3672 28.5706 20.3339C28.5745 20.3298 28.5786 20.251 28.5464 20.2842Z" fill="#535353"/>
<path d="M28.6177 20.2842C28.6137 20.2883 28.6096 20.3672 28.6418 20.3339C28.6458 20.3298 28.6499 20.251 28.6177 20.2842Z" fill="#CCCCCC"/>
<path d="M36.3878 20.2842C36.3838 20.2883 36.3798 20.3672 36.412 20.3339C36.416 20.3298 36.42 20.251 36.3878 20.2842Z" fill="#9F9F9F"/>
<path d="M36.4591 20.2842C36.4551 20.2883 36.4511 20.3672 36.4833 20.3339C36.4872 20.3298 36.4913 20.251 36.4591 20.2842Z" fill="#2E2E2E"/>
<path d="M32.8235 20.3578C32.8196 20.3619 32.8155 20.4407 32.8477 20.4075C32.8517 20.4034 32.8557 20.3245 32.8235 20.3578Z" fill="#3E3E3E"/>
<path d="M33.1562 20.3086V20.6763C33.2154 20.5269 33.2154 20.458 33.1562 20.3086Z" fill="#B9B9B9"/>
<path d="M28.5939 20.3821V20.7498C28.6531 20.6005 28.6531 20.5314 28.5939 20.3821Z" fill="#A4A4A4"/>
<path d="M32.7522 20.4313C32.7483 20.4354 32.7442 20.5142 32.7764 20.481C32.7804 20.4769 32.7844 20.3981 32.7522 20.4313Z" fill="#959595"/>
<path d="M36.4353 20.3821V20.6028C36.4849 20.4885 36.4849 20.4964 36.4353 20.3821Z" fill="#494949"/>
<path d="M1.52918 20.5049C1.52517 20.509 1.52115 20.5878 1.55331 20.5546C1.55733 20.5505 1.56135 20.4716 1.52918 20.5049Z" fill="#9A9A9A"/>
<path d="M32.7285 20.5292V20.7498C32.7781 20.6356 32.7781 20.6435 32.7285 20.5292Z" fill="#636363"/>
<path d="M1.50539 20.6028V20.8969C1.55601 20.7675 1.55601 20.7321 1.50539 20.6028Z" fill="#E5E5E5"/>
<path d="M36.4353 20.6028V20.8234C36.4849 20.7091 36.4849 20.717 36.4353 20.6028Z" fill="#6E6E6E"/>
<path d="M33.1799 20.7253C33.176 20.7294 33.172 20.807 33.2037 20.7743C33.2077 20.7703 33.2116 20.6926 33.1799 20.7253Z" fill="#515151"/>
<path d="M33.2275 20.6763V21.1911C33.303 21.0047 33.303 20.8626 33.2275 20.6763Z" fill="#C2C2C2"/>
<path d="M28.5939 20.7498V21.4852C28.6899 21.2494 28.6899 20.9857 28.5939 20.7498Z" fill="#4F4F4F"/>
<path d="M28.6652 20.7498V21.5588C28.7672 21.308 28.7672 21.0006 28.6652 20.7498Z" fill="#CACACA"/>
<path d="M32.6572 20.8234V21.044C32.7068 20.9297 32.7068 20.9377 32.6572 20.8234Z" fill="#6E6E6E"/>
<path d="M36.4353 20.8234V21.044C36.4849 20.9297 36.4849 20.9377 36.4353 20.8234Z" fill="#B0B0B0"/>
<path d="M36.5066 20.8969V21.3381C36.5744 21.1701 36.5744 21.0649 36.5066 20.8969Z" fill="#4E4E4E"/>
<path d="M32.681 21.0932C32.677 21.0973 32.6729 21.1761 32.7051 21.1429C32.7091 21.1388 32.7132 21.0599 32.681 21.0932Z" fill="#343434"/>
<path d="M32.6097 21.1667C32.6057 21.1708 32.6016 21.2496 32.6338 21.2164C32.6378 21.2123 32.6419 21.1335 32.6097 21.1667Z" fill="#7D7D7D"/>
<path d="M33.2512 21.2402C33.2473 21.2443 33.2432 21.3232 33.2754 21.29C33.2794 21.2858 33.2834 21.207 33.2512 21.2402Z" fill="#6A6A6A"/>
<path d="M33.2988 21.1911V21.7058C33.3743 21.5195 33.3743 21.3774 33.2988 21.1911Z" fill="#C8C8C8"/>
<path d="M32.6097 21.3138C32.6057 21.3179 32.6016 21.3967 32.6338 21.3635C32.6378 21.3594 32.6419 21.2806 32.6097 21.3138Z" fill="#515151"/>
<path d="M33.2512 21.3873C33.2473 21.3914 33.2432 21.4702 33.2754 21.437C33.2794 21.4329 33.2834 21.3541 33.2512 21.3873Z" fill="#373737"/>
<path d="M36.5304 21.3873C36.5264 21.3914 36.5224 21.4702 36.5546 21.437C36.5585 21.4329 36.5626 21.3541 36.5304 21.3873Z" fill="#787878"/>
<path d="M28.6177 21.5344C28.6137 21.5385 28.6096 21.6173 28.6418 21.5841C28.6458 21.58 28.6499 21.5012 28.6177 21.5344Z" fill="#919191"/>
<path d="M32.5146 21.4852V21.7058C32.5642 21.5916 32.5642 21.5995 32.5146 21.4852Z" fill="#636363"/>
<path d="M36.5066 21.4852V22.0735C36.5894 21.8698 36.5894 21.6889 36.5066 21.4852Z" fill="#ADADAD"/>
<path d="M4.85581 21.5588V23.3972C5.02782 22.9744 5.02782 21.9816 4.85581 21.5588Z" fill="#202020"/>
<path d="M4.92709 21.5588V22.3677C5.0291 22.1169 5.0291 21.8095 4.92709 21.5588Z" fill="#888888"/>
<path d="M36.5779 21.5588V22.5148C36.6913 22.236 36.6913 21.8375 36.5779 21.5588Z" fill="#3C3C3C"/>
<path d="M28.5939 21.6323V21.9265C28.6445 21.797 28.6445 21.7617 28.5939 21.6323Z" fill="#ABABAB"/>
<path d="M39.7382 21.6815C39.7342 21.6856 39.7302 21.7644 39.7624 21.7312C39.7664 21.7271 39.7704 21.6483 39.7382 21.6815Z" fill="#CFCFCF"/>
<path d="M32.4433 21.7058V21.9265C32.4929 21.8122 32.4929 21.8201 32.4433 21.7058Z" fill="#747474"/>
<path d="M33.37 21.7058V22.1471C33.4378 21.979 33.4378 21.8739 33.37 21.7058Z" fill="#BDBDBD"/>
<path d="M28.5226 21.7794V22C28.5722 21.8857 28.5722 21.8937 28.5226 21.7794Z" fill="#3B3B3B"/>
<path d="M33.3225 21.8286C33.3185 21.8327 33.3145 21.9115 33.3467 21.8783C33.3507 21.8742 33.3547 21.7953 33.3225 21.8286Z" fill="#313131"/>
<path d="M28.5226 22V22.2206C28.5722 22.1063 28.5722 22.1143 28.5226 22Z" fill="#A0A0A0"/>
<path d="M32.372 22V22.2206C32.4217 22.1063 32.4217 22.1143 32.372 22Z" fill="#6B6B6B"/>
<path d="M39.8808 22.0492C39.8768 22.0533 39.8728 22.1321 39.905 22.0989C39.9089 22.0948 39.913 22.016 39.8808 22.0492Z" fill="#D3D3D3"/>
<path d="M36.5066 22.0735V22.7354C36.5961 22.5152 36.5961 22.2937 36.5066 22.0735Z" fill="#DADADA"/>
<path d="M33.3938 22.1962C33.3898 22.2004 33.3858 22.2792 33.418 22.246C33.422 22.2419 33.426 22.163 33.3938 22.1962Z" fill="#464646"/>
<path d="M33.4413 22.1471V22.5148C33.5005 22.3655 33.5005 22.2964 33.4413 22.1471Z" fill="#BEBEBE"/>
<path d="M28.4751 22.2698C28.4711 22.2739 28.4671 22.3527 28.4993 22.3195C28.5033 22.3154 28.5073 22.2366 28.4751 22.2698Z" fill="#474747"/>
<path d="M28.5464 22.2698C28.5424 22.2739 28.5384 22.3527 28.5706 22.3195C28.5745 22.3154 28.5786 22.2366 28.5464 22.2698Z" fill="#C4C4C4"/>
<path d="M32.3245 22.3433C32.3206 22.3474 32.3165 22.4262 32.3487 22.393C32.3527 22.3889 32.3567 22.3101 32.3245 22.3433Z" fill="#555555"/>
<path d="M4.92709 22.3677V23.3237C5.04051 23.0449 5.04051 22.6465 4.92709 22.3677Z" fill="#737373"/>
<path d="M40.0234 22.4169C40.0194 22.421 40.0153 22.4998 40.0475 22.4666C40.0515 22.4625 40.0556 22.3837 40.0234 22.4169Z" fill="#DCDCDC"/>
<path d="M28.4513 22.4412V22.6619C28.5009 22.5476 28.5009 22.5555 28.4513 22.4412Z" fill="#AFAFAF"/>
<path d="M32.2532 22.5639C32.2493 22.568 32.2452 22.6469 32.2774 22.6137C32.2814 22.6095 32.2854 22.5307 32.2532 22.5639Z" fill="#5B5B5B"/>
<path d="M36.5779 22.5148V25.2357C36.792 24.7093 36.6492 23.8932 36.6492 23.3237C36.6492 23.0515 36.6806 22.7674 36.5779 22.5148Z" fill="#4F4F4F"/>
<path d="M33.4651 22.6375C33.4611 22.6416 33.4571 22.7204 33.4893 22.6872C33.4932 22.6831 33.4973 22.6043 33.4651 22.6375Z" fill="#3F3F3F"/>
<path d="M33.5126 22.5883V22.956C33.5718 22.8066 33.5718 22.7376 33.5126 22.5883Z" fill="#BCBCBC"/>
<path d="M40.0947 22.6375C40.0907 22.6416 40.0866 22.7204 40.1188 22.6872C40.1228 22.6831 40.1269 22.6043 40.0947 22.6375Z" fill="#DADADA"/>
<path d="M21.8218 22.6618C21.9479 22.7191 22.0382 22.7289 22.1782 22.7354C22.0521 22.6781 21.9618 22.6683 21.8218 22.6618Z" fill="#D7D7D7"/>
<path d="M21.4653 22.7354C21.5915 22.7927 21.6818 22.8025 21.8218 22.8089C21.6957 22.7516 21.6054 22.7419 21.4653 22.7354Z" fill="#878787"/>
<path d="M21.8218 22.7354C21.9479 22.7927 22.0382 22.8025 22.1782 22.8089C22.0521 22.7516 21.9618 22.7419 21.8218 22.7354Z" fill="#626262"/>
<path d="M22.1782 22.7354C22.2672 22.7858 22.2886 22.7905 22.3921 22.8089C22.3031 22.7586 22.2817 22.7538 22.1782 22.7354Z" fill="#8E8E8E"/>
<path d="M28.38 22.7354V22.956C28.4297 22.8417 28.4297 22.8497 28.38 22.7354Z" fill="#B1B1B1"/>
<path d="M32.182 22.7846C32.178 22.7887 32.1739 22.8675 32.2061 22.8343C32.2101 22.8302 32.2142 22.7513 32.182 22.7846Z" fill="#5E5E5E"/>
<path d="M21.4653 22.8558C21.2038 22.9334 20.9671 23.1004 20.7525 23.2677C20.0794 23.7928 19.0007 24.8345 19.2921 25.8237C19.5854 26.8192 21.2084 26.7671 21.9643 26.5128C22.941 26.1842 23.034 25.3297 23.0336 24.4268C23.0333 23.5759 22.8607 22.801 21.8931 22.8093C21.7489 22.8105 21.6049 22.8144 21.4653 22.8558Z" fill="#151515"/>
<path d="M40.1659 22.8581C40.162 22.8622 40.1579 22.941 40.1901 22.9078C40.1941 22.9037 40.1981 22.8249 40.1659 22.8581Z" fill="#DADADA"/>
<path d="M32.1107 23.0052C32.1067 23.0093 32.1026 23.0881 32.1348 23.0549C32.1388 23.0508 32.1429 22.972 32.1107 23.0052Z" fill="#5B5B5B"/>
<path d="M33.5364 23.0052C33.5324 23.0093 33.5284 23.0881 33.5606 23.0549C33.5645 23.0508 33.5686 22.972 33.5364 23.0052Z" fill="#6C6C6C"/>
<path d="M33.5839 22.956V23.5443C33.6667 23.3406 33.6667 23.1597 33.5839 22.956Z" fill="#BDBDBD"/>
<path d="M28.2851 23.0541C28.2529 23.0873 28.3293 23.0831 28.3333 23.079C28.3655 23.0458 28.2891 23.05 28.2851 23.0541Z" fill="#D5D5D5"/>
<path d="M40.2135 23.0296V23.2502C40.2631 23.1359 40.2631 23.1438 40.2135 23.0296Z" fill="#DCDCDC"/>
<path d="M33.5364 23.1523C33.5324 23.1564 33.5284 23.2352 33.5606 23.202C33.5645 23.1979 33.5686 23.119 33.5364 23.1523Z" fill="#383838"/>
<path d="M32.0394 23.2258C32.0354 23.2299 32.0314 23.3087 32.0636 23.2755C32.0675 23.2714 32.0716 23.1926 32.0394 23.2258Z" fill="#595959"/>
<path d="M40.2847 23.2502V23.4708C40.3343 23.3565 40.3343 23.3644 40.2847 23.2502Z" fill="#DEDEDE"/>
<path d="M4.92709 23.3237V23.6179C4.97771 23.4885 4.97771 23.4531 4.92709 23.3237Z" fill="#373737"/>
<path d="M22.9623 23.3972V23.6179C23.012 23.5036 23.012 23.5115 22.9623 23.3972Z" fill="#A0A0A0"/>
<path d="M31.9681 23.4464C31.9641 23.4505 31.9601 23.5293 31.9923 23.4961C31.9962 23.492 32.0003 23.4132 31.9681 23.4464Z" fill="#545454"/>
<path d="M40.356 23.4708V23.6914C40.4056 23.5771 40.4056 23.5851 40.356 23.4708Z" fill="#E2E2E2"/>
<path d="M33.6077 23.5935C33.6037 23.5976 33.5996 23.6764 33.6318 23.6432C33.6358 23.6391 33.6399 23.5603 33.6077 23.5935Z" fill="#595959"/>
<path d="M33.6552 23.5443V24.0591C33.7307 23.8727 33.7307 23.7307 33.6552 23.5443Z" fill="#C5C5C5"/>
<path d="M4.99838 23.6179V23.8385C5.048 23.7242 5.048 23.7321 4.99838 23.6179Z" fill="#8E8E8E"/>
<path d="M22.9861 23.667C22.9821 23.6711 22.9781 23.75 23.0103 23.7167C23.0143 23.7126 23.0183 23.6338 22.9861 23.667Z" fill="#474747"/>
<path d="M23.0574 23.667C23.0534 23.6711 23.0494 23.75 23.0816 23.7167C23.0856 23.7126 23.0896 23.6338 23.0574 23.667Z" fill="#BDBDBD"/>
<path d="M31.8968 23.667C31.8928 23.6711 31.8888 23.75 31.921 23.7167C31.925 23.7126 31.929 23.6338 31.8968 23.667Z" fill="#4B4B4B"/>
<path d="M23.0336 23.7649V24.2062C23.1014 24.0381 23.1014 23.933 23.0336 23.7649Z" fill="#8E8E8E"/>
<path d="M31.8255 23.8141C31.8216 23.8182 31.8175 23.897 31.8497 23.8638C31.8537 23.8597 31.8577 23.7809 31.8255 23.8141Z" fill="#616161"/>
<path d="M40.4273 23.7649V23.9856C40.4769 23.8713 40.4769 23.8792 40.4273 23.7649Z" fill="#DEDEDE"/>
<path d="M4.99838 23.8385V24.2062C5.05755 24.0569 5.05755 23.9878 4.99838 23.8385Z" fill="#383838"/>
<path d="M31.7542 24.0347C31.7503 24.0388 31.7462 24.1177 31.7784 24.0844C31.7824 24.0803 31.7864 24.0015 31.7542 24.0347Z" fill="#555555"/>
<path d="M5.09344 24.1083C5.08946 24.1124 5.08541 24.1912 5.11761 24.158C5.12159 24.1539 5.12564 24.0751 5.09344 24.1083Z" fill="#BDBDBD"/>
<path d="M33.679 24.1083C33.675 24.1124 33.6709 24.1912 33.7031 24.158C33.7071 24.1539 33.7112 24.0751 33.679 24.1083Z" fill="#696969"/>
<path d="M33.7265 24.0591V24.6474C33.8092 24.4437 33.8092 24.2628 33.7265 24.0591Z" fill="#BEBEBE"/>
<path d="M40.4986 24.0591V24.2797C40.5482 24.1654 40.5482 24.1734 40.4986 24.0591Z" fill="#DDDDDD"/>
<path d="M5.09344 24.2554C5.08946 24.2595 5.08541 24.3383 5.11761 24.3051C5.12159 24.301 5.12564 24.2221 5.09344 24.2554Z" fill="#747474"/>
<path d="M13.5527 24.2062C13.6416 24.2566 13.663 24.2613 13.7665 24.2797C13.6775 24.2293 13.6562 24.2246 13.5527 24.2062Z" fill="#9F9F9F"/>
<path d="M13.7665 24.2062C14.03 24.3203 14.338 24.2797 14.6219 24.2797C14.3584 24.1656 14.0504 24.2062 13.7665 24.2062Z" fill="#848484"/>
<path d="M14.6219 24.2062C14.7109 24.2566 14.7323 24.2613 14.8358 24.2797C14.7468 24.2293 14.7254 24.2246 14.6219 24.2062Z" fill="#BCBCBC"/>
<path d="M23.0336 24.2062V25.1622C23.147 24.8834 23.147 24.485 23.0336 24.2062Z" fill="#727272"/>
<path d="M23.1049 24.2062V25.1622C23.2183 24.8834 23.2183 24.485 23.1049 24.2062Z" fill="#E0E0E0"/>
<path d="M31.683 24.2554C31.679 24.2595 31.6749 24.3383 31.7071 24.3051C31.7111 24.301 31.7152 24.2221 31.683 24.2554Z" fill="#494949"/>
<path d="M33.679 24.2554C33.675 24.2595 33.6709 24.3383 33.7031 24.3051C33.7071 24.301 33.7112 24.2221 33.679 24.2554Z" fill="#383838"/>
<path d="M13.3388 24.2797C13.4278 24.3301 13.4491 24.3348 13.5526 24.3532C13.4637 24.3029 13.4423 24.2982 13.3388 24.2797Z" fill="#898989"/>
<path d="M13.5527 24.2797C13.6416 24.3301 13.663 24.3348 13.7665 24.3532C13.6775 24.3029 13.6562 24.2982 13.5527 24.2797Z" fill="#2E2E2E"/>
<path d="M17.4021 32.5897C16.9425 31.4569 16.1963 30.4667 16.0595 29.2068C15.9742 28.4206 15.9764 27.6444 15.9764 26.8536C15.9764 26.1228 15.9914 25.3999 15.4999 24.8073C14.9805 24.181 13.799 24.087 13.1249 24.5112C12.5244 24.8892 12.0927 25.5869 11.8789 26.2653C10.9878 29.0927 13.4362 31.8071 15.9764 32.481C16.4478 32.606 16.9196 32.5897 17.4021 32.5897Z" fill="#151515"/>
<path d="M14.6219 24.2797C14.7109 24.3301 14.7323 24.3348 14.8358 24.3532C14.7468 24.3029 14.7254 24.2982 14.6219 24.2797Z" fill="#484848"/>
<path d="M14.8835 24.3042C14.8513 24.3375 14.9277 24.3333 14.9316 24.3292C14.9638 24.296 14.8874 24.3001 14.8835 24.3042Z" fill="#B2B2B2"/>
<path d="M5.06967 24.3533V24.7945C5.13746 24.6265 5.13746 24.5213 5.06967 24.3533Z" fill="#494949"/>
<path d="M13.2439 24.3778C13.2117 24.411 13.2881 24.4068 13.2921 24.4027C13.3243 24.3695 13.2479 24.3737 13.2439 24.3778Z" fill="#6B6B6B"/>
<path d="M40.5699 24.3533V24.5739C40.6195 24.4596 40.6195 24.4675 40.5699 24.3533Z" fill="#DEDEDE"/>
<path d="M31.6117 24.476C31.6077 24.4801 31.6036 24.5589 31.6358 24.5257C31.6398 24.5216 31.6439 24.4427 31.6117 24.476Z" fill="#343434"/>
<path d="M31.5404 24.623C31.5364 24.6272 31.5324 24.706 31.5646 24.6728C31.5685 24.6687 31.5726 24.5898 31.5404 24.623Z" fill="#444444"/>
<path d="M33.7502 24.6966C33.7463 24.7007 33.7422 24.7795 33.7744 24.7463C33.7784 24.7422 33.7824 24.6634 33.7502 24.6966Z" fill="#626262"/>
<path d="M33.7977 24.6474V25.1622C33.8732 24.9758 33.8732 24.8338 33.7977 24.6474Z" fill="#C8C8C8"/>
<path d="M40.6412 24.6474V25.0151C40.7003 24.8658 40.7003 24.7967 40.6412 24.6474Z" fill="#DADADA"/>
<path d="M5.04604 24.819C5.01385 24.8522 5.09025 24.8481 5.09423 24.8439C5.12643 24.8107 5.05002 24.8149 5.04604 24.819Z" fill="#9B9B9B"/>
<path d="M31.4691 24.8437C31.4651 24.8478 31.4611 24.9266 31.4933 24.8934C31.4973 24.8893 31.5013 24.8104 31.4691 24.8437Z" fill="#303030"/>
<path d="M33.7502 24.8437C33.7463 24.8478 33.7422 24.9266 33.7744 24.8934C33.7784 24.8893 33.7824 24.8104 33.7502 24.8437Z" fill="#333333"/>
<path d="M31.3978 24.9907C31.3938 24.9948 31.3898 25.0737 31.422 25.0405C31.426 25.0364 31.43 24.9575 31.3978 24.9907Z" fill="#404040"/>
<path d="M36.5066 25.0151V25.2357C36.5562 25.1214 36.5562 25.1294 36.5066 25.0151Z" fill="#D9D9D9"/>
<path d="M40.7125 25.0151V25.3828C40.7716 25.2335 40.7716 25.1644 40.7125 25.0151Z" fill="#DBDBDB"/>
<path d="M19.1842 25.0886V25.3093C19.2338 25.195 19.2338 25.2029 19.1842 25.0886Z" fill="#9A9A9A"/>
<path d="M31.3265 25.1378C31.3226 25.1419 31.3185 25.2208 31.3507 25.1875C31.3547 25.1834 31.3587 25.1046 31.3265 25.1378Z" fill="#505050"/>
<path d="M23.0336 25.1622V25.4563C23.0842 25.3269 23.0842 25.2915 23.0336 25.1622Z" fill="#8E8E8E"/>
<path d="M33.8215 25.2114C33.8175 25.2155 33.8135 25.2943 33.8457 25.2611C33.8497 25.257 33.8537 25.1781 33.8215 25.2114Z" fill="#6B6B6B"/>
<path d="M15.7862 25.2848C15.7823 25.2888 15.7783 25.3665 15.81 25.3338C15.814 25.3297 15.818 25.2521 15.7862 25.2848Z" fill="#4E4E4E"/>
<path d="M33.869 25.2357V25.677C33.9368 25.5089 33.9368 25.4038 33.869 25.2357Z" fill="#C2C2C2"/>
<path d="M36.5066 25.2357V25.4563C36.5562 25.3421 36.5562 25.35 36.5066 25.2357Z" fill="#B4B4B4"/>
<path d="M36.5779 25.2357V25.824C36.6606 25.6203 36.6606 25.4394 36.5779 25.2357Z" fill="#2C2C2C"/>
<path d="M19.1129 25.3093V25.7505C19.1807 25.5825 19.1807 25.4773 19.1129 25.3093Z" fill="#A6A6A6"/>
<path d="M19.1842 25.3093V25.7505C19.252 25.5825 19.252 25.4773 19.1842 25.3093Z" fill="#272727"/>
<path d="M31.2552 25.3584C31.2513 25.3625 31.2472 25.4414 31.2794 25.4081C31.2834 25.404 31.2874 25.3252 31.2552 25.3584Z" fill="#3B3B3B"/>
<path d="M33.8215 25.3584C33.8175 25.3625 33.8135 25.4414 33.8457 25.4081C33.8497 25.404 33.8537 25.3252 33.8215 25.3584Z" fill="#343434"/>
<path d="M15.8576 25.432C15.8536 25.4361 15.8495 25.5149 15.8817 25.4817C15.8857 25.4776 15.8898 25.3988 15.8576 25.432Z" fill="#616161"/>
<path d="M40.7837 25.3828V25.8976C40.8593 25.7112 40.8593 25.5692 40.7837 25.3828Z" fill="#DEDEDE"/>
<path d="M31.184 25.5055C31.18 25.5096 31.1759 25.5884 31.2081 25.5552C31.2121 25.5511 31.2162 25.4723 31.184 25.5055Z" fill="#4A4A4A"/>
<path d="M36.5066 25.4563V25.677C36.5562 25.5627 36.5562 25.5706 36.5066 25.4563Z" fill="#959595"/>
<path d="M40.7362 25.5055C40.7323 25.5096 40.7282 25.5884 40.7604 25.5552C40.7644 25.5511 40.7684 25.4723 40.7362 25.5055Z" fill="#474747"/>
<path d="M22.9861 25.5791C22.9821 25.5832 22.9781 25.662 23.0103 25.6288C23.0143 25.6247 23.0183 25.5458 22.9861 25.5791Z" fill="#ACACAC"/>
<path d="M15.9288 25.6526C15.9249 25.6567 15.9208 25.7355 15.953 25.7023C15.957 25.6982 15.961 25.6194 15.9288 25.6526Z" fill="#606060"/>
<path d="M31.1127 25.6526C31.1087 25.6567 31.1046 25.7355 31.1368 25.7023C31.1408 25.6982 31.1449 25.6194 31.1127 25.6526Z" fill="#5D5D5D"/>
<path d="M33.8928 25.7261C33.8888 25.7302 33.8848 25.8091 33.917 25.7758C33.921 25.7717 33.925 25.6929 33.8928 25.7261Z" fill="#6A6A6A"/>
<path d="M33.9403 25.677V26.2653C34.0231 26.0616 34.0231 25.8807 33.9403 25.677Z" fill="#BFBFBF"/>
<path d="M36.5066 25.677V25.9711C36.5572 25.8418 36.5572 25.8063 36.5066 25.677Z" fill="#646464"/>
<path d="M16.0001 25.7997C15.9962 25.8038 15.9921 25.8826 16.0243 25.8494C16.0283 25.8453 16.0323 25.7665 16.0001 25.7997Z" fill="#8D8D8D"/>
<path d="M31.0414 25.8732C31.0374 25.8773 31.0334 25.9561 31.0656 25.9229C31.0695 25.9188 31.0736 25.84 31.0414 25.8732Z" fill="#454545"/>
<path d="M33.8928 25.8732C33.8888 25.8773 33.8848 25.9561 33.917 25.9229C33.921 25.9188 33.925 25.84 33.8928 25.8732Z" fill="#333333"/>
<path d="M11.9369 25.9468C11.9329 25.9509 11.9288 26.0297 11.961 25.9965C11.965 25.9924 11.9691 25.9135 11.9369 25.9468Z" fill="#A0A0A0"/>
<path d="M15.9764 25.8976V26.1917C16.027 26.0623 16.027 26.027 15.9764 25.8976Z" fill="#747474"/>
<path d="M40.8075 25.9468C40.8035 25.9509 40.7995 26.0297 40.8317 25.9965C40.8357 25.9924 40.8397 25.9135 40.8075 25.9468Z" fill="#6F6F6F"/>
<path d="M40.855 25.8976V26.5594C40.9446 26.3393 40.9446 26.1178 40.855 25.8976Z" fill="#DBDBDB"/>
<path d="M36.5066 25.9711V26.3388C36.5658 26.1895 36.5658 26.1204 36.5066 25.9711Z" fill="#4D4D4D"/>
<path d="M11.8656 26.0938C11.8616 26.0979 11.8575 26.1768 11.8897 26.1436C11.8937 26.1394 11.8978 26.0606 11.8656 26.0938Z" fill="#BDBDBD"/>
<path d="M30.9701 26.0938C30.9661 26.0979 30.9621 26.1768 30.9943 26.1436C30.9982 26.1394 31.0023 26.0606 30.9701 26.0938Z" fill="#2E2E2E"/>
<path d="M40.8075 26.0938C40.8035 26.0979 40.7995 26.1768 40.8317 26.1436C40.8357 26.1394 40.8397 26.0606 40.8075 26.0938Z" fill="#3D3D3D"/>
<path d="M15.9764 26.1917V27.6625C16.1251 27.2968 16.1251 26.5574 15.9764 26.1917Z" fill="#2A2A2A"/>
<path d="M30.8988 26.2409C30.8948 26.245 30.8908 26.3238 30.923 26.2906C30.927 26.2865 30.931 26.2077 30.8988 26.2409Z" fill="#3E3E3E"/>
<path d="M11.7705 26.2653V26.4859C11.8201 26.3716 11.8201 26.3796 11.7705 26.2653Z" fill="#BDBDBD"/>
<path d="M16.0476 26.2653V26.5594C16.0983 26.43 16.0983 26.3947 16.0476 26.2653Z" fill="#A6A6A6"/>
<path d="M33.9641 26.3144C33.9601 26.3185 33.9561 26.3974 33.9883 26.3642C33.9922 26.3601 33.9963 26.2812 33.9641 26.3144Z" fill="#8D8D8D"/>
<path d="M34.0116 26.3388V26.8536C34.0872 26.6672 34.0872 26.5252 34.0116 26.3388Z" fill="#DEDEDE"/>
<path d="M36.4591 26.388C36.4551 26.3921 36.4511 26.4709 36.4833 26.4377C36.4872 26.4336 36.4913 26.3548 36.4591 26.388Z" fill="#BFBFBF"/>
<path d="M36.5066 26.3388V26.633C36.5572 26.5035 36.5572 26.4682 36.5066 26.3388Z" fill="#292929"/>
<path d="M33.9403 26.4124V26.633C33.9899 26.5187 33.9899 26.5266 33.9403 26.4124Z" fill="#747474"/>
<path d="M11.6992 26.4859V26.8536C11.7584 26.7042 11.7584 26.6352 11.6992 26.4859Z" fill="#B3B3B3"/>
<path d="M36.4591 26.5351C36.4551 26.5392 36.4511 26.618 36.4833 26.5848C36.4872 26.5807 36.4913 26.5018 36.4591 26.5351Z" fill="#8D8D8D"/>
<path d="M16.0476 26.5594V27.6625C16.1717 27.3575 16.1717 26.8645 16.0476 26.5594Z" fill="#8E8E8E"/>
<path d="M20.0396 26.5594C20.2613 26.7156 20.489 26.7057 20.7525 26.7065C20.5321 26.6084 20.2787 26.5906 20.0396 26.5594Z" fill="#A3A3A3"/>
<path d="M21.5366 26.5594C21.6256 26.6098 21.647 26.6145 21.7505 26.633C21.6615 26.5826 21.6401 26.5779 21.5366 26.5594Z" fill="#373737"/>
<path d="M21.7505 26.5594C21.8395 26.6098 21.8608 26.6145 21.9643 26.633C21.8754 26.5826 21.854 26.5779 21.7505 26.5594Z" fill="#A1A1A1"/>
<path d="M40.8788 26.6086C40.8748 26.6127 40.8708 26.6915 40.903 26.6583C40.907 26.6542 40.911 26.5754 40.8788 26.6086Z" fill="#949494"/>
<path d="M40.9263 26.5594V30.3835C41.0524 30.0735 40.9976 29.6874 40.9976 29.3539V27.5154C40.9976 27.2022 41.0447 26.8506 40.9263 26.5594Z" fill="#DDDDDD"/>
<path d="M20.7525 26.633C20.9187 26.7054 21.0702 26.7051 21.2515 26.7065C21.0853 26.6341 20.9338 26.6344 20.7525 26.633Z" fill="#717171"/>
<path d="M21.2515 26.633C21.3588 26.6832 21.4165 26.6937 21.5366 26.7065C21.4293 26.6563 21.3716 26.6458 21.2515 26.633Z" fill="#9B9B9B"/>
<path d="M21.5366 26.633C21.6256 26.6833 21.647 26.6881 21.7505 26.7065C21.6615 26.6561 21.6401 26.6514 21.5366 26.633Z" fill="#B4B4B4"/>
<path d="M33.9403 26.633V27.1477C34.0159 26.9614 34.0158 26.8193 33.9403 26.633Z" fill="#474747"/>
<path d="M36.4353 26.633V27.0742C36.5031 26.9062 36.5031 26.801 36.4353 26.633Z" fill="#545454"/>
<path d="M20.7525 26.7065C20.9187 26.7789 21.0702 26.7787 21.2515 26.7801C21.0853 26.7076 20.9338 26.7079 20.7525 26.7065Z" fill="#E0E0E0"/>
<path d="M40.8788 26.7557C40.8748 26.7598 40.8708 26.8386 40.903 26.8054C40.907 26.8013 40.911 26.7225 40.8788 26.7557Z" fill="#6D6D6D"/>
<path d="M11.6279 26.8536V28.1773C11.7671 27.8353 11.7671 27.1956 11.6279 26.8536Z" fill="#B9B9B9"/>
<path d="M11.723 26.9028C11.719 26.9069 11.715 26.9857 11.7472 26.9525C11.7511 26.9484 11.7552 26.8696 11.723 26.9028Z" fill="#454545"/>
<path d="M34.0116 26.8536V27.589C34.1076 27.3531 34.1076 27.0894 34.0116 26.8536Z" fill="#BCBCBC"/>
<path d="M40.855 26.8536V27.1477C40.9056 27.0184 40.9056 26.9829 40.855 26.8536Z" fill="#3C3C3C"/>
<path d="M36.3878 27.1234C36.3838 27.1275 36.3798 27.2063 36.412 27.1731C36.416 27.169 36.42 27.0902 36.3878 27.1234Z" fill="#A9A9A9"/>
<path d="M40.855 27.1478V30.0158C40.9577 29.7632 40.9263 29.4791 40.9263 29.2069C40.9263 28.5986 41.0836 27.7095 40.855 27.1478Z" fill="#252525"/>
<path d="M36.3878 27.2705C36.3838 27.2746 36.3798 27.3534 36.412 27.3202C36.416 27.3161 36.42 27.2372 36.3878 27.2705Z" fill="#6E6E6E"/>
<path d="M36.364 27.3684V27.589C36.4136 27.4747 36.4136 27.4826 36.364 27.3684Z" fill="#525252"/>
<path d="M34.0354 27.6382C34.0314 27.6423 34.0273 27.7211 34.0595 27.6879C34.0635 27.6838 34.0676 27.6049 34.0354 27.6382Z" fill="#6A6A6A"/>
<path d="M34.0829 27.589V28.3244C34.1789 28.0885 34.1789 27.8248 34.0829 27.589Z" fill="#BEBEBE"/>
<path d="M36.3165 27.6382C36.3125 27.6423 36.3085 27.7211 36.3407 27.6879C36.3447 27.6838 36.3487 27.6049 36.3165 27.6382Z" fill="#A3A3A3"/>
<path d="M15.9764 27.6625V28.7656C16.1004 28.4606 16.1004 27.9676 15.9764 27.6625Z" fill="#3A3A3A"/>
<path d="M16.0476 27.6625V28.7656C16.1717 28.4606 16.1717 27.9676 16.0476 27.6625Z" fill="#AAAAAA"/>
<path d="M34.0354 27.7852C34.0314 27.7893 34.0273 27.8682 34.0595 27.8349C34.0635 27.8308 34.0676 27.752 34.0354 27.7852Z" fill="#404040"/>
<path d="M36.3165 27.7852C36.3125 27.7893 36.3085 27.8682 36.3407 27.8349C36.3447 27.8308 36.3487 27.752 36.3165 27.7852Z" fill="#6A6A6A"/>
<path d="M36.2927 27.8831V28.1038C36.3424 27.9895 36.3424 27.9974 36.2927 27.8831Z" fill="#4E4E4E"/>
<path d="M11.723 28.1529C11.719 28.157 11.715 28.2359 11.7472 28.2026C11.7511 28.1985 11.7552 28.1197 11.723 28.1529Z" fill="#7B7B7B"/>
<path d="M36.2452 28.1529C36.2413 28.157 36.2372 28.2359 36.2694 28.2026C36.2734 28.1985 36.2774 28.1197 36.2452 28.1529Z" fill="#676767"/>
<path d="M11.6992 28.2508V28.4715C11.7488 28.3572 11.7488 28.3651 11.6992 28.2508Z" fill="#B8B8B8"/>
<path d="M36.2452 28.3C36.2413 28.3041 36.2372 28.3829 36.2694 28.3497C36.2734 28.3456 36.2774 28.2668 36.2452 28.3Z" fill="#414141"/>
<path d="M34.0829 28.3244V28.6921C34.1421 28.5428 34.1421 28.4737 34.0829 28.3244Z" fill="#7D7D7D"/>
<path d="M34.1542 28.3244V31.4866C34.4042 30.872 34.2255 29.8731 34.2255 29.2069C34.2255 28.9139 34.2648 28.5964 34.1542 28.3244Z" fill="#D3D3D3"/>
<path d="M36.1502 28.4715V28.6921C36.1998 28.5778 36.1998 28.5857 36.1502 28.4715Z" fill="#555555"/>
<path d="M11.7705 28.545V28.7656C11.8201 28.6513 11.8201 28.6593 11.7705 28.545Z" fill="#AFAFAF"/>
<path d="M34.0829 28.6921V31.3395C34.1856 31.0869 34.1542 30.8028 34.1542 30.5306C34.1542 29.9805 34.2898 29.2009 34.0829 28.6921Z" fill="#4A4A4A"/>
<path d="M16.0476 28.7656V29.2068C16.1154 29.0388 16.1154 28.9336 16.0476 28.7656Z" fill="#727272"/>
<path d="M36.0789 28.7656V28.9862C36.1285 28.8719 36.1285 28.8799 36.0789 28.7656Z" fill="#555555"/>
<path d="M11.8656 28.8883C11.8616 28.8924 11.8575 28.9713 11.8897 28.938C11.8937 28.9339 11.8978 28.8551 11.8656 28.8883Z" fill="#CECECE"/>
<path d="M11.9369 29.1089C11.9329 29.113 11.9288 29.1919 11.961 29.1587C11.965 29.1545 11.9691 29.0757 11.9369 29.1089Z" fill="#DEDEDE"/>
<path d="M36.0076 29.0598V29.2804C36.0572 29.1661 36.0572 29.1741 36.0076 29.0598Z" fill="#4E4E4E"/>
<path d="M16.0476 29.2068V29.4275C16.0973 29.3132 16.0973 29.3211 16.0476 29.2068Z" fill="#484848"/>
<path d="M16.1189 29.2068V29.4275C16.1685 29.3132 16.1685 29.3211 16.1189 29.2068Z" fill="#C1C1C1"/>
<path d="M35.9363 29.2804V29.501C35.9859 29.3867 35.9859 29.3947 35.9363 29.2804Z" fill="#5B5B5B"/>
<path d="M16.1189 29.4275V29.6481C16.1685 29.5338 16.1685 29.5417 16.1189 29.4275Z" fill="#777777"/>
<path d="M35.8888 29.6237C35.8848 29.6278 35.8808 29.7066 35.913 29.6734C35.917 29.6693 35.921 29.5905 35.8888 29.6237Z" fill="#4F4F4F"/>
<path d="M16.1427 29.6972C16.1387 29.7014 16.1347 29.7802 16.1669 29.747C16.1709 29.7429 16.1749 29.664 16.1427 29.6972Z" fill="#353535"/>
<path d="M16.214 29.6972C16.21 29.7014 16.206 29.7802 16.2382 29.747C16.2421 29.7429 16.2462 29.664 16.214 29.6972Z" fill="#A3A3A3"/>
<path d="M16.1902 29.7952V30.0158C16.2398 29.9015 16.2398 29.9094 16.1902 29.7952Z" fill="#717171"/>
<path d="M35.8175 29.8443C35.8135 29.8484 35.8095 29.9273 35.8417 29.894C35.8457 29.8899 35.8497 29.8111 35.8175 29.8443Z" fill="#555555"/>
<path d="M16.2615 30.0158V30.2364C16.3111 30.1221 16.3111 30.1301 16.2615 30.0158Z" fill="#797979"/>
<path d="M35.7462 30.0649C35.7423 30.0691 35.7382 30.1479 35.7704 30.1147C35.7744 30.1106 35.7784 30.0317 35.7462 30.0649Z" fill="#5C5C5C"/>
<path d="M40.855 30.0158V30.2364C40.9046 30.1221 40.9046 30.1301 40.855 30.0158Z" fill="#4A4A4A"/>
<path d="M40.855 30.2364V30.457C40.9046 30.3427 40.9046 30.3507 40.855 30.2364Z" fill="#6A6A6A"/>
<path d="M16.3566 30.3591C16.3526 30.3632 16.3485 30.442 16.3807 30.4088C16.3847 30.4047 16.3888 30.3259 16.3566 30.3591Z" fill="#5C5C5C"/>
<path d="M35.675 30.3591C35.671 30.3632 35.6669 30.442 35.6991 30.4088C35.7031 30.4047 35.7072 30.3259 35.675 30.3591Z" fill="#424242"/>
<path d="M16.4041 30.457V30.6776C16.4537 30.5634 16.4537 30.5713 16.4041 30.457Z" fill="#7B7B7B"/>
<path d="M40.8788 30.5062C40.8748 30.5103 40.8708 30.5891 40.903 30.5559C40.907 30.5518 40.911 30.473 40.8788 30.5062Z" fill="#A4A4A4"/>
<path d="M35.6037 30.5797C35.5997 30.5838 35.5956 30.6627 35.6278 30.6294C35.6318 30.6253 35.6359 30.5465 35.6037 30.5797Z" fill="#3B3B3B"/>
<path d="M40.855 30.6041V31.1924C40.9378 30.9887 40.9378 30.8078 40.855 30.6041Z" fill="#DBDBDB"/>
<path d="M35.5324 30.7268C35.5284 30.7309 35.5243 30.8097 35.5565 30.7765C35.5605 30.7724 35.5646 30.6936 35.5324 30.7268Z" fill="#515151"/>
<path d="M35.4611 30.9474C35.4571 30.9515 35.4531 31.0304 35.4853 30.9971C35.4892 30.993 35.4933 30.9142 35.4611 30.9474Z" fill="#484848"/>
<path d="M40.7837 30.9718V31.1924C40.8334 31.0781 40.8334 31.0861 40.7837 30.9718Z" fill="#454545"/>
<path d="M35.3898 31.168C35.3858 31.1721 35.3818 31.251 35.414 31.2177C35.418 31.2136 35.422 31.1348 35.3898 31.168Z" fill="#414141"/>
<path d="M40.8075 31.2416C40.8035 31.2457 40.7995 31.3245 40.8317 31.2913C40.8357 31.2872 40.8397 31.2084 40.8075 31.2416Z" fill="#A7A7A7"/>
<path d="M34.0829 31.3395V31.5601C34.1325 31.4458 34.1325 31.4538 34.0829 31.3395Z" fill="#6D6D6D"/>
<path d="M35.3185 31.3887C35.3145 31.3928 35.3105 31.4716 35.3427 31.4384C35.3467 31.4343 35.3507 31.3554 35.3185 31.3887Z" fill="#3D3D3D"/>
<path d="M40.7837 31.3395V32.0013C40.8733 31.7812 40.8733 31.5597 40.7837 31.3395Z" fill="#DDDDDD"/>
<path d="M35.2472 31.5357C35.2433 31.5398 35.2392 31.6187 35.2714 31.5855C35.2754 31.5813 35.2794 31.5025 35.2472 31.5357Z" fill="#565656"/>
<path d="M34.0829 31.5601V32.1484C34.1657 31.9447 34.1657 31.7638 34.0829 31.5601Z" fill="#BFBFBF"/>
<path d="M35.176 31.7564C35.172 31.7605 35.1679 31.8393 35.2001 31.8061C35.2041 31.802 35.2082 31.7231 35.176 31.7564Z" fill="#525252"/>
<path d="M40.7125 31.7072V31.9278C40.7621 31.8135 40.7621 31.8215 40.7125 31.7072Z" fill="#3E3E3E"/>
<path d="M35.1047 31.977C35.1007 31.9811 35.0966 32.0599 35.1288 32.0267C35.1328 32.0226 35.1369 31.9438 35.1047 31.977Z" fill="#4D4D4D"/>
<path d="M40.7125 31.9278V32.1484C40.7621 32.0341 40.7621 32.0421 40.7125 31.9278Z" fill="#6D6D6D"/>
<path d="M34.0116 32.0749V32.2955C34.0612 32.1812 34.0612 32.1892 34.0116 32.0749Z" fill="#606060"/>
<path d="M35.0334 32.1976C35.0294 32.2017 35.0253 32.2805 35.0575 32.2473C35.0615 32.2432 35.0656 32.1644 35.0334 32.1976Z" fill="#464646"/>
<path d="M40.7125 32.1484V32.7367C40.7952 32.533 40.7952 32.3521 40.7125 32.1484Z" fill="#DCDCDC"/>
<path d="M34.0116 32.2955V32.8838C34.0944 32.6801 34.0944 32.4992 34.0116 32.2955Z" fill="#BFBFBF"/>
<path d="M15.5963 32.3936C15.5641 32.4268 15.6405 32.4226 15.6445 32.4185C15.6767 32.3853 15.6003 32.3895 15.5963 32.3936Z" fill="#A4A4A4"/>
<path d="M34.9621 32.4182C34.9581 32.4223 34.9541 32.5011 34.9863 32.4679C34.9902 32.4638 34.9943 32.385 34.9621 32.4182Z" fill="#404040"/>
<path d="M15.6912 32.4426C15.7802 32.493 15.8016 32.4977 15.9051 32.5161C15.8161 32.4657 15.7947 32.461 15.6912 32.4426Z" fill="#B8B8B8"/>
<path d="M40.6412 32.4426V32.6632C40.6908 32.5489 40.6908 32.5569 40.6412 32.4426Z" fill="#444444"/>
<path d="M15.9051 32.5161C15.994 32.5665 16.0154 32.5712 16.1189 32.5897C16.03 32.5393 16.0086 32.5346 15.9051 32.5161Z" fill="#BFBFBF"/>
<path d="M16.2379 32.5406C16.2057 32.5739 16.2821 32.5697 16.2861 32.5656C16.3183 32.5324 16.2419 32.5365 16.2379 32.5406Z" fill="#363636"/>
<path d="M34.8908 32.5653C34.8868 32.5694 34.8828 32.6482 34.915 32.615C34.919 32.6109 34.923 32.5321 34.8908 32.5653Z" fill="#5A5A5A"/>
<path d="M16.1902 32.5897C16.3163 32.6469 16.4066 32.6567 16.5466 32.6632C16.4205 32.6059 16.3302 32.5961 16.1902 32.5897Z" fill="#B8B8B8"/>
<path d="M16.5466 32.5897C16.7329 32.6704 16.9148 32.6627 17.1169 32.6632C16.9307 32.5825 16.7487 32.5902 16.5466 32.5897Z" fill="#7F7F7F"/>
<path d="M17.1169 32.5897C17.2243 32.6399 17.282 32.6504 17.4021 32.6632C17.2947 32.613 17.237 32.6025 17.1169 32.5897Z" fill="#969696"/>
<path d="M16.5466 32.6632C16.7721 32.7608 17.0161 32.7367 17.2595 32.7367C17.034 32.6392 16.79 32.6632 16.5466 32.6632Z" fill="#E6E6E6"/>
<path d="M33.9403 32.7367V32.9573C33.9899 32.8431 33.9899 32.851 33.9403 32.7367Z" fill="#4E4E4E"/>
<path d="M34.8195 32.7859C34.8155 32.79 34.8115 32.8688 34.8437 32.8356C34.8477 32.8315 34.8517 32.7527 34.8195 32.7859Z" fill="#4C4C4C"/>
<path d="M40.6412 32.7367V33.1044C40.7003 32.9551 40.7003 32.886 40.6412 32.7367Z" fill="#E0E0E0"/>
<path d="M34.0354 32.933C34.0314 32.9371 34.0273 33.0159 34.0595 32.9827C34.0635 32.9786 34.0676 32.8998 34.0354 32.933Z" fill="#E5E5E5"/>
<path d="M33.9641 33.0065C33.9601 33.0106 33.9561 33.0895 33.9883 33.0562C33.9922 33.0521 33.9963 32.9733 33.9641 33.0065Z" fill="#9D9D9D"/>
<path d="M34.7482 33.0065C34.7443 33.0106 34.7402 33.0895 34.7724 33.0562C34.7764 33.0521 34.7804 32.9733 34.7482 33.0065Z" fill="#3A3A3A"/>
<path d="M40.5937 33.0065C40.5897 33.0106 40.5856 33.0895 40.6178 33.0562C40.6218 33.0521 40.6259 32.9733 40.5937 33.0065Z" fill="#5A5A5A"/>
<path d="M33.9403 33.1044V33.325C33.9899 33.2108 33.9899 33.2187 33.9403 33.1044Z" fill="#BEBEBE"/>
<path d="M34.6769 33.1536C34.673 33.1577 34.6689 33.2365 34.7011 33.2033C34.7051 33.1992 34.7091 33.1204 34.6769 33.1536Z" fill="#4A4A4A"/>
<path d="M40.5699 33.178V33.4721C40.6205 33.3428 40.6205 33.3073 40.5699 33.178Z" fill="#D9D9D9"/>
<path d="M33.8928 33.3742C33.8888 33.3783 33.8848 33.4571 33.917 33.4239C33.921 33.4198 33.925 33.341 33.8928 33.3742Z" fill="#626262"/>
<path d="M33.9641 33.3742C33.9601 33.3783 33.9561 33.4571 33.9883 33.4239C33.9922 33.4198 33.9963 33.341 33.9641 33.3742Z" fill="#DBDBDB"/>
<path d="M34.6057 33.3742C34.6017 33.3783 34.5976 33.4571 34.6298 33.4239C34.6338 33.4198 34.6379 33.341 34.6057 33.3742Z" fill="#323232"/>
<path d="M33.869 33.4721V33.6927C33.9187 33.5785 33.9187 33.5864 33.869 33.4721Z" fill="#B5B5B5"/>
<path d="M34.5344 33.5213C34.5304 33.5254 34.5264 33.6042 34.5586 33.571C34.5625 33.5669 34.5666 33.4881 34.5344 33.5213Z" fill="#3B3B3B"/>
<path d="M40.4986 33.5457V33.7663C40.5482 33.652 40.5482 33.6599 40.4986 33.5457Z" fill="#DBDBDB"/>
<path d="M34.4631 33.6684C34.4591 33.6725 34.4551 33.7513 34.4873 33.7181C34.4912 33.714 34.4953 33.6352 34.4631 33.6684Z" fill="#444444"/>
<path d="M33.8928 33.7419C33.8888 33.746 33.8848 33.8248 33.917 33.7916C33.921 33.7875 33.925 33.7087 33.8928 33.7419Z" fill="#E1E1E1"/>
<path d="M33.7977 33.8398V34.0604C33.8474 33.9462 33.8474 33.9541 33.7977 33.8398Z" fill="#BFBFBF"/>
<path d="M40.4273 33.8398V34.0604C40.4769 33.9462 40.4769 33.9541 40.4273 33.8398Z" fill="#D8D8D8"/>
<path d="M23.1762 34.0604V34.4281C23.2354 34.2788 23.2354 34.2098 23.1762 34.0604Z" fill="#888888"/>
<path d="M33.7265 34.134V34.3546C33.7761 34.2403 33.7761 34.2483 33.7265 34.134Z" fill="#BDBDBD"/>
<path d="M40.356 34.134V34.3546C40.4056 34.2403 40.4056 34.2483 40.356 34.134Z" fill="#DEDEDE"/>
<path d="M9.70323 34.2811V34.6488C9.7691 34.5276 9.80652 34.4153 9.8458 34.2811H9.70323Z" fill="#BBBBBB"/>
<path d="M9.82217 34.3791C9.78998 34.4123 9.86638 34.4082 9.87036 34.4041C9.90256 34.3708 9.82615 34.375 9.82217 34.3791Z" fill="#666666"/>
<path d="M40.2847 34.3546V34.5752C40.3343 34.4609 40.3343 34.4689 40.2847 34.3546Z" fill="#DCDCDC"/>
<path d="M9.77451 34.4281C9.99685 36.2044 10.3909 37.8792 11.9844 38.8799C13.5032 39.8338 15.3799 39.8153 17.0456 39.3336C17.9943 39.0593 18.8702 38.603 19.436 37.7374C19.9431 36.9618 19.9683 36.1365 19.9683 35.2371C18.1327 35.6701 16.381 36.1762 14.4794 35.8666C13.4995 35.7071 12.4912 35.4558 11.5567 35.1126C10.968 34.8965 10.3913 34.5377 9.77451 34.4281Z" fill="#151515"/>
<path d="M10.036 34.4527C10.0038 34.4859 10.0802 34.4817 10.0842 34.4776C10.1164 34.4444 10.04 34.4486 10.036 34.4527Z" fill="#818181"/>
<path d="M23.1287 34.4773C23.1247 34.4814 23.1207 34.5602 23.1529 34.527C23.1568 34.5229 23.1609 34.4441 23.1287 34.4773Z" fill="#CFCFCF"/>
<path d="M23.2 34.4773C23.196 34.4814 23.192 34.5602 23.2241 34.527C23.2281 34.5229 23.2322 34.4441 23.2 34.4773Z" fill="#595959"/>
<path d="M33.6552 34.4281V34.6487C33.7048 34.5345 33.7048 34.5424 33.6552 34.4281Z" fill="#BEBEBE"/>
<path d="M10.1786 34.5262C10.1464 34.5594 10.2228 34.5552 10.2268 34.5511C10.259 34.5179 10.1826 34.5221 10.1786 34.5262Z" fill="#656565"/>
<path d="M23.1287 34.6244C23.1247 34.6285 23.1207 34.7073 23.1529 34.6741C23.1568 34.67 23.1609 34.5912 23.1287 34.6244Z" fill="#A9A9A9"/>
<path d="M23.2 34.6244C23.196 34.6285 23.192 34.7073 23.2241 34.6741C23.2281 34.67 23.2322 34.5912 23.2 34.6244Z" fill="#363636"/>
<path d="M40.2372 34.6244C40.2333 34.6285 40.2292 34.7073 40.2614 34.6741C40.2654 34.67 40.2694 34.5912 40.2372 34.6244Z" fill="#DDDDDD"/>
<path d="M9.70323 34.6488V34.8694C9.75285 34.7551 9.75285 34.763 9.70323 34.6488Z" fill="#E4E4E4"/>
<path d="M9.77451 34.6488V34.8694C9.82413 34.7551 9.82413 34.763 9.77451 34.6488Z" fill="#747474"/>
<path d="M10.6776 34.7468C10.6454 34.78 10.7218 34.7759 10.7258 34.7718C10.758 34.7385 10.6816 34.7427 10.6776 34.7468Z" fill="#666666"/>
<path d="M23.1049 34.7223V35.0164C23.1555 34.8871 23.1555 34.8516 23.1049 34.7223Z" fill="#8E8E8E"/>
<path d="M33.5839 34.7223V35.09C33.6431 34.9406 33.6431 34.8716 33.5839 34.7223Z" fill="#C6C6C6"/>
<path d="M40.1659 34.845C40.162 34.8491 40.1579 34.9279 40.1901 34.8947C40.1941 34.8906 40.1981 34.8118 40.1659 34.845Z" fill="#E1E1E1"/>
<path d="M9.77451 34.8694V35.1635C9.82513 35.0342 9.82513 34.9987 9.77451 34.8694Z" fill="#C3C3C3"/>
<path d="M11.034 34.8939C11.0018 34.9271 11.0782 34.9229 11.0822 34.9188C11.1144 34.8856 11.038 34.8898 11.034 34.8939Z" fill="#6B6B6B"/>
<path d="M11.2479 34.9674C11.2157 35.0007 11.2921 34.9965 11.2961 34.9924C11.3283 34.9592 11.2519 34.9633 11.2479 34.9674Z" fill="#797979"/>
<path d="M33.5364 34.9921C33.5324 34.9962 33.5284 35.075 33.5606 35.0418C33.5645 35.0377 33.5686 34.9589 33.5364 34.9921Z" fill="#494949"/>
<path d="M9.8458 35.0164V35.2371C9.89542 35.1228 9.89542 35.1307 9.8458 35.0164Z" fill="#3A3A3A"/>
<path d="M11.3428 35.0164C11.4318 35.0668 11.4531 35.0715 11.5567 35.09C11.4677 35.0396 11.4463 35.0349 11.3428 35.0164Z" fill="#5C5C5C"/>
<path d="M23.0336 35.0164V35.7518C23.1296 35.516 23.1296 35.2523 23.0336 35.0164Z" fill="#A8A8A8"/>
<path d="M23.1049 35.0164V35.7518C23.2009 35.516 23.2009 35.2523 23.1049 35.0164Z" fill="#343434"/>
<path d="M40.0947 35.0656C40.0907 35.0697 40.0866 35.1486 40.1188 35.1153C40.1228 35.1112 40.1269 35.0324 40.0947 35.0656Z" fill="#E7E7E7"/>
<path d="M11.6043 35.1145C11.5721 35.1477 11.6485 35.1435 11.6525 35.1394C11.6847 35.1062 11.6083 35.1104 11.6043 35.1145Z" fill="#5D5D5D"/>
<path d="M33.5126 35.09V35.2371H33.6552C33.6163 35.1168 33.6292 35.1301 33.5126 35.09Z" fill="#696969"/>
<path d="M11.7705 35.1635C11.8595 35.2139 11.8809 35.2186 11.9844 35.2371C11.8954 35.1867 11.874 35.182 11.7705 35.1635Z" fill="#5A5A5A"/>
<path d="M19.8734 35.1881C19.8412 35.2213 19.9177 35.2171 19.9216 35.213C19.9538 35.1798 19.8774 35.184 19.8734 35.1881Z" fill="#4D4D4D"/>
<path d="M40.0234 35.2127C40.0194 35.2168 40.0153 35.2956 40.0475 35.2624C40.0515 35.2583 40.0556 35.1795 40.0234 35.2127Z" fill="#E3E3E3"/>
<path d="M9.86958 35.2862C9.8656 35.2904 9.86155 35.3692 9.89374 35.336C9.89772 35.3319 9.90177 35.253 9.86958 35.2862Z" fill="#A0A0A0"/>
<path d="M11.9844 35.2371C12.0733 35.2874 12.0947 35.2921 12.1982 35.3106C12.1093 35.2602 12.0879 35.2555 11.9844 35.2371Z" fill="#535353"/>
<path d="M19.6119 35.2371C19.7009 35.2874 19.7223 35.2921 19.8258 35.3106C19.7368 35.2602 19.7154 35.2555 19.6119 35.2371Z" fill="#4C4C4C"/>
<path d="M19.9684 35.2371V36.046C20.0704 35.7952 20.0704 35.4878 19.9684 35.2371Z" fill="#2C2C2C"/>
<path d="M20.0634 35.2862C20.0594 35.2904 20.0554 35.3692 20.0876 35.336C20.0916 35.3319 20.0956 35.253 20.0634 35.2862Z" fill="#C6C6C6"/>
<path d="M12.2695 35.3106C12.3585 35.361 12.3799 35.3657 12.4834 35.3841C12.3944 35.3338 12.373 35.3291 12.2695 35.3106Z" fill="#585858"/>
<path d="M19.3981 35.3106C19.487 35.361 19.5084 35.3657 19.6119 35.3841C19.523 35.3338 19.5016 35.3291 19.3981 35.3106Z" fill="#4A4A4A"/>
<path d="M39.9521 35.3598C39.9481 35.3639 39.9441 35.4427 39.9763 35.4095C39.9802 35.4054 39.9843 35.3266 39.9521 35.3598Z" fill="#E0E0E0"/>
<path d="M9.8458 35.3841V35.6048C9.89542 35.4905 9.89542 35.4984 9.8458 35.3841Z" fill="#C3C3C3"/>
<path d="M12.4834 35.3841C12.6679 35.4855 12.8455 35.5136 13.0537 35.5312C12.8692 35.4299 12.6915 35.4017 12.4834 35.3841Z" fill="#494949"/>
<path d="M19.1606 35.4087C19.1284 35.4419 19.2048 35.4377 19.2088 35.4336C19.241 35.4004 19.1646 35.4046 19.1606 35.4087Z" fill="#545454"/>
<path d="M20.0396 35.3841V36.046C20.1292 35.8258 20.1292 35.6043 20.0396 35.3841Z" fill="#9B9B9B"/>
<path d="M18.8278 35.4577C18.9167 35.5081 18.9381 35.5128 19.0416 35.5312C18.9527 35.4809 18.9313 35.4761 18.8278 35.4577Z" fill="#5A5A5A"/>
<path d="M13.1013 35.5558C13.0691 35.589 13.1455 35.5848 13.1495 35.5807C13.1817 35.5475 13.1053 35.5516 13.1013 35.5558Z" fill="#3F3F3F"/>
<path d="M13.1962 35.5312C13.2852 35.5816 13.3066 35.5863 13.4101 35.6048C13.3211 35.5544 13.2997 35.5497 13.1962 35.5312Z" fill="#5B5B5B"/>
<path d="M18.5426 35.5312C18.6316 35.5816 18.653 35.5863 18.7565 35.6048C18.6675 35.5544 18.6461 35.5497 18.5426 35.5312Z" fill="#585858"/>
<path d="M9.86958 35.6539C9.8656 35.658 9.86155 35.7369 9.89374 35.7036C9.89772 35.6995 9.90177 35.6207 9.86958 35.6539Z" fill="#E2E2E2"/>
<path d="M9.94086 35.6539C9.93688 35.658 9.93283 35.7369 9.96503 35.7036C9.96901 35.6995 9.97306 35.6207 9.94086 35.6539Z" fill="#727272"/>
<path d="M13.4577 35.6293C13.4255 35.6625 13.502 35.6583 13.5059 35.6542C13.5381 35.621 13.4617 35.6252 13.4577 35.6293Z" fill="#404040"/>
<path d="M13.5527 35.6048C13.6416 35.6551 13.663 35.6598 13.7665 35.6783C13.6775 35.6279 13.6562 35.6232 13.5527 35.6048Z" fill="#5F5F5F"/>
<path d="M18.2339 35.6293C18.2017 35.6625 18.2781 35.6583 18.2821 35.6542C18.3143 35.621 18.2379 35.6252 18.2339 35.6293Z" fill="#5B5B5B"/>
<path d="M18.3764 35.6293C18.3442 35.6625 18.4207 35.6583 18.4246 35.6542C18.4568 35.621 18.3804 35.6252 18.3764 35.6293Z" fill="#424242"/>
<path d="M13.8142 35.7028C13.782 35.7361 13.8584 35.7319 13.8624 35.7278C13.8946 35.6946 13.8182 35.6987 13.8142 35.7028Z" fill="#404040"/>
<path d="M13.9091 35.6783C13.998 35.7287 14.0194 35.7334 14.1229 35.7519C14.034 35.7015 14.0126 35.6968 13.9091 35.6783Z" fill="#5D5D5D"/>
<path d="M17.6872 35.6783C17.7762 35.7287 17.7976 35.7334 17.9011 35.7519C17.8121 35.7015 17.7907 35.6968 17.6872 35.6783Z" fill="#868686"/>
<path d="M17.9011 35.6783C17.99 35.7287 18.0114 35.7334 18.1149 35.7519C18.026 35.7015 18.0046 35.6968 17.9011 35.6783Z" fill="#4D4D4D"/>
<path d="M9.91708 35.7518V35.9725C9.9667 35.8582 9.9667 35.8661 9.91708 35.7518Z" fill="#BBBBBB"/>
<path d="M14.0516 35.7518C14.1406 35.8022 14.162 35.8069 14.2655 35.8254C14.1765 35.775 14.1552 35.7703 14.0516 35.7518Z" fill="#303030"/>
<path d="M14.2655 35.7518C14.3545 35.8022 14.3759 35.8069 14.4794 35.8254C14.3904 35.775 14.369 35.7703 14.2655 35.7518Z" fill="#5C5C5C"/>
<path d="M14.4794 35.7518C14.5683 35.8022 14.5897 35.8069 14.6932 35.8254C14.6043 35.775 14.5829 35.7703 14.4794 35.7518Z" fill="#9A9A9A"/>
<path d="M14.7409 35.7764C14.7087 35.8096 14.7851 35.8054 14.7891 35.8013C14.8213 35.7681 14.7449 35.7723 14.7409 35.7764Z" fill="#D6D6D6"/>
<path d="M17.022 35.7764C16.9898 35.8096 17.0662 35.8054 17.0702 35.8013C17.1024 35.7681 17.026 35.7723 17.022 35.7764Z" fill="#C5C5C5"/>
<path d="M17.1646 35.7764C17.1324 35.8096 17.2088 35.8054 17.2128 35.8013C17.245 35.7681 17.1686 35.7723 17.1646 35.7764Z" fill="#8C8C8C"/>
<path d="M17.3072 35.7764C17.275 35.8096 17.3514 35.8054 17.3553 35.8013C17.3875 35.7681 17.3111 35.7723 17.3072 35.7764Z" fill="#6C6C6C"/>
<path d="M17.4021 35.7518C17.491 35.8022 17.5124 35.8069 17.6159 35.8254C17.527 35.775 17.5056 35.7703 17.4021 35.7518Z" fill="#505050"/>
<path d="M23.0336 35.7518V35.9725C23.0832 35.8582 23.0832 35.8661 23.0336 35.7518Z" fill="#CACACA"/>
<path d="M23.1049 35.7518V35.9725C23.1545 35.8582 23.1545 35.8661 23.1049 35.7518Z" fill="#545454"/>
<path d="M14.4081 35.8254C14.5544 35.8897 14.6752 35.8955 14.8358 35.8989C14.6895 35.8346 14.5687 35.8288 14.4081 35.8254Z" fill="#343434"/>
<path d="M14.8358 35.8254C15.3297 36.0392 16.0835 35.8989 16.6179 35.8989C16.1241 35.6851 15.3702 35.8254 14.8358 35.8254Z" fill="#7B7B7B"/>
<path d="M16.6179 35.8254C16.744 35.8827 16.8344 35.8924 16.9744 35.8989C16.8483 35.8416 16.7579 35.8318 16.6179 35.8254Z" fill="#505050"/>
<path d="M16.9744 35.8254C17.1206 35.8897 17.2415 35.8955 17.4021 35.8989C17.2558 35.8346 17.135 35.8288 16.9744 35.8254Z" fill="#292929"/>
<path d="M15.0496 35.8989C15.4918 36.0903 16.1402 35.9725 16.6179 35.9725C16.1758 35.781 15.5274 35.8989 15.0496 35.8989Z" fill="#232323"/>
<path d="M23.1049 35.9725V36.2666C23.1555 36.1373 23.1555 36.1018 23.1049 35.9725Z" fill="#898989"/>
<path d="M19.9684 36.046V36.4137C20.0275 36.2643 20.0275 36.1954 19.9684 36.046Z" fill="#838383"/>
<path d="M33.4651 36.0952C33.4611 36.0993 33.4571 36.1781 33.4893 36.1449C33.4932 36.1408 33.4973 36.062 33.4651 36.0952Z" fill="#ACACAC"/>
<path d="M33.5364 36.0952C33.5324 36.0993 33.5284 36.1781 33.5606 36.1449C33.5645 36.1408 33.5686 36.062 33.5364 36.0952Z" fill="#373737"/>
<path d="M9.98837 36.1195V36.3402C10.038 36.2259 10.038 36.2338 9.98837 36.1195Z" fill="#C2C2C2"/>
<path d="M23.2 36.2422C23.196 36.2464 23.192 36.3252 23.2241 36.292C23.2281 36.2879 23.2322 36.209 23.2 36.2422Z" fill="#444444"/>
<path d="M33.5126 36.1931V36.4872C33.5632 36.3579 33.5632 36.3224 33.5126 36.1931Z" fill="#585858"/>
<path d="M23.1287 36.3158C23.1247 36.3199 23.1207 36.3987 23.1529 36.3655C23.1568 36.3614 23.1609 36.2826 23.1287 36.3158Z" fill="#DBDBDB"/>
<path d="M33.18 36.3158C33.176 36.3199 33.1719 36.3987 33.2041 36.3655C33.2081 36.3614 33.2122 36.2826 33.18 36.3158Z" fill="#E3E3E3"/>
<path d="M23.1762 36.3402V36.5608C23.2258 36.4465 23.2258 36.4544 23.1762 36.3402Z" fill="#808080"/>
<path d="M10.0834 36.4629C10.0795 36.467 10.0754 36.5458 10.1076 36.5126C10.1116 36.5085 10.1156 36.4297 10.0834 36.4629Z" fill="#CBCBCB"/>
<path d="M19.9208 36.4629C19.9169 36.467 19.9128 36.5458 19.945 36.5126C19.949 36.5085 19.953 36.4297 19.9208 36.4629Z" fill="#5C5C5C"/>
<path d="M19.9921 36.4629C19.9881 36.467 19.9841 36.5458 20.0163 36.5126C20.0203 36.5085 20.0243 36.4297 19.9921 36.4629Z" fill="#D6D6D6"/>
<path d="M33.1087 36.4629C33.1047 36.467 33.1006 36.5458 33.1328 36.5126C33.1368 36.5085 33.1409 36.4297 33.1087 36.4629Z" fill="#CDCDCD"/>
<path d="M33.5839 36.4872V36.7078C33.6335 36.5936 33.6335 36.6015 33.5839 36.4872Z" fill="#4C4C4C"/>
<path d="M19.8971 36.5608V36.7814C19.9467 36.6671 19.9467 36.6751 19.8971 36.5608Z" fill="#8C8C8C"/>
<path d="M23.2 36.6099C23.196 36.614 23.192 36.6929 23.2241 36.6596C23.2281 36.6555 23.2322 36.5767 23.2 36.6099Z" fill="#BCBCBC"/>
<path d="M33.0374 36.6099C33.0334 36.614 33.0294 36.6929 33.0616 36.6596C33.0655 36.6555 33.0696 36.5767 33.0374 36.6099Z" fill="#C0C0C0"/>
<path d="M10.1547 36.6835C10.1507 36.6876 10.1467 36.7664 10.1789 36.7332C10.1829 36.7291 10.1869 36.6503 10.1547 36.6835Z" fill="#D8D8D8"/>
<path d="M23.2713 36.6835C23.2673 36.6876 23.2632 36.7664 23.2954 36.7332C23.2994 36.7291 23.3035 36.6503 23.2713 36.6835Z" fill="#717171"/>
<path d="M19.8258 36.7814V37.002C19.8754 36.8877 19.8754 36.8957 19.8258 36.7814Z" fill="#8A8A8A"/>
<path d="M23.2475 36.7814V37.002C23.2971 36.8877 23.2971 36.8957 23.2475 36.7814Z" fill="#9E9E9E"/>
<path d="M32.9661 36.8306C32.9621 36.8347 32.9581 36.9135 32.9903 36.8803C32.9942 36.8762 32.9983 36.7973 32.9661 36.8306Z" fill="#D4D4D4"/>
<path d="M19.7783 37.0512C19.7743 37.0553 19.7702 37.1341 19.8024 37.1009C19.8064 37.0968 19.8105 37.018 19.7783 37.0512Z" fill="#8A8A8A"/>
<path d="M23.3426 37.0512C23.3386 37.0553 23.3345 37.1341 23.3667 37.1009C23.3707 37.0968 23.3747 37.018 23.3426 37.0512Z" fill="#959595"/>
<path d="M23.4138 37.2718C23.4099 37.2759 23.4058 37.3547 23.438 37.3215C23.442 37.3174 23.446 37.2386 23.4138 37.2718Z" fill="#AAAAAA"/>
<path d="M34.487 37.5413C34.4548 37.5745 34.5312 37.5704 34.5352 37.5662C34.5674 37.533 34.491 37.5372 34.487 37.5413Z" fill="#C5C5C5"/>
<path d="M34.6296 37.6149C34.5974 37.6481 34.6738 37.6439 34.6777 37.6398C34.7099 37.6066 34.6335 37.6108 34.6296 37.6149Z" fill="#D1D1D1"/>
<path d="M37.98 37.6149C37.9478 37.6481 38.0242 37.6439 38.0282 37.6398C38.0604 37.6066 37.984 37.6108 37.98 37.6149Z" fill="#D9D9D9"/>
<path d="M34.7245 37.6639C34.868 37.7539 34.9853 37.7848 35.1522 37.8109C35.0087 37.7209 34.8913 37.69 34.7245 37.6639Z" fill="#D6D6D6"/>
<path d="M37.8374 37.6884C37.8052 37.7216 37.8816 37.7174 37.8856 37.7133C37.9178 37.6801 37.8414 37.6843 37.8374 37.6884Z" fill="#DBDBDB"/>
<path d="M37.6948 37.7619C37.6626 37.7952 37.739 37.791 37.743 37.7869C37.7752 37.7536 37.6988 37.7578 37.6948 37.7619Z" fill="#DEDEDE"/>
<path d="M35.2235 37.8109C35.3124 37.8613 35.3338 37.866 35.4373 37.8845C35.3483 37.8341 35.327 37.8294 35.2235 37.8109Z" fill="#D2D2D2"/>
<path d="M37.4333 37.8109C37.5223 37.8613 37.5437 37.866 37.6472 37.8845C37.5582 37.8341 37.5367 37.8294 37.4333 37.8109Z" fill="#D5D5D5"/>
<path d="M35.4373 37.8845C35.5634 37.9418 35.6537 37.9515 35.7937 37.958C35.6676 37.9007 35.5773 37.8909 35.4373 37.8845Z" fill="#CFCFCF"/>
<path d="M35.8414 37.909C35.8092 37.9422 35.8856 37.938 35.8896 37.9339C35.9218 37.9007 35.8454 37.9049 35.8414 37.909Z" fill="#7C7C7C"/>
<path d="M35.9363 37.8845C36.2369 38.0146 36.6106 37.958 36.9343 37.958C36.6337 37.8279 36.26 37.8845 35.9363 37.8845Z" fill="#444444"/>
<path d="M36.982 37.909C36.9498 37.9422 37.0262 37.938 37.0302 37.9339C37.0624 37.9007 36.986 37.9049 36.982 37.909Z" fill="#757575"/>
<path d="M37.0769 37.8845C37.203 37.9418 37.2933 37.9515 37.4333 37.958C37.3072 37.9007 37.2169 37.8909 37.0769 37.8845Z" fill="#D9D9D9"/>
<path d="M35.7937 37.958C36.166 38.1192 36.6754 38.0316 37.0769 38.0316C36.7046 37.8704 36.1952 37.958 35.7937 37.958Z" fill="#DBDBDB"/>
<path d="M24.1029 38.3993C24.1418 38.5195 24.1289 38.5063 24.2455 38.5463C24.2066 38.4261 24.2195 38.4393 24.1029 38.3993Z" fill="#AFAFAF"/>
<path d="M31.8018 38.4728L31.7305 38.6199C31.8205 38.5485 31.8297 38.5689 31.8018 38.4728Z" fill="#4E4E4E"/>
<path d="M17.6636 39.1592C17.6314 39.1924 17.7078 39.1882 17.7118 39.1841C17.744 39.1509 17.6676 39.1551 17.6636 39.1592Z" fill="#DDDDDD"/>
<path d="M17.4021 39.2082C17.491 39.2586 17.5124 39.2633 17.6159 39.2817C17.527 39.2314 17.5056 39.2266 17.4021 39.2082Z" fill="#DADADA"/>
<path d="M17.1882 39.2817C17.2772 39.3321 17.2986 39.3368 17.4021 39.3553C17.3131 39.3049 17.2917 39.3002 17.1882 39.2817Z" fill="#D9D9D9"/>
<path d="M12.8398 39.3553C13.0407 39.4856 13.2471 39.5402 13.4814 39.5759C13.2804 39.4456 13.074 39.3909 12.8398 39.3553Z" fill="#DADADA"/>
<path d="M16.9744 39.3553C17.0633 39.4056 17.0847 39.4104 17.1882 39.4288C17.0993 39.3784 17.0779 39.3737 16.9744 39.3553Z" fill="#DEDEDE"/>
<path d="M25.4573 39.3553C25.6583 39.4856 25.8647 39.5402 26.0989 39.5759C25.8979 39.4456 25.6916 39.3909 25.4573 39.3553Z" fill="#DBDBDB"/>
<path d="M16.523 39.4533C16.4908 39.4865 16.5672 39.4824 16.5712 39.4783C16.6034 39.445 16.527 39.4492 16.523 39.4533Z" fill="#686868"/>
<path d="M16.6892 39.4288C16.7782 39.4792 16.7996 39.4839 16.9031 39.5024C16.8141 39.452 16.7927 39.4473 16.6892 39.4288Z" fill="#DBDBDB"/>
<path d="M16.3328 39.5023C16.4217 39.5527 16.4431 39.5574 16.5466 39.5759C16.4577 39.5255 16.4363 39.5208 16.3328 39.5023Z" fill="#D8D8D8"/>
<path d="M30.4237 39.5269C30.3915 39.5601 30.4679 39.5559 30.4719 39.5518C30.5041 39.5186 30.4277 39.5228 30.4237 39.5269Z" fill="#DFDFDF"/>
<path d="M13.4814 39.5759C13.6075 39.6332 13.6978 39.643 13.8378 39.6494C13.7117 39.5921 13.6214 39.5824 13.4814 39.5759Z" fill="#D3D3D3"/>
<path d="M13.9091 39.5759C13.998 39.6263 14.0194 39.631 14.1229 39.6494C14.034 39.5991 14.0126 39.5944 13.9091 39.5759Z" fill="#323232"/>
<path d="M15.6199 39.5759C15.7089 39.6263 15.7303 39.631 15.8338 39.6494C15.7448 39.5991 15.7234 39.5944 15.6199 39.5759Z" fill="#4A4A4A"/>
<path d="M15.8815 39.6004C15.8493 39.6336 15.9257 39.6294 15.9296 39.6253C15.9618 39.5921 15.8854 39.5963 15.8815 39.6004Z" fill="#BFBFBF"/>
<path d="M15.9764 39.5759C16.0653 39.6263 16.0867 39.631 16.1902 39.6494C16.1013 39.5991 16.0799 39.5944 15.9764 39.5759Z" fill="#D7D7D7"/>
<path d="M26.0989 39.5759C26.2063 39.6261 26.2639 39.6366 26.3841 39.6494C26.2767 39.5992 26.219 39.5887 26.0989 39.5759Z" fill="#DFDFDF"/>
<path d="M30.1622 39.5759C30.2512 39.6263 30.2725 39.631 30.376 39.6494C30.2871 39.5991 30.2657 39.5944 30.1622 39.5759Z" fill="#DBDBDB"/>
<path d="M13.8378 39.6494C13.9841 39.7137 14.1049 39.7195 14.2655 39.723C14.1192 39.6587 13.9984 39.6529 13.8378 39.6494Z" fill="#D9D9D9"/>
<path d="M14.2655 39.6494C14.3545 39.6998 14.3759 39.7045 14.4794 39.723C14.3904 39.6726 14.369 39.6679 14.2655 39.6494Z" fill="#919191"/>
<path d="M14.4794 39.6494C14.6854 39.7386 14.8981 39.7228 15.1209 39.723C14.9149 39.6338 14.7022 39.6496 14.4794 39.6494Z" fill="#646464"/>
<path d="M15.1686 39.674C15.1364 39.7072 15.2128 39.703 15.2168 39.6989C15.249 39.6657 15.1726 39.6698 15.1686 39.674Z" fill="#949494"/>
<path d="M15.2635 39.6494C15.4498 39.7302 15.6317 39.7225 15.8338 39.723C15.6475 39.6422 15.4656 39.6499 15.2635 39.6494Z" fill="#D6D6D6"/>
<path d="M26.4553 39.6494C26.5627 39.6997 26.6204 39.7102 26.7405 39.723C26.6331 39.6727 26.5755 39.6622 26.4553 39.6494Z" fill="#DDDDDD"/>
<path d="M26.7881 39.674C26.7559 39.7072 26.8324 39.703 26.8363 39.6989C26.8685 39.6657 26.7921 39.6698 26.7881 39.674Z" fill="#757575"/>
<path d="M26.883 39.6494C27.0091 39.7067 27.0995 39.7165 27.2395 39.723C27.1134 39.6657 27.023 39.6559 26.883 39.6494Z" fill="#424242"/>
<path d="M27.8098 39.6494C28.0544 39.7553 28.3301 39.723 28.5939 39.723C28.3492 39.6171 28.0735 39.6494 27.8098 39.6494Z" fill="#464646"/>
<path d="M29.5206 39.6494C29.6097 39.6998 29.631 39.7045 29.7345 39.723C29.6455 39.6726 29.6241 39.6679 29.5206 39.6494Z" fill="#515151"/>
<path d="M29.7345 39.6494C29.8606 39.7067 29.9509 39.7165 30.0909 39.723C29.9648 39.6657 29.8745 39.6559 29.7345 39.6494Z" fill="#DCDCDC"/>
<path d="M14.2655 39.723C14.5661 39.8531 14.9398 39.7965 15.2635 39.7965C14.9629 39.6664 14.5892 39.723 14.2655 39.723Z" fill="#E9E9E9"/>
<path d="M26.7405 39.723C27.0409 39.8531 27.4152 39.7965 27.7385 39.7965H29.7345C29.434 39.6664 29.0598 39.723 28.7365 39.723H26.7405Z" fill="#D8D8D8"/>
</g>
</g>
<defs>
<clipPath id="clip0_7_7942">
<rect width="44" height="44" rx="8" fill="white"/>
</clipPath>
<clipPath id="clip1_7_7942">
<rect width="48.9732" height="41.182" fill="white" transform="translate(-2.4866 1.409)"/>
</clipPath>
</defs>
</svg>
